<svg width="14" height="14" viewBox="0 0 14 14" fill="none" xmlns="http://www.w3.org/2000/svg">
<path fill-rule="evenodd" clip-rule="evenodd" d="M5.58483 9.13745C3.02216 9.13745 0.833496 9.52478 0.833496 11.0768C0.833496 12.6281 3.00816 13.0301 5.58483 13.0301C8.1475 13.0301 10.3362 12.6421 10.3362 11.0908C10.3362 9.53945 8.1615 9.13745 5.58483 9.13745Z" stroke="#040921" stroke-width="1.5" stroke-linecap="round" stroke-linejoin="round"/>
<path fill-rule="evenodd" clip-rule="evenodd" d="M5.58488 6.92392C7.27555 6.92392 8.63022 5.56858 8.63022 3.87858C8.63022 2.18792 7.27555 0.833252 5.58488 0.833252C3.89488 0.833252 2.53955 2.18792 2.53955 3.87858C2.53955 5.56858 3.89488 6.92392 5.58488 6.92392Z" stroke="#040921" stroke-width="1.5" stroke-linecap="round" stroke-linejoin="round"/>
<path d="M11.8026 4.77942V7.45275" stroke="#040921" stroke-width="1.5" stroke-linecap="round" stroke-linejoin="round"/>
<path d="M13.1666 6.11593H10.4399" stroke="#040921" stroke-width="1.5" stroke-linecap="round" stroke-linejoin="round"/>
</svg>
