<svg width="21" height="20" viewBox="0 0 21 20" fill="none" xmlns="http://www.w3.org/2000/svg">
<path fill-rule="evenodd" clip-rule="evenodd" d="M14.3379 0.750244H5.66891C2.64791 0.750244 0.753906 2.88924 0.753906 5.91624V14.0842C0.753906 17.1112 2.63891 19.2502 5.66891 19.2502H14.3369C17.3679 19.2502 19.2539 17.1112 19.2539 14.0842V5.91624C19.2539 2.88924 17.3679 0.750244 14.3379 0.750244Z" stroke="#040921" stroke-width="1.5" stroke-linecap="round" stroke-linejoin="round"/>
<path fill-rule="evenodd" clip-rule="evenodd" d="M8.69421 10.0002C8.69421 11.0222 7.86521 11.8522 6.84221 11.8522C5.82021 11.8522 4.99121 11.0222 4.99121 10.0002C4.99121 8.97819 5.82021 8.14819 6.84221 8.14819C7.86521 8.14819 8.69421 8.97819 8.69421 10.0002Z" stroke="#040921" stroke-width="1.5" stroke-linecap="round" stroke-linejoin="round"/>
<path d="M8.69922 10.0002H15.0172V11.8522" stroke="#040921" stroke-width="1.5" stroke-linecap="round" stroke-linejoin="round"/>
<path d="M12.1836 11.8515V9.99951" stroke="#040921" stroke-width="1.5" stroke-linecap="round" stroke-linejoin="round"/>
</svg>
