<svg width="18" height="18" viewBox="0 0 18 18" fill="none" xmlns="http://www.w3.org/2000/svg">
<path fill-rule="evenodd" clip-rule="evenodd" d="M9.5938 1.86736L11.5238 5.74986C11.6205 5.94569 11.8071 6.08236 12.0238 6.11403L16.3446 6.73819C16.5196 6.76153 16.6771 6.85319 16.7846 6.99319C16.9863 7.25569 16.9555 7.62736 16.7138 7.85319L13.5821 10.8815C13.423 11.0315 13.3521 11.2515 13.3938 11.4657L14.1438 15.739C14.1963 16.0932 13.9546 16.4249 13.6005 16.4824C13.4538 16.5049 13.3038 16.4815 13.1705 16.4157L9.32214 14.3982C9.12881 14.2932 8.89714 14.2932 8.7038 14.3982L4.82714 16.4265C4.50297 16.5915 4.10631 16.469 3.92964 16.1515C3.86214 16.0232 3.83881 15.8774 3.86214 15.7349L4.61214 11.4615C4.64964 11.2482 4.57881 11.029 4.42381 10.8782L1.27547 7.85069C1.01881 7.59569 1.01714 7.18069 1.27297 6.92403C1.27381 6.92319 1.27464 6.92153 1.27547 6.92069C1.38131 6.82486 1.51131 6.76069 1.65214 6.73569L5.9738 6.11153C6.18964 6.07736 6.37547 5.94236 6.47381 5.74653L8.40214 1.86736C8.47964 1.70986 8.61714 1.58903 8.7838 1.53403C8.9513 1.47819 9.13464 1.49153 9.29214 1.57069C9.42131 1.63486 9.52714 1.73903 9.5938 1.86736Z" stroke="#200E32" stroke-width="1.5" stroke-linecap="round" stroke-linejoin="round"/>
</svg>
