<svg width="23" height="18" viewBox="0 0 23 18" fill="none" xmlns="http://www.w3.org/2000/svg">
<path d="M17.5947 7.93189C19.1971 7.93189 20.4969 6.63298 20.4969 5.03064C20.4969 3.42831 19.1971 2.12939 17.5947 2.12939" stroke="#200E32" stroke-width="1.5" stroke-linecap="round" stroke-linejoin="round"/>
<path d="M18.9287 11.0847C19.4072 11.1177 19.883 11.1856 20.3514 11.291C21.0022 11.4184 21.785 11.6851 22.0637 12.2691C22.2415 12.6431 22.2415 13.0785 22.0637 13.4534C21.786 14.0373 21.0022 14.3031 20.3514 14.437" stroke="#200E32" stroke-width="1.5" stroke-linecap="round" stroke-linejoin="round"/>
<path d="M6.28986 7.93189C4.68753 7.93189 3.3877 6.63298 3.3877 5.03064C3.3877 3.42831 4.68753 2.12939 6.28986 2.12939" stroke="#200E32" stroke-width="1.5" stroke-linecap="round" stroke-linejoin="round"/>
<path d="M4.95565 11.0847C4.47715 11.1177 4.0014 11.1856 3.53298 11.291C2.88215 11.4184 2.09931 11.6851 1.82156 12.2691C1.64281 12.6431 1.64281 13.0785 1.82156 13.4534C2.0984 14.0373 2.88215 14.3031 3.53298 14.437" stroke="#200E32" stroke-width="1.5" stroke-linecap="round" stroke-linejoin="round"/>
<path fill-rule="evenodd" clip-rule="evenodd" d="M11.9377 11.7095C15.1845 11.7095 17.9583 12.2008 17.9583 14.1671C17.9583 16.1324 15.2028 16.6421 11.9377 16.6421C8.68991 16.6421 5.91699 16.1507 5.91699 14.1845C5.91699 12.2182 8.67249 11.7095 11.9377 11.7095Z" stroke="#200E32" stroke-width="1.5" stroke-linecap="round" stroke-linejoin="round"/>
<path fill-rule="evenodd" clip-rule="evenodd" d="M11.9378 8.90492C9.79651 8.90492 8.07959 7.188 8.07959 5.04575C8.07959 2.90442 9.79651 1.1875 11.9378 1.1875C14.0792 1.1875 15.7961 2.90442 15.7961 5.04575C15.7961 7.188 14.0792 8.90492 11.9378 8.90492Z" stroke="#200E32" stroke-width="1.5" stroke-linecap="round" stroke-linejoin="round"/>
</svg>
