<svg width="20" height="21" viewBox="0 0 20 21" fill="none" xmlns="http://www.w3.org/2000/svg">
<path d="M15.8699 6.59998C15.7954 6.42869 15.6744 6.2817 15.5207 6.17566C15.3669 6.06961 15.1865 6.00875 14.9999 5.99998H10.4199L11.6899 1.25998C11.7304 1.11165 11.7361 0.955997 11.7066 0.80511C11.6771 0.654223 11.6132 0.512165 11.5199 0.389976C11.4257 0.267618 11.3045 0.168734 11.1657 0.101071C11.0269 0.0334085 10.8743 -0.00119375 10.7199 -2.38712e-05H3.71992C3.49416 -0.00775711 3.27243 0.0611759 3.09085 0.195548C2.90926 0.32992 2.77852 0.521814 2.71992 0.739976L0.0399235 10.74C-0.000850022 10.891 -0.00560955 11.0495 0.0260278 11.2028C0.0576651 11.356 0.124816 11.4997 0.222082 11.6222C0.319348 11.7448 0.444014 11.8428 0.586057 11.9084C0.7281 11.974 0.883555 12.0054 1.03992 12H4.88992L3.07992 18.74C3.02062 18.9573 3.03644 19.1883 3.12483 19.3955C3.21321 19.6028 3.36898 19.7741 3.56688 19.8817C3.76479 19.9893 3.99325 20.027 4.21523 19.9886C4.43721 19.9501 4.63971 19.8379 4.78992 19.67L15.6899 7.66998C15.8197 7.52786 15.9057 7.35131 15.9377 7.16151C15.9696 6.97171 15.9461 6.77674 15.8699 6.59998ZM6.07992 15.28L7.15992 11.28C7.20504 11.1295 7.21407 10.9705 7.18627 10.8159C7.15847 10.6612 7.09463 10.5153 6.99992 10.39C6.90472 10.2663 6.78187 10.1665 6.64122 10.0988C6.50057 10.0311 6.34601 9.99725 6.18992 9.99998H2.34992L4.48992 1.99998H9.41992L8.14992 6.73998C8.10915 6.89103 8.10439 7.04955 8.13603 7.20278C8.16767 7.35601 8.23482 7.49968 8.33208 7.62223C8.42935 7.74479 8.55402 7.84281 8.69606 7.90841C8.8381 7.97402 8.99356 8.00538 9.14992 7.99998H12.7199L6.07992 15.28ZM16.9999 11H15.9999C15.2043 11 14.4412 11.316 13.8786 11.8787C13.316 12.4413 12.9999 13.2043 12.9999 14V19C12.9999 19.2652 13.1053 19.5195 13.2928 19.7071C13.4804 19.8946 13.7347 20 13.9999 20C14.2651 20 14.5195 19.8946 14.707 19.7071C14.8946 19.5195 14.9999 19.2652 14.9999 19V17H17.9999V19C17.9999 19.2652 18.1053 19.5195 18.2928 19.7071C18.4804 19.8946 18.7347 20 18.9999 20C19.2651 20 19.5195 19.8946 19.707 19.7071C19.8946 19.5195 19.9999 19.2652 19.9999 19V14C19.9999 13.2043 19.6839 12.4413 19.1212 11.8787C18.5586 11.316 17.7956 11 16.9999 11ZM17.9999 15H14.9999V14C14.9999 13.7348 15.1053 13.4804 15.2928 13.2929C15.4804 13.1053 15.7347 13 15.9999 13H16.9999C17.2651 13 17.5195 13.1053 17.707 13.2929C17.8946 13.4804 17.9999 13.7348 17.9999 14V15Z" fill="#040921"/>
</svg>
