<svg width="8" height="14" viewBox="0 0 8 14" fill="none" xmlns="http://www.w3.org/2000/svg">
<path d="M1.1236 11.3857C0.751958 11.7942 0.781872 12.4267 1.19041 12.7983C1.59895 13.17 2.23141 13.14 2.60304 12.7315L1.1236 11.3857ZM6.23524 7.25259L6.97496 7.9255L7.56382 7.27817L7.00032 6.60865L6.23524 7.25259ZM2.52973 1.29701C2.17409 0.874469 1.54325 0.820231 1.12071 1.17587C0.69817 1.5315 0.643933 2.16234 0.999569 2.58488L2.52973 1.29701ZM2.60304 12.7315L6.97496 7.9255L5.49551 6.57968L1.1236 11.3857L2.60304 12.7315ZM7.00032 6.60865L2.52973 1.29701L0.999569 2.58488L5.47016 7.89652L7.00032 6.60865Z" fill="#583CF0"/>
</svg>
