<svg width="180" height="196" viewBox="0 0 180 196" fill="none" xmlns="http://www.w3.org/2000/svg">
<path fill-rule="evenodd" clip-rule="evenodd" d="M6.15707 3.07853C6.15707 4.77942 4.77942 6.15707 3.07853 6.15707C1.37764 6.15707 0 4.77942 0 3.07853C0 1.37764 1.37764 0 3.07853 0C4.77942 0 6.15707 1.37764 6.15707 3.07853Z" fill="url(#paint0_linear)"/>
<path fill-rule="evenodd" clip-rule="evenodd" d="M6.15707 18.4701C6.15707 20.171 4.77942 21.5487 3.07853 21.5487C1.37764 21.5487 0 20.171 0 18.4701C0 16.7692 1.37764 15.3916 3.07853 15.3916C4.77942 15.3916 6.15707 16.7692 6.15707 18.4701Z" fill="url(#paint1_linear)"/>
<path fill-rule="evenodd" clip-rule="evenodd" d="M22.577 18.4701C22.577 20.171 21.1993 21.5487 19.4985 21.5487C17.7976 21.5487 16.4199 20.171 16.4199 18.4701C16.4199 16.7692 17.7976 15.3916 19.4985 15.3916C21.1993 15.3916 22.577 16.7692 22.577 18.4701Z" fill="url(#paint2_linear)"/>
<path fill-rule="evenodd" clip-rule="evenodd" d="M37.9676 18.4701C37.9676 20.171 36.59 21.5487 34.8891 21.5487C33.1882 21.5487 31.8105 20.171 31.8105 18.4701C31.8105 16.7692 33.1882 15.3916 34.8891 15.3916C36.59 15.3916 37.9676 16.7692 37.9676 18.4701Z" fill="url(#paint3_linear)"/>
<path fill-rule="evenodd" clip-rule="evenodd" d="M53.3621 18.4701C53.3621 20.171 51.9845 21.5487 50.2836 21.5487C48.5827 21.5487 47.2051 20.171 47.2051 18.4701C47.2051 16.7692 48.5827 15.3916 50.2836 15.3916C51.9845 15.3916 53.3621 16.7692 53.3621 18.4701Z" fill="url(#paint4_linear)"/>
<path fill-rule="evenodd" clip-rule="evenodd" d="M69.7801 18.4701C69.7801 20.171 68.4025 21.5487 66.7016 21.5487C65.0007 21.5487 63.623 20.171 63.623 18.4701C63.623 16.7692 65.0007 15.3916 66.7016 15.3916C68.4025 15.3916 69.7801 16.7692 69.7801 18.4701Z" fill="url(#paint5_linear)"/>
<path fill-rule="evenodd" clip-rule="evenodd" d="M85.1727 18.4701C85.1727 20.171 83.795 21.5487 82.0942 21.5487C80.3933 21.5487 79.0156 20.171 79.0156 18.4701C79.0156 16.7692 80.3933 15.3916 82.0942 15.3916C83.795 15.3916 85.1727 16.7692 85.1727 18.4701Z" fill="url(#paint6_linear)"/>
<path fill-rule="evenodd" clip-rule="evenodd" d="M101.593 18.4701C101.593 20.171 100.215 21.5487 98.5141 21.5487C96.8132 21.5487 95.4355 20.171 95.4355 18.4701C95.4355 16.7692 96.8132 15.3916 98.5141 15.3916C100.215 15.3916 101.593 16.7692 101.593 18.4701Z" fill="url(#paint7_linear)"/>
<path fill-rule="evenodd" clip-rule="evenodd" d="M116.983 18.4701C116.983 20.171 115.606 21.5487 113.905 21.5487C112.204 21.5487 110.826 20.171 110.826 18.4701C110.826 16.7692 112.204 15.3916 113.905 15.3916C115.606 15.3916 116.983 16.7692 116.983 18.4701Z" fill="url(#paint8_linear)"/>
<path fill-rule="evenodd" clip-rule="evenodd" d="M133.403 18.4701C133.403 20.171 132.026 21.5487 130.325 21.5487C128.624 21.5487 127.246 20.171 127.246 18.4701C127.246 16.7692 128.624 15.3916 130.325 15.3916C132.026 15.3916 133.403 16.7692 133.403 18.4701Z" fill="url(#paint9_linear)"/>
<path fill-rule="evenodd" clip-rule="evenodd" d="M148.796 18.4701C148.796 20.171 147.418 21.5487 145.717 21.5487C144.016 21.5487 142.639 20.171 142.639 18.4701C142.639 16.7692 144.016 15.3916 145.717 15.3916C147.418 15.3916 148.796 16.7692 148.796 18.4701Z" fill="url(#paint10_linear)"/>
<path fill-rule="evenodd" clip-rule="evenodd" d="M164.188 18.4701C164.188 20.171 162.811 21.5487 161.11 21.5487C159.409 21.5487 158.031 20.171 158.031 18.4701C158.031 16.7692 159.409 15.3916 161.11 15.3916C162.811 15.3916 164.188 16.7692 164.188 18.4701Z" fill="url(#paint11_linear)"/>
<path fill-rule="evenodd" clip-rule="evenodd" d="M180.608 18.4701C180.608 20.171 179.231 21.5487 177.53 21.5487C175.829 21.5487 174.451 20.171 174.451 18.4701C174.451 16.7692 175.829 15.3916 177.53 15.3916C179.231 15.3916 180.608 16.7692 180.608 18.4701Z" fill="url(#paint12_linear)"/>
<path fill-rule="evenodd" clip-rule="evenodd" d="M6.15707 34.8905C6.15707 36.5914 4.77942 37.9691 3.07853 37.9691C1.37764 37.9691 0 36.5914 0 34.8905C0 33.1897 1.37764 31.812 3.07853 31.812C4.77942 31.812 6.15707 33.1897 6.15707 34.8905Z" fill="url(#paint13_linear)"/>
<path fill-rule="evenodd" clip-rule="evenodd" d="M22.577 34.8905C22.577 36.5914 21.1993 37.9691 19.4985 37.9691C17.7976 37.9691 16.4199 36.5914 16.4199 34.8905C16.4199 33.1897 17.7976 31.812 19.4985 31.812C21.1993 31.812 22.577 33.1897 22.577 34.8905Z" fill="url(#paint14_linear)"/>
<path fill-rule="evenodd" clip-rule="evenodd" d="M37.9676 34.8905C37.9676 36.5914 36.59 37.9691 34.8891 37.9691C33.1882 37.9691 31.8105 36.5914 31.8105 34.8905C31.8105 33.1897 33.1882 31.812 34.8891 31.812C36.59 31.812 37.9676 33.1897 37.9676 34.8905Z" fill="url(#paint15_linear)"/>
<path fill-rule="evenodd" clip-rule="evenodd" d="M53.3621 34.8905C53.3621 36.5914 51.9845 37.9691 50.2836 37.9691C48.5827 37.9691 47.2051 36.5914 47.2051 34.8905C47.2051 33.1897 48.5827 31.812 50.2836 31.812C51.9845 31.812 53.3621 33.1897 53.3621 34.8905Z" fill="url(#paint16_linear)"/>
<path fill-rule="evenodd" clip-rule="evenodd" d="M69.7801 34.8905C69.7801 36.5914 68.4025 37.9691 66.7016 37.9691C65.0007 37.9691 63.623 36.5914 63.623 34.8905C63.623 33.1897 65.0007 31.812 66.7016 31.812C68.4025 31.812 69.7801 33.1897 69.7801 34.8905Z" fill="url(#paint17_linear)"/>
<path fill-rule="evenodd" clip-rule="evenodd" d="M85.1727 34.8905C85.1727 36.5914 83.795 37.9691 82.0942 37.9691C80.3933 37.9691 79.0156 36.5914 79.0156 34.8905C79.0156 33.1897 80.3933 31.812 82.0942 31.812C83.795 31.812 85.1727 33.1897 85.1727 34.8905Z" fill="url(#paint18_linear)"/>
<path fill-rule="evenodd" clip-rule="evenodd" d="M101.593 34.8905C101.593 36.5914 100.215 37.9691 98.5141 37.9691C96.8132 37.9691 95.4355 36.5914 95.4355 34.8905C95.4355 33.1897 96.8132 31.812 98.5141 31.812C100.215 31.812 101.593 33.1897 101.593 34.8905Z" fill="url(#paint19_linear)"/>
<path fill-rule="evenodd" clip-rule="evenodd" d="M116.983 34.8905C116.983 36.5914 115.606 37.9691 113.905 37.9691C112.204 37.9691 110.826 36.5914 110.826 34.8905C110.826 33.1897 112.204 31.812 113.905 31.812C115.606 31.812 116.983 33.1897 116.983 34.8905Z" fill="url(#paint20_linear)"/>
<path fill-rule="evenodd" clip-rule="evenodd" d="M133.403 34.8905C133.403 36.5914 132.026 37.9691 130.325 37.9691C128.624 37.9691 127.246 36.5914 127.246 34.8905C127.246 33.1897 128.624 31.812 130.325 31.812C132.026 31.812 133.403 33.1897 133.403 34.8905Z" fill="url(#paint21_linear)"/>
<path fill-rule="evenodd" clip-rule="evenodd" d="M148.796 34.8905C148.796 36.5914 147.418 37.9691 145.717 37.9691C144.016 37.9691 142.639 36.5914 142.639 34.8905C142.639 33.1897 144.016 31.812 145.717 31.812C147.418 31.812 148.796 33.1897 148.796 34.8905Z" fill="url(#paint22_linear)"/>
<path fill-rule="evenodd" clip-rule="evenodd" d="M164.188 34.8905C164.188 36.5914 162.811 37.9691 161.11 37.9691C159.409 37.9691 158.031 36.5914 158.031 34.8905C158.031 33.1897 159.409 31.812 161.11 31.812C162.811 31.812 164.188 33.1897 164.188 34.8905Z" fill="url(#paint23_linear)"/>
<path fill-rule="evenodd" clip-rule="evenodd" d="M180.608 34.8905C180.608 36.5914 179.231 37.9691 177.53 37.9691C175.829 37.9691 174.451 36.5914 174.451 34.8905C174.451 33.1897 175.829 31.812 177.53 31.812C179.231 31.812 180.608 33.1897 180.608 34.8905Z" fill="url(#paint24_linear)"/>
<path fill-rule="evenodd" clip-rule="evenodd" d="M6.15707 50.2821C6.15707 51.983 4.77942 53.3607 3.07853 53.3607C1.37764 53.3607 0 51.983 0 50.2821C0 48.5813 1.37764 47.2036 3.07853 47.2036C4.77942 47.2036 6.15707 48.5813 6.15707 50.2821Z" fill="url(#paint25_linear)"/>
<path fill-rule="evenodd" clip-rule="evenodd" d="M22.577 50.2821C22.577 51.983 21.1993 53.3607 19.4985 53.3607C17.7976 53.3607 16.4199 51.983 16.4199 50.2821C16.4199 48.5813 17.7976 47.2036 19.4985 47.2036C21.1993 47.2036 22.577 48.5813 22.577 50.2821Z" fill="url(#paint26_linear)"/>
<path fill-rule="evenodd" clip-rule="evenodd" d="M37.9676 50.2821C37.9676 51.983 36.59 53.3607 34.8891 53.3607C33.1882 53.3607 31.8105 51.983 31.8105 50.2821C31.8105 48.5813 33.1882 47.2036 34.8891 47.2036C36.59 47.2036 37.9676 48.5813 37.9676 50.2821Z" fill="url(#paint27_linear)"/>
<path fill-rule="evenodd" clip-rule="evenodd" d="M53.3621 50.2821C53.3621 51.983 51.9845 53.3607 50.2836 53.3607C48.5827 53.3607 47.2051 51.983 47.2051 50.2821C47.2051 48.5813 48.5827 47.2036 50.2836 47.2036C51.9845 47.2036 53.3621 48.5813 53.3621 50.2821Z" fill="url(#paint28_linear)"/>
<path fill-rule="evenodd" clip-rule="evenodd" d="M69.7801 50.2821C69.7801 51.983 68.4025 53.3607 66.7016 53.3607C65.0007 53.3607 63.623 51.983 63.623 50.2821C63.623 48.5813 65.0007 47.2036 66.7016 47.2036C68.4025 47.2036 69.7801 48.5813 69.7801 50.2821Z" fill="url(#paint29_linear)"/>
<path fill-rule="evenodd" clip-rule="evenodd" d="M85.1727 50.2821C85.1727 51.983 83.795 53.3607 82.0942 53.3607C80.3933 53.3607 79.0156 51.983 79.0156 50.2821C79.0156 48.5813 80.3933 47.2036 82.0942 47.2036C83.795 47.2036 85.1727 48.5813 85.1727 50.2821Z" fill="url(#paint30_linear)"/>
<path fill-rule="evenodd" clip-rule="evenodd" d="M101.593 50.2821C101.593 51.983 100.215 53.3607 98.5141 53.3607C96.8132 53.3607 95.4355 51.983 95.4355 50.2821C95.4355 48.5813 96.8132 47.2036 98.5141 47.2036C100.215 47.2036 101.593 48.5813 101.593 50.2821Z" fill="url(#paint31_linear)"/>
<path fill-rule="evenodd" clip-rule="evenodd" d="M116.983 50.2821C116.983 51.983 115.606 53.3607 113.905 53.3607C112.204 53.3607 110.826 51.983 110.826 50.2821C110.826 48.5813 112.204 47.2036 113.905 47.2036C115.606 47.2036 116.983 48.5813 116.983 50.2821Z" fill="url(#paint32_linear)"/>
<path fill-rule="evenodd" clip-rule="evenodd" d="M133.403 50.2821C133.403 51.983 132.026 53.3607 130.325 53.3607C128.624 53.3607 127.246 51.983 127.246 50.2821C127.246 48.5813 128.624 47.2036 130.325 47.2036C132.026 47.2036 133.403 48.5813 133.403 50.2821Z" fill="url(#paint33_linear)"/>
<path fill-rule="evenodd" clip-rule="evenodd" d="M148.796 50.2821C148.796 51.983 147.418 53.3607 145.717 53.3607C144.016 53.3607 142.639 51.983 142.639 50.2821C142.639 48.5813 144.016 47.2036 145.717 47.2036C147.418 47.2036 148.796 48.5813 148.796 50.2821Z" fill="url(#paint34_linear)"/>
<path fill-rule="evenodd" clip-rule="evenodd" d="M164.188 50.2821C164.188 51.983 162.811 53.3607 161.11 53.3607C159.409 53.3607 158.031 51.983 158.031 50.2821C158.031 48.5813 159.409 47.2036 161.11 47.2036C162.811 47.2036 164.188 48.5813 164.188 50.2821Z" fill="url(#paint35_linear)"/>
<path fill-rule="evenodd" clip-rule="evenodd" d="M180.608 50.2821C180.608 51.983 179.231 53.3607 177.53 53.3607C175.829 53.3607 174.451 51.983 174.451 50.2821C174.451 48.5813 175.829 47.2036 177.53 47.2036C179.231 47.2036 180.608 48.5813 180.608 50.2821Z" fill="url(#paint36_linear)"/>
<path fill-rule="evenodd" clip-rule="evenodd" d="M6.15707 66.7026C6.15707 68.4034 4.77942 69.7811 3.07853 69.7811C1.37764 69.7811 0 68.4034 0 66.7026C0 65.0017 1.37764 63.624 3.07853 63.624C4.77942 63.624 6.15707 65.0017 6.15707 66.7026Z" fill="url(#paint37_linear)"/>
<path fill-rule="evenodd" clip-rule="evenodd" d="M22.577 66.7026C22.577 68.4034 21.1993 69.7811 19.4985 69.7811C17.7976 69.7811 16.4199 68.4034 16.4199 66.7026C16.4199 65.0017 17.7976 63.624 19.4985 63.624C21.1993 63.624 22.577 65.0017 22.577 66.7026Z" fill="url(#paint38_linear)"/>
<path fill-rule="evenodd" clip-rule="evenodd" d="M37.9676 66.7026C37.9676 68.4034 36.59 69.7811 34.8891 69.7811C33.1882 69.7811 31.8105 68.4034 31.8105 66.7026C31.8105 65.0017 33.1882 63.624 34.8891 63.624C36.59 63.624 37.9676 65.0017 37.9676 66.7026Z" fill="url(#paint39_linear)"/>
<path fill-rule="evenodd" clip-rule="evenodd" d="M53.3621 66.7026C53.3621 68.4034 51.9845 69.7811 50.2836 69.7811C48.5827 69.7811 47.2051 68.4034 47.2051 66.7026C47.2051 65.0017 48.5827 63.624 50.2836 63.624C51.9845 63.624 53.3621 65.0017 53.3621 66.7026Z" fill="url(#paint40_linear)"/>
<path fill-rule="evenodd" clip-rule="evenodd" d="M69.7801 66.7026C69.7801 68.4034 68.4025 69.7811 66.7016 69.7811C65.0007 69.7811 63.623 68.4034 63.623 66.7026C63.623 65.0017 65.0007 63.624 66.7016 63.624C68.4025 63.624 69.7801 65.0017 69.7801 66.7026Z" fill="url(#paint41_linear)"/>
<path fill-rule="evenodd" clip-rule="evenodd" d="M85.1727 66.7026C85.1727 68.4034 83.795 69.7811 82.0942 69.7811C80.3933 69.7811 79.0156 68.4034 79.0156 66.7026C79.0156 65.0017 80.3933 63.624 82.0942 63.624C83.795 63.624 85.1727 65.0017 85.1727 66.7026Z" fill="url(#paint42_linear)"/>
<path fill-rule="evenodd" clip-rule="evenodd" d="M101.593 66.7026C101.593 68.4034 100.215 69.7811 98.5141 69.7811C96.8132 69.7811 95.4355 68.4034 95.4355 66.7026C95.4355 65.0017 96.8132 63.624 98.5141 63.624C100.215 63.624 101.593 65.0017 101.593 66.7026Z" fill="url(#paint43_linear)"/>
<path fill-rule="evenodd" clip-rule="evenodd" d="M116.983 66.7026C116.983 68.4034 115.606 69.7811 113.905 69.7811C112.204 69.7811 110.826 68.4034 110.826 66.7026C110.826 65.0017 112.204 63.624 113.905 63.624C115.606 63.624 116.983 65.0017 116.983 66.7026Z" fill="url(#paint44_linear)"/>
<path fill-rule="evenodd" clip-rule="evenodd" d="M133.403 66.7026C133.403 68.4034 132.026 69.7811 130.325 69.7811C128.624 69.7811 127.246 68.4034 127.246 66.7026C127.246 65.0017 128.624 63.624 130.325 63.624C132.026 63.624 133.403 65.0017 133.403 66.7026Z" fill="url(#paint45_linear)"/>
<path fill-rule="evenodd" clip-rule="evenodd" d="M148.796 66.7026C148.796 68.4034 147.418 69.7811 145.717 69.7811C144.016 69.7811 142.639 68.4034 142.639 66.7026C142.639 65.0017 144.016 63.624 145.717 63.624C147.418 63.624 148.796 65.0017 148.796 66.7026Z" fill="url(#paint46_linear)"/>
<path fill-rule="evenodd" clip-rule="evenodd" d="M164.188 66.7026C164.188 68.4034 162.811 69.7811 161.11 69.7811C159.409 69.7811 158.031 68.4034 158.031 66.7026C158.031 65.0017 159.409 63.624 161.11 63.624C162.811 63.624 164.188 65.0017 164.188 66.7026Z" fill="url(#paint47_linear)"/>
<path fill-rule="evenodd" clip-rule="evenodd" d="M180.608 66.7026C180.608 68.4034 179.231 69.7811 177.53 69.7811C175.829 69.7811 174.451 68.4034 174.451 66.7026C174.451 65.0017 175.829 63.624 177.53 63.624C179.231 63.624 180.608 65.0017 180.608 66.7026Z" fill="url(#paint48_linear)"/>
<path fill-rule="evenodd" clip-rule="evenodd" d="M6.15707 82.0942C6.15707 83.795 4.77942 85.1727 3.07853 85.1727C1.37764 85.1727 0 83.795 0 82.0942C0 80.3933 1.37764 79.0156 3.07853 79.0156C4.77942 79.0156 6.15707 80.3933 6.15707 82.0942Z" fill="url(#paint49_linear)"/>
<path fill-rule="evenodd" clip-rule="evenodd" d="M22.577 82.0942C22.577 83.795 21.1993 85.1727 19.4985 85.1727C17.7976 85.1727 16.4199 83.795 16.4199 82.0942C16.4199 80.3933 17.7976 79.0156 19.4985 79.0156C21.1993 79.0156 22.577 80.3933 22.577 82.0942Z" fill="url(#paint50_linear)"/>
<path fill-rule="evenodd" clip-rule="evenodd" d="M37.9676 82.0942C37.9676 83.795 36.59 85.1727 34.8891 85.1727C33.1882 85.1727 31.8105 83.795 31.8105 82.0942C31.8105 80.3933 33.1882 79.0156 34.8891 79.0156C36.59 79.0156 37.9676 80.3933 37.9676 82.0942Z" fill="url(#paint51_linear)"/>
<path fill-rule="evenodd" clip-rule="evenodd" d="M53.3621 82.0942C53.3621 83.795 51.9845 85.1727 50.2836 85.1727C48.5827 85.1727 47.2051 83.795 47.2051 82.0942C47.2051 80.3933 48.5827 79.0156 50.2836 79.0156C51.9845 79.0156 53.3621 80.3933 53.3621 82.0942Z" fill="url(#paint52_linear)"/>
<path fill-rule="evenodd" clip-rule="evenodd" d="M69.7801 82.0942C69.7801 83.795 68.4025 85.1727 66.7016 85.1727C65.0007 85.1727 63.623 83.795 63.623 82.0942C63.623 80.3933 65.0007 79.0156 66.7016 79.0156C68.4025 79.0156 69.7801 80.3933 69.7801 82.0942Z" fill="url(#paint53_linear)"/>
<path fill-rule="evenodd" clip-rule="evenodd" d="M85.1727 82.0942C85.1727 83.795 83.795 85.1727 82.0942 85.1727C80.3933 85.1727 79.0156 83.795 79.0156 82.0942C79.0156 80.3933 80.3933 79.0156 82.0942 79.0156C83.795 79.0156 85.1727 80.3933 85.1727 82.0942Z" fill="url(#paint54_linear)"/>
<path fill-rule="evenodd" clip-rule="evenodd" d="M101.593 82.0942C101.593 83.795 100.215 85.1727 98.5141 85.1727C96.8132 85.1727 95.4355 83.795 95.4355 82.0942C95.4355 80.3933 96.8132 79.0156 98.5141 79.0156C100.215 79.0156 101.593 80.3933 101.593 82.0942Z" fill="url(#paint55_linear)"/>
<path fill-rule="evenodd" clip-rule="evenodd" d="M116.983 82.0942C116.983 83.795 115.606 85.1727 113.905 85.1727C112.204 85.1727 110.826 83.795 110.826 82.0942C110.826 80.3933 112.204 79.0156 113.905 79.0156C115.606 79.0156 116.983 80.3933 116.983 82.0942Z" fill="url(#paint56_linear)"/>
<path fill-rule="evenodd" clip-rule="evenodd" d="M133.403 82.0942C133.403 83.795 132.026 85.1727 130.325 85.1727C128.624 85.1727 127.246 83.795 127.246 82.0942C127.246 80.3933 128.624 79.0156 130.325 79.0156C132.026 79.0156 133.403 80.3933 133.403 82.0942Z" fill="url(#paint57_linear)"/>
<path fill-rule="evenodd" clip-rule="evenodd" d="M148.796 82.0942C148.796 83.795 147.418 85.1727 145.717 85.1727C144.016 85.1727 142.639 83.795 142.639 82.0942C142.639 80.3933 144.016 79.0156 145.717 79.0156C147.418 79.0156 148.796 80.3933 148.796 82.0942Z" fill="url(#paint58_linear)"/>
<path fill-rule="evenodd" clip-rule="evenodd" d="M164.188 82.0942C164.188 83.795 162.811 85.1727 161.11 85.1727C159.409 85.1727 158.031 83.795 158.031 82.0942C158.031 80.3933 159.409 79.0156 161.11 79.0156C162.811 79.0156 164.188 80.3933 164.188 82.0942Z" fill="url(#paint59_linear)"/>
<path fill-rule="evenodd" clip-rule="evenodd" d="M180.608 82.0942C180.608 83.795 179.231 85.1727 177.53 85.1727C175.829 85.1727 174.451 83.795 174.451 82.0942C174.451 80.3933 175.829 79.0156 177.53 79.0156C179.231 79.0156 180.608 80.3933 180.608 82.0942Z" fill="url(#paint60_linear)"/>
<path fill-rule="evenodd" clip-rule="evenodd" d="M6.15707 98.516C6.15707 100.217 4.77942 101.595 3.07853 101.595C1.37764 101.595 0 100.217 0 98.516C0 96.8151 1.37764 95.4375 3.07853 95.4375C4.77942 95.4375 6.15707 96.8151 6.15707 98.516Z" fill="url(#paint61_linear)"/>
<path fill-rule="evenodd" clip-rule="evenodd" d="M22.575 98.516C22.575 100.217 21.1974 101.595 19.4965 101.595C17.7956 101.595 16.418 100.217 16.418 98.516C16.418 96.8151 17.7956 95.4375 19.4965 95.4375C21.1974 95.4375 22.575 96.8151 22.575 98.516Z" fill="url(#paint62_linear)"/>
<path fill-rule="evenodd" clip-rule="evenodd" d="M37.9696 98.516C37.9696 100.217 36.5919 101.595 34.891 101.595C33.1901 101.595 31.8125 100.217 31.8125 98.516C31.8125 96.8151 33.1901 95.4375 34.891 95.4375C36.5919 95.4375 37.9696 96.8151 37.9696 98.516Z" fill="url(#paint63_linear)"/>
<path fill-rule="evenodd" clip-rule="evenodd" d="M53.3621 98.516C53.3621 100.217 51.9845 101.595 50.2836 101.595C48.5827 101.595 47.2051 100.217 47.2051 98.516C47.2051 96.8151 48.5827 95.4375 50.2836 95.4375C51.9845 95.4375 53.3621 96.8151 53.3621 98.516Z" fill="url(#paint64_linear)"/>
<path fill-rule="evenodd" clip-rule="evenodd" d="M69.7801 98.516C69.7801 100.217 68.4025 101.595 66.7016 101.595C65.0007 101.595 63.623 100.217 63.623 98.516C63.623 96.8151 65.0007 95.4375 66.7016 95.4375C68.4025 95.4375 69.7801 96.8151 69.7801 98.516Z" fill="url(#paint65_linear)"/>
<path fill-rule="evenodd" clip-rule="evenodd" d="M85.1727 98.516C85.1727 100.217 83.795 101.595 82.0942 101.595C80.3933 101.595 79.0156 100.217 79.0156 98.516C79.0156 96.8151 80.3933 95.4375 82.0942 95.4375C83.795 95.4375 85.1727 96.8151 85.1727 98.516Z" fill="url(#paint66_linear)"/>
<path fill-rule="evenodd" clip-rule="evenodd" d="M101.591 98.516C101.591 100.217 100.213 101.595 98.5121 101.595C96.8112 101.595 95.4336 100.217 95.4336 98.516C95.4336 96.8151 96.8112 95.4375 98.5121 95.4375C100.213 95.4375 101.591 96.8151 101.591 98.516Z" fill="url(#paint67_linear)"/>
<path fill-rule="evenodd" clip-rule="evenodd" d="M116.985 98.516C116.985 100.217 115.608 101.595 113.907 101.595C112.206 101.595 110.828 100.217 110.828 98.516C110.828 96.8151 112.206 95.4375 113.907 95.4375C115.608 95.4375 116.985 96.8151 116.985 98.516Z" fill="url(#paint68_linear)"/>
<path fill-rule="evenodd" clip-rule="evenodd" d="M133.403 98.516C133.403 100.217 132.026 101.595 130.325 101.595C128.624 101.595 127.246 100.217 127.246 98.516C127.246 96.8151 128.624 95.4375 130.325 95.4375C132.026 95.4375 133.403 96.8151 133.403 98.516Z" fill="url(#paint69_linear)"/>
<path fill-rule="evenodd" clip-rule="evenodd" d="M148.796 98.516C148.796 100.217 147.418 101.595 145.717 101.595C144.016 101.595 142.639 100.217 142.639 98.516C142.639 96.8151 144.016 95.4375 145.717 95.4375C147.418 95.4375 148.796 96.8151 148.796 98.516Z" fill="url(#paint70_linear)"/>
<path fill-rule="evenodd" clip-rule="evenodd" d="M164.188 98.516C164.188 100.217 162.811 101.595 161.11 101.595C159.409 101.595 158.031 100.217 158.031 98.516C158.031 96.8151 159.409 95.4375 161.11 95.4375C162.811 95.4375 164.188 96.8151 164.188 98.516Z" fill="url(#paint71_linear)"/>
<path fill-rule="evenodd" clip-rule="evenodd" d="M180.606 98.516C180.606 100.217 179.229 101.595 177.528 101.595C175.827 101.595 174.449 100.217 174.449 98.516C174.449 96.8151 175.827 95.4375 177.528 95.4375C179.229 95.4375 180.606 96.8151 180.606 98.516Z" fill="url(#paint72_linear)"/>
<path fill-rule="evenodd" clip-rule="evenodd" d="M6.15707 113.906C6.15707 115.607 4.77942 116.985 3.07853 116.985C1.37764 116.985 0 115.607 0 113.906C0 112.205 1.37764 110.828 3.07853 110.828C4.77942 110.828 6.15707 112.205 6.15707 113.906Z" fill="url(#paint73_linear)"/>
<path fill-rule="evenodd" clip-rule="evenodd" d="M22.577 113.906C22.577 115.607 21.1993 116.985 19.4985 116.985C17.7976 116.985 16.4199 115.607 16.4199 113.906C16.4199 112.205 17.7976 110.828 19.4985 110.828C21.1993 110.828 22.577 112.205 22.577 113.906Z" fill="url(#paint74_linear)"/>
<path fill-rule="evenodd" clip-rule="evenodd" d="M37.9676 113.906C37.9676 115.607 36.59 116.985 34.8891 116.985C33.1882 116.985 31.8105 115.607 31.8105 113.906C31.8105 112.205 33.1882 110.828 34.8891 110.828C36.59 110.828 37.9676 112.205 37.9676 113.906Z" fill="url(#paint75_linear)"/>
<path fill-rule="evenodd" clip-rule="evenodd" d="M53.3621 113.906C53.3621 115.607 51.9845 116.985 50.2836 116.985C48.5827 116.985 47.2051 115.607 47.2051 113.906C47.2051 112.205 48.5827 110.828 50.2836 110.828C51.9845 110.828 53.3621 112.205 53.3621 113.906Z" fill="url(#paint76_linear)"/>
<path fill-rule="evenodd" clip-rule="evenodd" d="M69.7801 113.906C69.7801 115.607 68.4025 116.985 66.7016 116.985C65.0007 116.985 63.623 115.607 63.623 113.906C63.623 112.205 65.0007 110.828 66.7016 110.828C68.4025 110.828 69.7801 112.205 69.7801 113.906Z" fill="url(#paint77_linear)"/>
<path fill-rule="evenodd" clip-rule="evenodd" d="M85.1727 113.906C85.1727 115.607 83.795 116.985 82.0942 116.985C80.3933 116.985 79.0156 115.607 79.0156 113.906C79.0156 112.205 80.3933 110.828 82.0942 110.828C83.795 110.828 85.1727 112.205 85.1727 113.906Z" fill="url(#paint78_linear)"/>
<path fill-rule="evenodd" clip-rule="evenodd" d="M101.593 113.906C101.593 115.607 100.215 116.985 98.5141 116.985C96.8132 116.985 95.4355 115.607 95.4355 113.906C95.4355 112.205 96.8132 110.828 98.5141 110.828C100.215 110.828 101.593 112.205 101.593 113.906Z" fill="url(#paint79_linear)"/>
<path fill-rule="evenodd" clip-rule="evenodd" d="M116.983 113.906C116.983 115.607 115.606 116.985 113.905 116.985C112.204 116.985 110.826 115.607 110.826 113.906C110.826 112.205 112.204 110.828 113.905 110.828C115.606 110.828 116.983 112.205 116.983 113.906Z" fill="url(#paint80_linear)"/>
<path fill-rule="evenodd" clip-rule="evenodd" d="M133.403 113.906C133.403 115.607 132.026 116.985 130.325 116.985C128.624 116.985 127.246 115.607 127.246 113.906C127.246 112.205 128.624 110.828 130.325 110.828C132.026 110.828 133.403 112.205 133.403 113.906Z" fill="url(#paint81_linear)"/>
<path fill-rule="evenodd" clip-rule="evenodd" d="M148.796 113.906C148.796 115.607 147.418 116.985 145.717 116.985C144.016 116.985 142.639 115.607 142.639 113.906C142.639 112.205 144.016 110.828 145.717 110.828C147.418 110.828 148.796 112.205 148.796 113.906Z" fill="url(#paint82_linear)"/>
<path fill-rule="evenodd" clip-rule="evenodd" d="M164.188 113.906C164.188 115.607 162.811 116.985 161.11 116.985C159.409 116.985 158.031 115.607 158.031 113.906C158.031 112.205 159.409 110.828 161.11 110.828C162.811 110.828 164.188 112.205 164.188 113.906Z" fill="url(#paint83_linear)"/>
<path fill-rule="evenodd" clip-rule="evenodd" d="M180.608 113.906C180.608 115.607 179.231 116.985 177.53 116.985C175.829 116.985 174.451 115.607 174.451 113.906C174.451 112.205 175.829 110.828 177.53 110.828C179.231 110.828 180.608 112.205 180.608 113.906Z" fill="url(#paint84_linear)"/>
<path fill-rule="evenodd" clip-rule="evenodd" d="M6.15707 129.298C6.15707 130.999 4.77942 132.376 3.07853 132.376C1.37764 132.376 0 130.999 0 129.298C0 127.597 1.37764 126.219 3.07853 126.219C4.77942 126.219 6.15707 127.597 6.15707 129.298Z" fill="url(#paint85_linear)"/>
<path fill-rule="evenodd" clip-rule="evenodd" d="M22.577 129.298C22.577 130.999 21.1993 132.376 19.4985 132.376C17.7976 132.376 16.4199 130.999 16.4199 129.298C16.4199 127.597 17.7976 126.219 19.4985 126.219C21.1993 126.219 22.577 127.597 22.577 129.298Z" fill="url(#paint86_linear)"/>
<path fill-rule="evenodd" clip-rule="evenodd" d="M37.9676 129.298C37.9676 130.999 36.59 132.376 34.8891 132.376C33.1882 132.376 31.8105 130.999 31.8105 129.298C31.8105 127.597 33.1882 126.219 34.8891 126.219C36.59 126.219 37.9676 127.597 37.9676 129.298Z" fill="url(#paint87_linear)"/>
<path fill-rule="evenodd" clip-rule="evenodd" d="M53.3621 129.298C53.3621 130.999 51.9845 132.376 50.2836 132.376C48.5827 132.376 47.2051 130.999 47.2051 129.298C47.2051 127.597 48.5827 126.219 50.2836 126.219C51.9845 126.219 53.3621 127.597 53.3621 129.298Z" fill="url(#paint88_linear)"/>
<path fill-rule="evenodd" clip-rule="evenodd" d="M69.7801 129.298C69.7801 130.999 68.4025 132.376 66.7016 132.376C65.0007 132.376 63.623 130.999 63.623 129.298C63.623 127.597 65.0007 126.219 66.7016 126.219C68.4025 126.219 69.7801 127.597 69.7801 129.298Z" fill="url(#paint89_linear)"/>
<path fill-rule="evenodd" clip-rule="evenodd" d="M85.1727 129.298C85.1727 130.999 83.795 132.376 82.0942 132.376C80.3933 132.376 79.0156 130.999 79.0156 129.298C79.0156 127.597 80.3933 126.219 82.0942 126.219C83.795 126.219 85.1727 127.597 85.1727 129.298Z" fill="url(#paint90_linear)"/>
<path fill-rule="evenodd" clip-rule="evenodd" d="M101.593 129.298C101.593 130.999 100.215 132.376 98.5141 132.376C96.8132 132.376 95.4355 130.999 95.4355 129.298C95.4355 127.597 96.8132 126.219 98.5141 126.219C100.215 126.219 101.593 127.597 101.593 129.298Z" fill="url(#paint91_linear)"/>
<path fill-rule="evenodd" clip-rule="evenodd" d="M116.983 129.298C116.983 130.999 115.606 132.376 113.905 132.376C112.204 132.376 110.826 130.999 110.826 129.298C110.826 127.597 112.204 126.219 113.905 126.219C115.606 126.219 116.983 127.597 116.983 129.298Z" fill="url(#paint92_linear)"/>
<path fill-rule="evenodd" clip-rule="evenodd" d="M133.403 129.298C133.403 130.999 132.026 132.376 130.325 132.376C128.624 132.376 127.246 130.999 127.246 129.298C127.246 127.597 128.624 126.219 130.325 126.219C132.026 126.219 133.403 127.597 133.403 129.298Z" fill="url(#paint93_linear)"/>
<path fill-rule="evenodd" clip-rule="evenodd" d="M148.796 129.298C148.796 130.999 147.418 132.376 145.717 132.376C144.016 132.376 142.639 130.999 142.639 129.298C142.639 127.597 144.016 126.219 145.717 126.219C147.418 126.219 148.796 127.597 148.796 129.298Z" fill="url(#paint94_linear)"/>
<path fill-rule="evenodd" clip-rule="evenodd" d="M164.188 129.298C164.188 130.999 162.811 132.376 161.11 132.376C159.409 132.376 158.031 130.999 158.031 129.298C158.031 127.597 159.409 126.219 161.11 126.219C162.811 126.219 164.188 127.597 164.188 129.298Z" fill="url(#paint95_linear)"/>
<path fill-rule="evenodd" clip-rule="evenodd" d="M180.608 129.298C180.608 130.999 179.231 132.376 177.53 132.376C175.829 132.376 174.451 130.999 174.451 129.298C174.451 127.597 175.829 126.219 177.53 126.219C179.231 126.219 180.608 127.597 180.608 129.298Z" fill="url(#paint96_linear)"/>
<path fill-rule="evenodd" clip-rule="evenodd" d="M6.15707 145.718C6.15707 147.419 4.77942 148.797 3.07853 148.797C1.37764 148.797 0 147.419 0 145.718C0 144.017 1.37764 142.64 3.07853 142.64C4.77942 142.64 6.15707 144.017 6.15707 145.718Z" fill="url(#paint97_linear)"/>
<path fill-rule="evenodd" clip-rule="evenodd" d="M22.577 145.718C22.577 147.419 21.1993 148.797 19.4985 148.797C17.7976 148.797 16.4199 147.419 16.4199 145.718C16.4199 144.017 17.7976 142.64 19.4985 142.64C21.1993 142.64 22.577 144.017 22.577 145.718Z" fill="url(#paint98_linear)"/>
<path fill-rule="evenodd" clip-rule="evenodd" d="M37.9676 145.718C37.9676 147.419 36.59 148.797 34.8891 148.797C33.1882 148.797 31.8105 147.419 31.8105 145.718C31.8105 144.017 33.1882 142.64 34.8891 142.64C36.59 142.64 37.9676 144.017 37.9676 145.718Z" fill="url(#paint99_linear)"/>
<path fill-rule="evenodd" clip-rule="evenodd" d="M53.3621 145.718C53.3621 147.419 51.9845 148.797 50.2836 148.797C48.5827 148.797 47.2051 147.419 47.2051 145.718C47.2051 144.017 48.5827 142.64 50.2836 142.64C51.9845 142.64 53.3621 144.017 53.3621 145.718Z" fill="url(#paint100_linear)"/>
<path fill-rule="evenodd" clip-rule="evenodd" d="M69.7801 145.718C69.7801 147.419 68.4025 148.797 66.7016 148.797C65.0007 148.797 63.623 147.419 63.623 145.718C63.623 144.017 65.0007 142.64 66.7016 142.64C68.4025 142.64 69.7801 144.017 69.7801 145.718Z" fill="url(#paint101_linear)"/>
<path fill-rule="evenodd" clip-rule="evenodd" d="M85.1727 145.718C85.1727 147.419 83.795 148.797 82.0942 148.797C80.3933 148.797 79.0156 147.419 79.0156 145.718C79.0156 144.017 80.3933 142.64 82.0942 142.64C83.795 142.64 85.1727 144.017 85.1727 145.718Z" fill="url(#paint102_linear)"/>
<path fill-rule="evenodd" clip-rule="evenodd" d="M101.593 145.718C101.593 147.419 100.215 148.797 98.5141 148.797C96.8132 148.797 95.4355 147.419 95.4355 145.718C95.4355 144.017 96.8132 142.64 98.5141 142.64C100.215 142.64 101.593 144.017 101.593 145.718Z" fill="url(#paint103_linear)"/>
<path fill-rule="evenodd" clip-rule="evenodd" d="M116.983 145.718C116.983 147.419 115.606 148.797 113.905 148.797C112.204 148.797 110.826 147.419 110.826 145.718C110.826 144.017 112.204 142.64 113.905 142.64C115.606 142.64 116.983 144.017 116.983 145.718Z" fill="url(#paint104_linear)"/>
<path fill-rule="evenodd" clip-rule="evenodd" d="M133.403 145.718C133.403 147.419 132.026 148.797 130.325 148.797C128.624 148.797 127.246 147.419 127.246 145.718C127.246 144.017 128.624 142.64 130.325 142.64C132.026 142.64 133.403 144.017 133.403 145.718Z" fill="url(#paint105_linear)"/>
<path fill-rule="evenodd" clip-rule="evenodd" d="M148.796 145.718C148.796 147.419 147.418 148.797 145.717 148.797C144.016 148.797 142.639 147.419 142.639 145.718C142.639 144.017 144.016 142.64 145.717 142.64C147.418 142.64 148.796 144.017 148.796 145.718Z" fill="url(#paint106_linear)"/>
<path fill-rule="evenodd" clip-rule="evenodd" d="M164.188 145.718C164.188 147.419 162.811 148.797 161.11 148.797C159.409 148.797 158.031 147.419 158.031 145.718C158.031 144.017 159.409 142.64 161.11 142.64C162.811 142.64 164.188 144.017 164.188 145.718Z" fill="url(#paint107_linear)"/>
<path fill-rule="evenodd" clip-rule="evenodd" d="M180.608 145.718C180.608 147.419 179.231 148.797 177.53 148.797C175.829 148.797 174.451 147.419 174.451 145.718C174.451 144.017 175.829 142.64 177.53 142.64C179.231 142.64 180.608 144.017 180.608 145.718Z" fill="url(#paint108_linear)"/>
<path fill-rule="evenodd" clip-rule="evenodd" d="M6.15707 161.11C6.15707 162.811 4.77942 164.188 3.07853 164.188C1.37764 164.188 0 162.811 0 161.11C0 159.409 1.37764 158.031 3.07853 158.031C4.77942 158.031 6.15707 159.409 6.15707 161.11Z" fill="url(#paint109_linear)"/>
<path fill-rule="evenodd" clip-rule="evenodd" d="M22.577 161.11C22.577 162.811 21.1993 164.188 19.4985 164.188C17.7976 164.188 16.4199 162.811 16.4199 161.11C16.4199 159.409 17.7976 158.031 19.4985 158.031C21.1993 158.031 22.577 159.409 22.577 161.11Z" fill="url(#paint110_linear)"/>
<path fill-rule="evenodd" clip-rule="evenodd" d="M37.9676 161.11C37.9676 162.811 36.59 164.188 34.8891 164.188C33.1882 164.188 31.8105 162.811 31.8105 161.11C31.8105 159.409 33.1882 158.031 34.8891 158.031C36.59 158.031 37.9676 159.409 37.9676 161.11Z" fill="url(#paint111_linear)"/>
<path fill-rule="evenodd" clip-rule="evenodd" d="M53.3621 161.11C53.3621 162.811 51.9845 164.188 50.2836 164.188C48.5827 164.188 47.2051 162.811 47.2051 161.11C47.2051 159.409 48.5827 158.031 50.2836 158.031C51.9845 158.031 53.3621 159.409 53.3621 161.11Z" fill="url(#paint112_linear)"/>
<path fill-rule="evenodd" clip-rule="evenodd" d="M69.7801 161.11C69.7801 162.811 68.4025 164.188 66.7016 164.188C65.0007 164.188 63.623 162.811 63.623 161.11C63.623 159.409 65.0007 158.031 66.7016 158.031C68.4025 158.031 69.7801 159.409 69.7801 161.11Z" fill="url(#paint113_linear)"/>
<path fill-rule="evenodd" clip-rule="evenodd" d="M85.1727 161.11C85.1727 162.811 83.795 164.188 82.0942 164.188C80.3933 164.188 79.0156 162.811 79.0156 161.11C79.0156 159.409 80.3933 158.031 82.0942 158.031C83.795 158.031 85.1727 159.409 85.1727 161.11Z" fill="url(#paint114_linear)"/>
<path fill-rule="evenodd" clip-rule="evenodd" d="M101.593 161.11C101.593 162.811 100.215 164.188 98.5141 164.188C96.8132 164.188 95.4355 162.811 95.4355 161.11C95.4355 159.409 96.8132 158.031 98.5141 158.031C100.215 158.031 101.593 159.409 101.593 161.11Z" fill="url(#paint115_linear)"/>
<path fill-rule="evenodd" clip-rule="evenodd" d="M116.983 161.11C116.983 162.811 115.606 164.188 113.905 164.188C112.204 164.188 110.826 162.811 110.826 161.11C110.826 159.409 112.204 158.031 113.905 158.031C115.606 158.031 116.983 159.409 116.983 161.11Z" fill="url(#paint116_linear)"/>
<path fill-rule="evenodd" clip-rule="evenodd" d="M133.403 161.11C133.403 162.811 132.026 164.188 130.325 164.188C128.624 164.188 127.246 162.811 127.246 161.11C127.246 159.409 128.624 158.031 130.325 158.031C132.026 158.031 133.403 159.409 133.403 161.11Z" fill="url(#paint117_linear)"/>
<path fill-rule="evenodd" clip-rule="evenodd" d="M148.796 161.11C148.796 162.811 147.418 164.188 145.717 164.188C144.016 164.188 142.639 162.811 142.639 161.11C142.639 159.409 144.016 158.031 145.717 158.031C147.418 158.031 148.796 159.409 148.796 161.11Z" fill="url(#paint118_linear)"/>
<path fill-rule="evenodd" clip-rule="evenodd" d="M164.188 161.11C164.188 162.811 162.811 164.188 161.11 164.188C159.409 164.188 158.031 162.811 158.031 161.11C158.031 159.409 159.409 158.031 161.11 158.031C162.811 158.031 164.188 159.409 164.188 161.11Z" fill="url(#paint119_linear)"/>
<path fill-rule="evenodd" clip-rule="evenodd" d="M180.608 161.11C180.608 162.811 179.231 164.188 177.53 164.188C175.829 164.188 174.451 162.811 174.451 161.11C174.451 159.409 175.829 158.031 177.53 158.031C179.231 158.031 180.608 159.409 180.608 161.11Z" fill="url(#paint120_linear)"/>
<path fill-rule="evenodd" clip-rule="evenodd" d="M6.15707 177.532C6.15707 179.233 4.77942 180.61 3.07853 180.61C1.37764 180.61 0 179.233 0 177.532C0 175.831 1.37764 174.453 3.07853 174.453C4.77942 174.453 6.15707 175.831 6.15707 177.532Z" fill="url(#paint121_linear)"/>
<path fill-rule="evenodd" clip-rule="evenodd" d="M22.575 177.532C22.575 179.233 21.1974 180.61 19.4965 180.61C17.7956 180.61 16.418 179.233 16.418 177.532C16.418 175.831 17.7956 174.453 19.4965 174.453C21.1974 174.453 22.575 175.831 22.575 177.532Z" fill="url(#paint122_linear)"/>
<path fill-rule="evenodd" clip-rule="evenodd" d="M37.9696 177.532C37.9696 179.233 36.5919 180.61 34.891 180.61C33.1901 180.61 31.8125 179.233 31.8125 177.532C31.8125 175.831 33.1901 174.453 34.891 174.453C36.5919 174.453 37.9696 175.831 37.9696 177.532Z" fill="url(#paint123_linear)"/>
<path fill-rule="evenodd" clip-rule="evenodd" d="M53.3621 177.532C53.3621 179.233 51.9845 180.61 50.2836 180.61C48.5827 180.61 47.2051 179.233 47.2051 177.532C47.2051 175.831 48.5827 174.453 50.2836 174.453C51.9845 174.453 53.3621 175.831 53.3621 177.532Z" fill="url(#paint124_linear)"/>
<path fill-rule="evenodd" clip-rule="evenodd" d="M69.7801 177.532C69.7801 179.233 68.4025 180.61 66.7016 180.61C65.0007 180.61 63.623 179.233 63.623 177.532C63.623 175.831 65.0007 174.453 66.7016 174.453C68.4025 174.453 69.7801 175.831 69.7801 177.532Z" fill="url(#paint125_linear)"/>
<path fill-rule="evenodd" clip-rule="evenodd" d="M85.1727 177.532C85.1727 179.233 83.795 180.61 82.0942 180.61C80.3933 180.61 79.0156 179.233 79.0156 177.532C79.0156 175.831 80.3933 174.453 82.0942 174.453C83.795 174.453 85.1727 175.831 85.1727 177.532Z" fill="url(#paint126_linear)"/>
<path fill-rule="evenodd" clip-rule="evenodd" d="M101.591 177.532C101.591 179.233 100.213 180.61 98.5121 180.61C96.8112 180.61 95.4336 179.233 95.4336 177.532C95.4336 175.831 96.8112 174.453 98.5121 174.453C100.213 174.453 101.591 175.831 101.591 177.532Z" fill="url(#paint127_linear)"/>
<path fill-rule="evenodd" clip-rule="evenodd" d="M116.985 177.532C116.985 179.233 115.608 180.61 113.907 180.61C112.206 180.61 110.828 179.233 110.828 177.532C110.828 175.831 112.206 174.453 113.907 174.453C115.608 174.453 116.985 175.831 116.985 177.532Z" fill="url(#paint128_linear)"/>
<path fill-rule="evenodd" clip-rule="evenodd" d="M133.403 177.532C133.403 179.233 132.026 180.61 130.325 180.61C128.624 180.61 127.246 179.233 127.246 177.532C127.246 175.831 128.624 174.453 130.325 174.453C132.026 174.453 133.403 175.831 133.403 177.532Z" fill="url(#paint129_linear)"/>
<path fill-rule="evenodd" clip-rule="evenodd" d="M148.796 177.532C148.796 179.233 147.418 180.61 145.717 180.61C144.016 180.61 142.639 179.233 142.639 177.532C142.639 175.831 144.016 174.453 145.717 174.453C147.418 174.453 148.796 175.831 148.796 177.532Z" fill="url(#paint130_linear)"/>
<path fill-rule="evenodd" clip-rule="evenodd" d="M164.188 177.532C164.188 179.233 162.811 180.61 161.11 180.61C159.409 180.61 158.031 179.233 158.031 177.532C158.031 175.831 159.409 174.453 161.11 174.453C162.811 174.453 164.188 175.831 164.188 177.532Z" fill="url(#paint131_linear)"/>
<path fill-rule="evenodd" clip-rule="evenodd" d="M180.606 177.532C180.606 179.233 179.229 180.61 177.528 180.61C175.827 180.61 174.449 179.233 174.449 177.532C174.449 175.831 175.827 174.453 177.528 174.453C179.229 174.453 180.606 175.831 180.606 177.532Z" fill="url(#paint132_linear)"/>
<path fill-rule="evenodd" clip-rule="evenodd" d="M6.15707 192.922C6.15707 194.623 4.77942 196 3.07853 196C1.37764 196 0 194.623 0 192.922C0 191.221 1.37764 189.843 3.07853 189.843C4.77942 189.843 6.15707 191.221 6.15707 192.922Z" fill="url(#paint133_linear)"/>
<path fill-rule="evenodd" clip-rule="evenodd" d="M22.577 192.922C22.577 194.623 21.1993 196 19.4985 196C17.7976 196 16.4199 194.623 16.4199 192.922C16.4199 191.221 17.7976 189.843 19.4985 189.843C21.1993 189.843 22.577 191.221 22.577 192.922Z" fill="url(#paint134_linear)"/>
<path fill-rule="evenodd" clip-rule="evenodd" d="M37.9676 192.922C37.9676 194.623 36.59 196 34.8891 196C33.1882 196 31.8105 194.623 31.8105 192.922C31.8105 191.221 33.1882 189.843 34.8891 189.843C36.59 189.843 37.9676 191.221 37.9676 192.922Z" fill="url(#paint135_linear)"/>
<path fill-rule="evenodd" clip-rule="evenodd" d="M53.3621 192.922C53.3621 194.623 51.9845 196 50.2836 196C48.5827 196 47.2051 194.623 47.2051 192.922C47.2051 191.221 48.5827 189.843 50.2836 189.843C51.9845 189.843 53.3621 191.221 53.3621 192.922Z" fill="url(#paint136_linear)"/>
<path fill-rule="evenodd" clip-rule="evenodd" d="M69.7801 192.922C69.7801 194.623 68.4025 196 66.7016 196C65.0007 196 63.623 194.623 63.623 192.922C63.623 191.221 65.0007 189.843 66.7016 189.843C68.4025 189.843 69.7801 191.221 69.7801 192.922Z" fill="url(#paint137_linear)"/>
<path fill-rule="evenodd" clip-rule="evenodd" d="M85.1727 192.922C85.1727 194.623 83.795 196 82.0942 196C80.3933 196 79.0156 194.623 79.0156 192.922C79.0156 191.221 80.3933 189.843 82.0942 189.843C83.795 189.843 85.1727 191.221 85.1727 192.922Z" fill="url(#paint138_linear)"/>
<path fill-rule="evenodd" clip-rule="evenodd" d="M101.593 192.922C101.593 194.623 100.215 196 98.5141 196C96.8132 196 95.4355 194.623 95.4355 192.922C95.4355 191.221 96.8132 189.843 98.5141 189.843C100.215 189.843 101.593 191.221 101.593 192.922Z" fill="url(#paint139_linear)"/>
<path fill-rule="evenodd" clip-rule="evenodd" d="M116.983 192.922C116.983 194.623 115.606 196 113.905 196C112.204 196 110.826 194.623 110.826 192.922C110.826 191.221 112.204 189.843 113.905 189.843C115.606 189.843 116.983 191.221 116.983 192.922Z" fill="url(#paint140_linear)"/>
<path fill-rule="evenodd" clip-rule="evenodd" d="M133.403 192.922C133.403 194.623 132.026 196 130.325 196C128.624 196 127.246 194.623 127.246 192.922C127.246 191.221 128.624 189.843 130.325 189.843C132.026 189.843 133.403 191.221 133.403 192.922Z" fill="url(#paint141_linear)"/>
<path fill-rule="evenodd" clip-rule="evenodd" d="M148.796 192.922C148.796 194.623 147.418 196 145.717 196C144.016 196 142.639 194.623 142.639 192.922C142.639 191.221 144.016 189.843 145.717 189.843C147.418 189.843 148.796 191.221 148.796 192.922Z" fill="url(#paint142_linear)"/>
<path fill-rule="evenodd" clip-rule="evenodd" d="M164.188 192.922C164.188 194.623 162.811 196 161.11 196C159.409 196 158.031 194.623 158.031 192.922C158.031 191.221 159.409 189.843 161.11 189.843C162.811 189.843 164.188 191.221 164.188 192.922Z" fill="url(#paint143_linear)"/>
<path fill-rule="evenodd" clip-rule="evenodd" d="M180.608 192.922C180.608 194.623 179.231 196 177.53 196C175.829 196 174.451 194.623 174.451 192.922C174.451 191.221 175.829 189.843 177.53 189.843C179.231 189.843 180.608 191.221 180.608 192.922Z" fill="url(#paint144_linear)"/>
<path fill-rule="evenodd" clip-rule="evenodd" d="M22.577 3.07853C22.577 4.77942 21.1993 6.15707 19.4985 6.15707C17.7976 6.15707 16.4199 4.77942 16.4199 3.07853C16.4199 1.37764 17.7976 0 19.4985 0C21.1993 0 22.577 1.37764 22.577 3.07853Z" fill="url(#paint145_linear)"/>
<path fill-rule="evenodd" clip-rule="evenodd" d="M37.9676 3.07853C37.9676 4.77942 36.59 6.15707 34.8891 6.15707C33.1882 6.15707 31.8105 4.77942 31.8105 3.07853C31.8105 1.37764 33.1882 0 34.8891 0C36.59 0 37.9676 1.37764 37.9676 3.07853Z" fill="url(#paint146_linear)"/>
<path fill-rule="evenodd" clip-rule="evenodd" d="M53.3621 3.07853C53.3621 4.77942 51.9845 6.15707 50.2836 6.15707C48.5827 6.15707 47.2051 4.77942 47.2051 3.07853C47.2051 1.37764 48.5827 0 50.2836 0C51.9845 0 53.3621 1.37764 53.3621 3.07853Z" fill="url(#paint147_linear)"/>
<path fill-rule="evenodd" clip-rule="evenodd" d="M69.7801 3.07853C69.7801 4.77942 68.4025 6.15707 66.7016 6.15707C65.0007 6.15707 63.623 4.77942 63.623 3.07853C63.623 1.37764 65.0007 0 66.7016 0C68.4025 0 69.7801 1.37764 69.7801 3.07853Z" fill="url(#paint148_linear)"/>
<path fill-rule="evenodd" clip-rule="evenodd" d="M85.1727 3.07853C85.1727 4.77942 83.795 6.15707 82.0942 6.15707C80.3933 6.15707 79.0156 4.77942 79.0156 3.07853C79.0156 1.37764 80.3933 0 82.0942 0C83.795 0 85.1727 1.37764 85.1727 3.07853Z" fill="url(#paint149_linear)"/>
<path fill-rule="evenodd" clip-rule="evenodd" d="M101.593 3.07853C101.593 4.77942 100.215 6.15707 98.5141 6.15707C96.8132 6.15707 95.4355 4.77942 95.4355 3.07853C95.4355 1.37764 96.8132 0 98.5141 0C100.215 0 101.593 1.37764 101.593 3.07853Z" fill="url(#paint150_linear)"/>
<path fill-rule="evenodd" clip-rule="evenodd" d="M116.983 3.07853C116.983 4.77942 115.606 6.15707 113.905 6.15707C112.204 6.15707 110.826 4.77942 110.826 3.07853C110.826 1.37764 112.204 0 113.905 0C115.606 0 116.983 1.37764 116.983 3.07853Z" fill="url(#paint151_linear)"/>
<path fill-rule="evenodd" clip-rule="evenodd" d="M133.403 3.07853C133.403 4.77942 132.026 6.15707 130.325 6.15707C128.624 6.15707 127.246 4.77942 127.246 3.07853C127.246 1.37764 128.624 0 130.325 0C132.026 0 133.403 1.37764 133.403 3.07853Z" fill="url(#paint152_linear)"/>
<path fill-rule="evenodd" clip-rule="evenodd" d="M148.796 3.07853C148.796 4.77942 147.418 6.15707 145.717 6.15707C144.016 6.15707 142.639 4.77942 142.639 3.07853C142.639 1.37764 144.016 0 145.717 0C147.418 0 148.796 1.37764 148.796 3.07853Z" fill="url(#paint153_linear)"/>
<path fill-rule="evenodd" clip-rule="evenodd" d="M164.188 3.07853C164.188 4.77942 162.811 6.15707 161.11 6.15707C159.409 6.15707 158.031 4.77942 158.031 3.07853C158.031 1.37764 159.409 0 161.11 0C162.811 0 164.188 1.37764 164.188 3.07853Z" fill="url(#paint154_linear)"/>
<path fill-rule="evenodd" clip-rule="evenodd" d="M180.608 3.07853C180.608 4.77942 179.231 6.15707 177.53 6.15707C175.829 6.15707 174.451 4.77942 174.451 3.07853C174.451 1.37764 175.829 0 177.53 0C179.231 0 180.608 1.37764 180.608 3.07853Z" fill="url(#paint155_linear)"/>
<defs>
<linearGradient id="paint0_linear" x1="4.37152" y1="-1.71687" x2="-2.55476" y2="1.34976" gradientUnits="userSpaceOnUse">
<stop offset="0.0001" stop-color="#9D50FF"/>
<stop offset="1" stop-color="#583CF0"/>
</linearGradient>
<linearGradient id="paint1_linear" x1="4.37152" y1="13.6747" x2="-2.55476" y2="16.7414" gradientUnits="userSpaceOnUse">
<stop offset="0.0001" stop-color="#9D50FF"/>
<stop offset="1" stop-color="#583CF0"/>
</linearGradient>
<linearGradient id="paint2_linear" x1="20.7914" y1="13.6747" x2="13.8652" y2="16.7414" gradientUnits="userSpaceOnUse">
<stop offset="0.0001" stop-color="#9D50FF"/>
<stop offset="1" stop-color="#583CF0"/>
</linearGradient>
<linearGradient id="paint3_linear" x1="36.1821" y1="13.6747" x2="29.2558" y2="16.7414" gradientUnits="userSpaceOnUse">
<stop offset="0.0001" stop-color="#9D50FF"/>
<stop offset="1" stop-color="#583CF0"/>
</linearGradient>
<linearGradient id="paint4_linear" x1="51.5766" y1="13.6747" x2="44.6503" y2="16.7414" gradientUnits="userSpaceOnUse">
<stop offset="0.0001" stop-color="#9D50FF"/>
<stop offset="1" stop-color="#583CF0"/>
</linearGradient>
<linearGradient id="paint5_linear" x1="67.9946" y1="13.6747" x2="61.0683" y2="16.7414" gradientUnits="userSpaceOnUse">
<stop offset="0.0001" stop-color="#9D50FF"/>
<stop offset="1" stop-color="#583CF0"/>
</linearGradient>
<linearGradient id="paint6_linear" x1="83.3871" y1="13.6747" x2="76.4609" y2="16.7414" gradientUnits="userSpaceOnUse">
<stop offset="0.0001" stop-color="#9D50FF"/>
<stop offset="1" stop-color="#583CF0"/>
</linearGradient>
<linearGradient id="paint7_linear" x1="99.8071" y1="13.6747" x2="92.8808" y2="16.7414" gradientUnits="userSpaceOnUse">
<stop offset="0.0001" stop-color="#9D50FF"/>
<stop offset="1" stop-color="#583CF0"/>
</linearGradient>
<linearGradient id="paint8_linear" x1="115.198" y1="13.6747" x2="108.271" y2="16.7414" gradientUnits="userSpaceOnUse">
<stop offset="0.0001" stop-color="#9D50FF"/>
<stop offset="1" stop-color="#583CF0"/>
</linearGradient>
<linearGradient id="paint9_linear" x1="131.618" y1="13.6747" x2="124.691" y2="16.7414" gradientUnits="userSpaceOnUse">
<stop offset="0.0001" stop-color="#9D50FF"/>
<stop offset="1" stop-color="#583CF0"/>
</linearGradient>
<linearGradient id="paint10_linear" x1="147.01" y1="13.6747" x2="140.084" y2="16.7414" gradientUnits="userSpaceOnUse">
<stop offset="0.0001" stop-color="#9D50FF"/>
<stop offset="1" stop-color="#583CF0"/>
</linearGradient>
<linearGradient id="paint11_linear" x1="162.403" y1="13.6747" x2="155.476" y2="16.7414" gradientUnits="userSpaceOnUse">
<stop offset="0.0001" stop-color="#9D50FF"/>
<stop offset="1" stop-color="#583CF0"/>
</linearGradient>
<linearGradient id="paint12_linear" x1="178.823" y1="13.6747" x2="171.896" y2="16.7414" gradientUnits="userSpaceOnUse">
<stop offset="0.0001" stop-color="#9D50FF"/>
<stop offset="1" stop-color="#583CF0"/>
</linearGradient>
<linearGradient id="paint13_linear" x1="4.37152" y1="30.0951" x2="-2.55476" y2="33.1618" gradientUnits="userSpaceOnUse">
<stop offset="0.0001" stop-color="#9D50FF"/>
<stop offset="1" stop-color="#583CF0"/>
</linearGradient>
<linearGradient id="paint14_linear" x1="20.7914" y1="30.0951" x2="13.8652" y2="33.1618" gradientUnits="userSpaceOnUse">
<stop offset="0.0001" stop-color="#9D50FF"/>
<stop offset="1" stop-color="#583CF0"/>
</linearGradient>
<linearGradient id="paint15_linear" x1="36.1821" y1="30.0951" x2="29.2558" y2="33.1618" gradientUnits="userSpaceOnUse">
<stop offset="0.0001" stop-color="#9D50FF"/>
<stop offset="1" stop-color="#583CF0"/>
</linearGradient>
<linearGradient id="paint16_linear" x1="51.5766" y1="30.0951" x2="44.6503" y2="33.1618" gradientUnits="userSpaceOnUse">
<stop offset="0.0001" stop-color="#9D50FF"/>
<stop offset="1" stop-color="#583CF0"/>
</linearGradient>
<linearGradient id="paint17_linear" x1="67.9946" y1="30.0951" x2="61.0683" y2="33.1618" gradientUnits="userSpaceOnUse">
<stop offset="0.0001" stop-color="#9D50FF"/>
<stop offset="1" stop-color="#583CF0"/>
</linearGradient>
<linearGradient id="paint18_linear" x1="83.3871" y1="30.0951" x2="76.4609" y2="33.1618" gradientUnits="userSpaceOnUse">
<stop offset="0.0001" stop-color="#9D50FF"/>
<stop offset="1" stop-color="#583CF0"/>
</linearGradient>
<linearGradient id="paint19_linear" x1="99.8071" y1="30.0951" x2="92.8808" y2="33.1618" gradientUnits="userSpaceOnUse">
<stop offset="0.0001" stop-color="#9D50FF"/>
<stop offset="1" stop-color="#583CF0"/>
</linearGradient>
<linearGradient id="paint20_linear" x1="115.198" y1="30.0951" x2="108.271" y2="33.1618" gradientUnits="userSpaceOnUse">
<stop offset="0.0001" stop-color="#9D50FF"/>
<stop offset="1" stop-color="#583CF0"/>
</linearGradient>
<linearGradient id="paint21_linear" x1="131.618" y1="30.0951" x2="124.691" y2="33.1618" gradientUnits="userSpaceOnUse">
<stop offset="0.0001" stop-color="#9D50FF"/>
<stop offset="1" stop-color="#583CF0"/>
</linearGradient>
<linearGradient id="paint22_linear" x1="147.01" y1="30.0951" x2="140.084" y2="33.1618" gradientUnits="userSpaceOnUse">
<stop offset="0.0001" stop-color="#9D50FF"/>
<stop offset="1" stop-color="#583CF0"/>
</linearGradient>
<linearGradient id="paint23_linear" x1="162.403" y1="30.0951" x2="155.476" y2="33.1618" gradientUnits="userSpaceOnUse">
<stop offset="0.0001" stop-color="#9D50FF"/>
<stop offset="1" stop-color="#583CF0"/>
</linearGradient>
<linearGradient id="paint24_linear" x1="178.823" y1="30.0951" x2="171.896" y2="33.1618" gradientUnits="userSpaceOnUse">
<stop offset="0.0001" stop-color="#9D50FF"/>
<stop offset="1" stop-color="#583CF0"/>
</linearGradient>
<linearGradient id="paint25_linear" x1="4.37152" y1="45.4867" x2="-2.55476" y2="48.5534" gradientUnits="userSpaceOnUse">
<stop offset="0.0001" stop-color="#9D50FF"/>
<stop offset="1" stop-color="#583CF0"/>
</linearGradient>
<linearGradient id="paint26_linear" x1="20.7914" y1="45.4867" x2="13.8652" y2="48.5534" gradientUnits="userSpaceOnUse">
<stop offset="0.0001" stop-color="#9D50FF"/>
<stop offset="1" stop-color="#583CF0"/>
</linearGradient>
<linearGradient id="paint27_linear" x1="36.1821" y1="45.4867" x2="29.2558" y2="48.5534" gradientUnits="userSpaceOnUse">
<stop offset="0.0001" stop-color="#9D50FF"/>
<stop offset="1" stop-color="#583CF0"/>
</linearGradient>
<linearGradient id="paint28_linear" x1="51.5766" y1="45.4867" x2="44.6503" y2="48.5534" gradientUnits="userSpaceOnUse">
<stop offset="0.0001" stop-color="#9D50FF"/>
<stop offset="1" stop-color="#583CF0"/>
</linearGradient>
<linearGradient id="paint29_linear" x1="67.9946" y1="45.4867" x2="61.0683" y2="48.5534" gradientUnits="userSpaceOnUse">
<stop offset="0.0001" stop-color="#9D50FF"/>
<stop offset="1" stop-color="#583CF0"/>
</linearGradient>
<linearGradient id="paint30_linear" x1="83.3871" y1="45.4867" x2="76.4609" y2="48.5534" gradientUnits="userSpaceOnUse">
<stop offset="0.0001" stop-color="#9D50FF"/>
<stop offset="1" stop-color="#583CF0"/>
</linearGradient>
<linearGradient id="paint31_linear" x1="99.8071" y1="45.4867" x2="92.8808" y2="48.5534" gradientUnits="userSpaceOnUse">
<stop offset="0.0001" stop-color="#9D50FF"/>
<stop offset="1" stop-color="#583CF0"/>
</linearGradient>
<linearGradient id="paint32_linear" x1="115.198" y1="45.4867" x2="108.271" y2="48.5534" gradientUnits="userSpaceOnUse">
<stop offset="0.0001" stop-color="#9D50FF"/>
<stop offset="1" stop-color="#583CF0"/>
</linearGradient>
<linearGradient id="paint33_linear" x1="131.618" y1="45.4867" x2="124.691" y2="48.5534" gradientUnits="userSpaceOnUse">
<stop offset="0.0001" stop-color="#9D50FF"/>
<stop offset="1" stop-color="#583CF0"/>
</linearGradient>
<linearGradient id="paint34_linear" x1="147.01" y1="45.4867" x2="140.084" y2="48.5534" gradientUnits="userSpaceOnUse">
<stop offset="0.0001" stop-color="#9D50FF"/>
<stop offset="1" stop-color="#583CF0"/>
</linearGradient>
<linearGradient id="paint35_linear" x1="162.403" y1="45.4867" x2="155.476" y2="48.5534" gradientUnits="userSpaceOnUse">
<stop offset="0.0001" stop-color="#9D50FF"/>
<stop offset="1" stop-color="#583CF0"/>
</linearGradient>
<linearGradient id="paint36_linear" x1="178.823" y1="45.4867" x2="171.896" y2="48.5534" gradientUnits="userSpaceOnUse">
<stop offset="0.0001" stop-color="#9D50FF"/>
<stop offset="1" stop-color="#583CF0"/>
</linearGradient>
<linearGradient id="paint37_linear" x1="4.37152" y1="61.9071" x2="-2.55476" y2="64.9738" gradientUnits="userSpaceOnUse">
<stop offset="0.0001" stop-color="#9D50FF"/>
<stop offset="1" stop-color="#583CF0"/>
</linearGradient>
<linearGradient id="paint38_linear" x1="20.7914" y1="61.9071" x2="13.8652" y2="64.9738" gradientUnits="userSpaceOnUse">
<stop offset="0.0001" stop-color="#9D50FF"/>
<stop offset="1" stop-color="#583CF0"/>
</linearGradient>
<linearGradient id="paint39_linear" x1="36.1821" y1="61.9071" x2="29.2558" y2="64.9738" gradientUnits="userSpaceOnUse">
<stop offset="0.0001" stop-color="#9D50FF"/>
<stop offset="1" stop-color="#583CF0"/>
</linearGradient>
<linearGradient id="paint40_linear" x1="51.5766" y1="61.9071" x2="44.6503" y2="64.9738" gradientUnits="userSpaceOnUse">
<stop offset="0.0001" stop-color="#9D50FF"/>
<stop offset="1" stop-color="#583CF0"/>
</linearGradient>
<linearGradient id="paint41_linear" x1="67.9946" y1="61.9071" x2="61.0683" y2="64.9738" gradientUnits="userSpaceOnUse">
<stop offset="0.0001" stop-color="#9D50FF"/>
<stop offset="1" stop-color="#583CF0"/>
</linearGradient>
<linearGradient id="paint42_linear" x1="83.3871" y1="61.9071" x2="76.4609" y2="64.9738" gradientUnits="userSpaceOnUse">
<stop offset="0.0001" stop-color="#9D50FF"/>
<stop offset="1" stop-color="#583CF0"/>
</linearGradient>
<linearGradient id="paint43_linear" x1="99.8071" y1="61.9071" x2="92.8808" y2="64.9738" gradientUnits="userSpaceOnUse">
<stop offset="0.0001" stop-color="#9D50FF"/>
<stop offset="1" stop-color="#583CF0"/>
</linearGradient>
<linearGradient id="paint44_linear" x1="115.198" y1="61.9071" x2="108.271" y2="64.9738" gradientUnits="userSpaceOnUse">
<stop offset="0.0001" stop-color="#9D50FF"/>
<stop offset="1" stop-color="#583CF0"/>
</linearGradient>
<linearGradient id="paint45_linear" x1="131.618" y1="61.9071" x2="124.691" y2="64.9738" gradientUnits="userSpaceOnUse">
<stop offset="0.0001" stop-color="#9D50FF"/>
<stop offset="1" stop-color="#583CF0"/>
</linearGradient>
<linearGradient id="paint46_linear" x1="147.01" y1="61.9071" x2="140.084" y2="64.9738" gradientUnits="userSpaceOnUse">
<stop offset="0.0001" stop-color="#9D50FF"/>
<stop offset="1" stop-color="#583CF0"/>
</linearGradient>
<linearGradient id="paint47_linear" x1="162.403" y1="61.9071" x2="155.476" y2="64.9738" gradientUnits="userSpaceOnUse">
<stop offset="0.0001" stop-color="#9D50FF"/>
<stop offset="1" stop-color="#583CF0"/>
</linearGradient>
<linearGradient id="paint48_linear" x1="178.823" y1="61.9071" x2="171.896" y2="64.9738" gradientUnits="userSpaceOnUse">
<stop offset="0.0001" stop-color="#9D50FF"/>
<stop offset="1" stop-color="#583CF0"/>
</linearGradient>
<linearGradient id="paint49_linear" x1="4.37152" y1="77.2988" x2="-2.55476" y2="80.3654" gradientUnits="userSpaceOnUse">
<stop offset="0.0001" stop-color="#9D50FF"/>
<stop offset="1" stop-color="#583CF0"/>
</linearGradient>
<linearGradient id="paint50_linear" x1="20.7914" y1="77.2988" x2="13.8652" y2="80.3654" gradientUnits="userSpaceOnUse">
<stop offset="0.0001" stop-color="#9D50FF"/>
<stop offset="1" stop-color="#583CF0"/>
</linearGradient>
<linearGradient id="paint51_linear" x1="36.1821" y1="77.2988" x2="29.2558" y2="80.3654" gradientUnits="userSpaceOnUse">
<stop offset="0.0001" stop-color="#9D50FF"/>
<stop offset="1" stop-color="#583CF0"/>
</linearGradient>
<linearGradient id="paint52_linear" x1="51.5766" y1="77.2988" x2="44.6503" y2="80.3654" gradientUnits="userSpaceOnUse">
<stop offset="0.0001" stop-color="#9D50FF"/>
<stop offset="1" stop-color="#583CF0"/>
</linearGradient>
<linearGradient id="paint53_linear" x1="67.9946" y1="77.2988" x2="61.0683" y2="80.3654" gradientUnits="userSpaceOnUse">
<stop offset="0.0001" stop-color="#9D50FF"/>
<stop offset="1" stop-color="#583CF0"/>
</linearGradient>
<linearGradient id="paint54_linear" x1="83.3871" y1="77.2988" x2="76.4609" y2="80.3654" gradientUnits="userSpaceOnUse">
<stop offset="0.0001" stop-color="#9D50FF"/>
<stop offset="1" stop-color="#583CF0"/>
</linearGradient>
<linearGradient id="paint55_linear" x1="99.8071" y1="77.2988" x2="92.8808" y2="80.3654" gradientUnits="userSpaceOnUse">
<stop offset="0.0001" stop-color="#9D50FF"/>
<stop offset="1" stop-color="#583CF0"/>
</linearGradient>
<linearGradient id="paint56_linear" x1="115.198" y1="77.2988" x2="108.271" y2="80.3654" gradientUnits="userSpaceOnUse">
<stop offset="0.0001" stop-color="#9D50FF"/>
<stop offset="1" stop-color="#583CF0"/>
</linearGradient>
<linearGradient id="paint57_linear" x1="131.618" y1="77.2988" x2="124.691" y2="80.3654" gradientUnits="userSpaceOnUse">
<stop offset="0.0001" stop-color="#9D50FF"/>
<stop offset="1" stop-color="#583CF0"/>
</linearGradient>
<linearGradient id="paint58_linear" x1="147.01" y1="77.2988" x2="140.084" y2="80.3654" gradientUnits="userSpaceOnUse">
<stop offset="0.0001" stop-color="#9D50FF"/>
<stop offset="1" stop-color="#583CF0"/>
</linearGradient>
<linearGradient id="paint59_linear" x1="162.403" y1="77.2988" x2="155.476" y2="80.3654" gradientUnits="userSpaceOnUse">
<stop offset="0.0001" stop-color="#9D50FF"/>
<stop offset="1" stop-color="#583CF0"/>
</linearGradient>
<linearGradient id="paint60_linear" x1="178.823" y1="77.2988" x2="171.896" y2="80.3654" gradientUnits="userSpaceOnUse">
<stop offset="0.0001" stop-color="#9D50FF"/>
<stop offset="1" stop-color="#583CF0"/>
</linearGradient>
<linearGradient id="paint61_linear" x1="4.37152" y1="93.7206" x2="-2.55476" y2="96.7873" gradientUnits="userSpaceOnUse">
<stop offset="0.0001" stop-color="#9D50FF"/>
<stop offset="1" stop-color="#583CF0"/>
</linearGradient>
<linearGradient id="paint62_linear" x1="20.7895" y1="93.7206" x2="13.8632" y2="96.7873" gradientUnits="userSpaceOnUse">
<stop offset="0.0001" stop-color="#9D50FF"/>
<stop offset="1" stop-color="#583CF0"/>
</linearGradient>
<linearGradient id="paint63_linear" x1="36.184" y1="93.7206" x2="29.2577" y2="96.7873" gradientUnits="userSpaceOnUse">
<stop offset="0.0001" stop-color="#9D50FF"/>
<stop offset="1" stop-color="#583CF0"/>
</linearGradient>
<linearGradient id="paint64_linear" x1="51.5766" y1="93.7206" x2="44.6503" y2="96.7873" gradientUnits="userSpaceOnUse">
<stop offset="0.0001" stop-color="#9D50FF"/>
<stop offset="1" stop-color="#583CF0"/>
</linearGradient>
<linearGradient id="paint65_linear" x1="67.9946" y1="93.7206" x2="61.0683" y2="96.7873" gradientUnits="userSpaceOnUse">
<stop offset="0.0001" stop-color="#9D50FF"/>
<stop offset="1" stop-color="#583CF0"/>
</linearGradient>
<linearGradient id="paint66_linear" x1="83.3871" y1="93.7206" x2="76.4609" y2="96.7873" gradientUnits="userSpaceOnUse">
<stop offset="0.0001" stop-color="#9D50FF"/>
<stop offset="1" stop-color="#583CF0"/>
</linearGradient>
<linearGradient id="paint67_linear" x1="99.8051" y1="93.7206" x2="92.8788" y2="96.7873" gradientUnits="userSpaceOnUse">
<stop offset="0.0001" stop-color="#9D50FF"/>
<stop offset="1" stop-color="#583CF0"/>
</linearGradient>
<linearGradient id="paint68_linear" x1="115.2" y1="93.7206" x2="108.273" y2="96.7873" gradientUnits="userSpaceOnUse">
<stop offset="0.0001" stop-color="#9D50FF"/>
<stop offset="1" stop-color="#583CF0"/>
</linearGradient>
<linearGradient id="paint69_linear" x1="131.618" y1="93.7206" x2="124.691" y2="96.7873" gradientUnits="userSpaceOnUse">
<stop offset="0.0001" stop-color="#9D50FF"/>
<stop offset="1" stop-color="#583CF0"/>
</linearGradient>
<linearGradient id="paint70_linear" x1="147.01" y1="93.7206" x2="140.084" y2="96.7873" gradientUnits="userSpaceOnUse">
<stop offset="0.0001" stop-color="#9D50FF"/>
<stop offset="1" stop-color="#583CF0"/>
</linearGradient>
<linearGradient id="paint71_linear" x1="162.403" y1="93.7206" x2="155.476" y2="96.7873" gradientUnits="userSpaceOnUse">
<stop offset="0.0001" stop-color="#9D50FF"/>
<stop offset="1" stop-color="#583CF0"/>
</linearGradient>
<linearGradient id="paint72_linear" x1="178.821" y1="93.7206" x2="171.894" y2="96.7873" gradientUnits="userSpaceOnUse">
<stop offset="0.0001" stop-color="#9D50FF"/>
<stop offset="1" stop-color="#583CF0"/>
</linearGradient>
<linearGradient id="paint73_linear" x1="4.37152" y1="109.111" x2="-2.55476" y2="112.177" gradientUnits="userSpaceOnUse">
<stop offset="0.0001" stop-color="#9D50FF"/>
<stop offset="1" stop-color="#583CF0"/>
</linearGradient>
<linearGradient id="paint74_linear" x1="20.7914" y1="109.111" x2="13.8652" y2="112.177" gradientUnits="userSpaceOnUse">
<stop offset="0.0001" stop-color="#9D50FF"/>
<stop offset="1" stop-color="#583CF0"/>
</linearGradient>
<linearGradient id="paint75_linear" x1="36.1821" y1="109.111" x2="29.2558" y2="112.177" gradientUnits="userSpaceOnUse">
<stop offset="0.0001" stop-color="#9D50FF"/>
<stop offset="1" stop-color="#583CF0"/>
</linearGradient>
<linearGradient id="paint76_linear" x1="51.5766" y1="109.111" x2="44.6503" y2="112.177" gradientUnits="userSpaceOnUse">
<stop offset="0.0001" stop-color="#9D50FF"/>
<stop offset="1" stop-color="#583CF0"/>
</linearGradient>
<linearGradient id="paint77_linear" x1="67.9946" y1="109.111" x2="61.0683" y2="112.177" gradientUnits="userSpaceOnUse">
<stop offset="0.0001" stop-color="#9D50FF"/>
<stop offset="1" stop-color="#583CF0"/>
</linearGradient>
<linearGradient id="paint78_linear" x1="83.3871" y1="109.111" x2="76.4609" y2="112.177" gradientUnits="userSpaceOnUse">
<stop offset="0.0001" stop-color="#9D50FF"/>
<stop offset="1" stop-color="#583CF0"/>
</linearGradient>
<linearGradient id="paint79_linear" x1="99.8071" y1="109.111" x2="92.8808" y2="112.177" gradientUnits="userSpaceOnUse">
<stop offset="0.0001" stop-color="#9D50FF"/>
<stop offset="1" stop-color="#583CF0"/>
</linearGradient>
<linearGradient id="paint80_linear" x1="115.198" y1="109.111" x2="108.271" y2="112.177" gradientUnits="userSpaceOnUse">
<stop offset="0.0001" stop-color="#9D50FF"/>
<stop offset="1" stop-color="#583CF0"/>
</linearGradient>
<linearGradient id="paint81_linear" x1="131.618" y1="109.111" x2="124.691" y2="112.177" gradientUnits="userSpaceOnUse">
<stop offset="0.0001" stop-color="#9D50FF"/>
<stop offset="1" stop-color="#583CF0"/>
</linearGradient>
<linearGradient id="paint82_linear" x1="147.01" y1="109.111" x2="140.084" y2="112.177" gradientUnits="userSpaceOnUse">
<stop offset="0.0001" stop-color="#9D50FF"/>
<stop offset="1" stop-color="#583CF0"/>
</linearGradient>
<linearGradient id="paint83_linear" x1="162.403" y1="109.111" x2="155.476" y2="112.177" gradientUnits="userSpaceOnUse">
<stop offset="0.0001" stop-color="#9D50FF"/>
<stop offset="1" stop-color="#583CF0"/>
</linearGradient>
<linearGradient id="paint84_linear" x1="178.823" y1="109.111" x2="171.896" y2="112.177" gradientUnits="userSpaceOnUse">
<stop offset="0.0001" stop-color="#9D50FF"/>
<stop offset="1" stop-color="#583CF0"/>
</linearGradient>
<linearGradient id="paint85_linear" x1="4.37152" y1="124.502" x2="-2.55476" y2="127.569" gradientUnits="userSpaceOnUse">
<stop offset="0.0001" stop-color="#9D50FF"/>
<stop offset="1" stop-color="#583CF0"/>
</linearGradient>
<linearGradient id="paint86_linear" x1="20.7914" y1="124.502" x2="13.8652" y2="127.569" gradientUnits="userSpaceOnUse">
<stop offset="0.0001" stop-color="#9D50FF"/>
<stop offset="1" stop-color="#583CF0"/>
</linearGradient>
<linearGradient id="paint87_linear" x1="36.1821" y1="124.502" x2="29.2558" y2="127.569" gradientUnits="userSpaceOnUse">
<stop offset="0.0001" stop-color="#9D50FF"/>
<stop offset="1" stop-color="#583CF0"/>
</linearGradient>
<linearGradient id="paint88_linear" x1="51.5766" y1="124.502" x2="44.6503" y2="127.569" gradientUnits="userSpaceOnUse">
<stop offset="0.0001" stop-color="#9D50FF"/>
<stop offset="1" stop-color="#583CF0"/>
</linearGradient>
<linearGradient id="paint89_linear" x1="67.9946" y1="124.502" x2="61.0683" y2="127.569" gradientUnits="userSpaceOnUse">
<stop offset="0.0001" stop-color="#9D50FF"/>
<stop offset="1" stop-color="#583CF0"/>
</linearGradient>
<linearGradient id="paint90_linear" x1="83.3871" y1="124.502" x2="76.4609" y2="127.569" gradientUnits="userSpaceOnUse">
<stop offset="0.0001" stop-color="#9D50FF"/>
<stop offset="1" stop-color="#583CF0"/>
</linearGradient>
<linearGradient id="paint91_linear" x1="99.8071" y1="124.502" x2="92.8808" y2="127.569" gradientUnits="userSpaceOnUse">
<stop offset="0.0001" stop-color="#9D50FF"/>
<stop offset="1" stop-color="#583CF0"/>
</linearGradient>
<linearGradient id="paint92_linear" x1="115.198" y1="124.502" x2="108.271" y2="127.569" gradientUnits="userSpaceOnUse">
<stop offset="0.0001" stop-color="#9D50FF"/>
<stop offset="1" stop-color="#583CF0"/>
</linearGradient>
<linearGradient id="paint93_linear" x1="131.618" y1="124.502" x2="124.691" y2="127.569" gradientUnits="userSpaceOnUse">
<stop offset="0.0001" stop-color="#9D50FF"/>
<stop offset="1" stop-color="#583CF0"/>
</linearGradient>
<linearGradient id="paint94_linear" x1="147.01" y1="124.502" x2="140.084" y2="127.569" gradientUnits="userSpaceOnUse">
<stop offset="0.0001" stop-color="#9D50FF"/>
<stop offset="1" stop-color="#583CF0"/>
</linearGradient>
<linearGradient id="paint95_linear" x1="162.403" y1="124.502" x2="155.476" y2="127.569" gradientUnits="userSpaceOnUse">
<stop offset="0.0001" stop-color="#9D50FF"/>
<stop offset="1" stop-color="#583CF0"/>
</linearGradient>
<linearGradient id="paint96_linear" x1="178.823" y1="124.502" x2="171.896" y2="127.569" gradientUnits="userSpaceOnUse">
<stop offset="0.0001" stop-color="#9D50FF"/>
<stop offset="1" stop-color="#583CF0"/>
</linearGradient>
<linearGradient id="paint97_linear" x1="4.37152" y1="140.923" x2="-2.55476" y2="143.989" gradientUnits="userSpaceOnUse">
<stop offset="0.0001" stop-color="#9D50FF"/>
<stop offset="1" stop-color="#583CF0"/>
</linearGradient>
<linearGradient id="paint98_linear" x1="20.7914" y1="140.923" x2="13.8652" y2="143.989" gradientUnits="userSpaceOnUse">
<stop offset="0.0001" stop-color="#9D50FF"/>
<stop offset="1" stop-color="#583CF0"/>
</linearGradient>
<linearGradient id="paint99_linear" x1="36.1821" y1="140.923" x2="29.2558" y2="143.989" gradientUnits="userSpaceOnUse">
<stop offset="0.0001" stop-color="#9D50FF"/>
<stop offset="1" stop-color="#583CF0"/>
</linearGradient>
<linearGradient id="paint100_linear" x1="51.5766" y1="140.923" x2="44.6503" y2="143.989" gradientUnits="userSpaceOnUse">
<stop offset="0.0001" stop-color="#9D50FF"/>
<stop offset="1" stop-color="#583CF0"/>
</linearGradient>
<linearGradient id="paint101_linear" x1="67.9946" y1="140.923" x2="61.0683" y2="143.989" gradientUnits="userSpaceOnUse">
<stop offset="0.0001" stop-color="#9D50FF"/>
<stop offset="1" stop-color="#583CF0"/>
</linearGradient>
<linearGradient id="paint102_linear" x1="83.3871" y1="140.923" x2="76.4609" y2="143.989" gradientUnits="userSpaceOnUse">
<stop offset="0.0001" stop-color="#9D50FF"/>
<stop offset="1" stop-color="#583CF0"/>
</linearGradient>
<linearGradient id="paint103_linear" x1="99.8071" y1="140.923" x2="92.8808" y2="143.989" gradientUnits="userSpaceOnUse">
<stop offset="0.0001" stop-color="#9D50FF"/>
<stop offset="1" stop-color="#583CF0"/>
</linearGradient>
<linearGradient id="paint104_linear" x1="115.198" y1="140.923" x2="108.271" y2="143.989" gradientUnits="userSpaceOnUse">
<stop offset="0.0001" stop-color="#9D50FF"/>
<stop offset="1" stop-color="#583CF0"/>
</linearGradient>
<linearGradient id="paint105_linear" x1="131.618" y1="140.923" x2="124.691" y2="143.989" gradientUnits="userSpaceOnUse">
<stop offset="0.0001" stop-color="#9D50FF"/>
<stop offset="1" stop-color="#583CF0"/>
</linearGradient>
<linearGradient id="paint106_linear" x1="147.01" y1="140.923" x2="140.084" y2="143.989" gradientUnits="userSpaceOnUse">
<stop offset="0.0001" stop-color="#9D50FF"/>
<stop offset="1" stop-color="#583CF0"/>
</linearGradient>
<linearGradient id="paint107_linear" x1="162.403" y1="140.923" x2="155.476" y2="143.989" gradientUnits="userSpaceOnUse">
<stop offset="0.0001" stop-color="#9D50FF"/>
<stop offset="1" stop-color="#583CF0"/>
</linearGradient>
<linearGradient id="paint108_linear" x1="178.823" y1="140.923" x2="171.896" y2="143.989" gradientUnits="userSpaceOnUse">
<stop offset="0.0001" stop-color="#9D50FF"/>
<stop offset="1" stop-color="#583CF0"/>
</linearGradient>
<linearGradient id="paint109_linear" x1="4.37152" y1="156.314" x2="-2.55476" y2="159.381" gradientUnits="userSpaceOnUse">
<stop offset="0.0001" stop-color="#9D50FF"/>
<stop offset="1" stop-color="#583CF0"/>
</linearGradient>
<linearGradient id="paint110_linear" x1="20.7914" y1="156.314" x2="13.8652" y2="159.381" gradientUnits="userSpaceOnUse">
<stop offset="0.0001" stop-color="#9D50FF"/>
<stop offset="1" stop-color="#583CF0"/>
</linearGradient>
<linearGradient id="paint111_linear" x1="36.1821" y1="156.314" x2="29.2558" y2="159.381" gradientUnits="userSpaceOnUse">
<stop offset="0.0001" stop-color="#9D50FF"/>
<stop offset="1" stop-color="#583CF0"/>
</linearGradient>
<linearGradient id="paint112_linear" x1="51.5766" y1="156.314" x2="44.6503" y2="159.381" gradientUnits="userSpaceOnUse">
<stop offset="0.0001" stop-color="#9D50FF"/>
<stop offset="1" stop-color="#583CF0"/>
</linearGradient>
<linearGradient id="paint113_linear" x1="67.9946" y1="156.314" x2="61.0683" y2="159.381" gradientUnits="userSpaceOnUse">
<stop offset="0.0001" stop-color="#9D50FF"/>
<stop offset="1" stop-color="#583CF0"/>
</linearGradient>
<linearGradient id="paint114_linear" x1="83.3871" y1="156.314" x2="76.4609" y2="159.381" gradientUnits="userSpaceOnUse">
<stop offset="0.0001" stop-color="#9D50FF"/>
<stop offset="1" stop-color="#583CF0"/>
</linearGradient>
<linearGradient id="paint115_linear" x1="99.8071" y1="156.314" x2="92.8808" y2="159.381" gradientUnits="userSpaceOnUse">
<stop offset="0.0001" stop-color="#9D50FF"/>
<stop offset="1" stop-color="#583CF0"/>
</linearGradient>
<linearGradient id="paint116_linear" x1="115.198" y1="156.314" x2="108.271" y2="159.381" gradientUnits="userSpaceOnUse">
<stop offset="0.0001" stop-color="#9D50FF"/>
<stop offset="1" stop-color="#583CF0"/>
</linearGradient>
<linearGradient id="paint117_linear" x1="131.618" y1="156.314" x2="124.691" y2="159.381" gradientUnits="userSpaceOnUse">
<stop offset="0.0001" stop-color="#9D50FF"/>
<stop offset="1" stop-color="#583CF0"/>
</linearGradient>
<linearGradient id="paint118_linear" x1="147.01" y1="156.314" x2="140.084" y2="159.381" gradientUnits="userSpaceOnUse">
<stop offset="0.0001" stop-color="#9D50FF"/>
<stop offset="1" stop-color="#583CF0"/>
</linearGradient>
<linearGradient id="paint119_linear" x1="162.403" y1="156.314" x2="155.476" y2="159.381" gradientUnits="userSpaceOnUse">
<stop offset="0.0001" stop-color="#9D50FF"/>
<stop offset="1" stop-color="#583CF0"/>
</linearGradient>
<linearGradient id="paint120_linear" x1="178.823" y1="156.314" x2="171.896" y2="159.381" gradientUnits="userSpaceOnUse">
<stop offset="0.0001" stop-color="#9D50FF"/>
<stop offset="1" stop-color="#583CF0"/>
</linearGradient>
<linearGradient id="paint121_linear" x1="4.37152" y1="172.736" x2="-2.55476" y2="175.803" gradientUnits="userSpaceOnUse">
<stop offset="0.0001" stop-color="#9D50FF"/>
<stop offset="1" stop-color="#583CF0"/>
</linearGradient>
<linearGradient id="paint122_linear" x1="20.7895" y1="172.736" x2="13.8632" y2="175.803" gradientUnits="userSpaceOnUse">
<stop offset="0.0001" stop-color="#9D50FF"/>
<stop offset="1" stop-color="#583CF0"/>
</linearGradient>
<linearGradient id="paint123_linear" x1="36.184" y1="172.736" x2="29.2577" y2="175.803" gradientUnits="userSpaceOnUse">
<stop offset="0.0001" stop-color="#9D50FF"/>
<stop offset="1" stop-color="#583CF0"/>
</linearGradient>
<linearGradient id="paint124_linear" x1="51.5766" y1="172.736" x2="44.6503" y2="175.803" gradientUnits="userSpaceOnUse">
<stop offset="0.0001" stop-color="#9D50FF"/>
<stop offset="1" stop-color="#583CF0"/>
</linearGradient>
<linearGradient id="paint125_linear" x1="67.9946" y1="172.736" x2="61.0683" y2="175.803" gradientUnits="userSpaceOnUse">
<stop offset="0.0001" stop-color="#9D50FF"/>
<stop offset="1" stop-color="#583CF0"/>
</linearGradient>
<linearGradient id="paint126_linear" x1="83.3871" y1="172.736" x2="76.4609" y2="175.803" gradientUnits="userSpaceOnUse">
<stop offset="0.0001" stop-color="#9D50FF"/>
<stop offset="1" stop-color="#583CF0"/>
</linearGradient>
<linearGradient id="paint127_linear" x1="99.8051" y1="172.736" x2="92.8788" y2="175.803" gradientUnits="userSpaceOnUse">
<stop offset="0.0001" stop-color="#9D50FF"/>
<stop offset="1" stop-color="#583CF0"/>
</linearGradient>
<linearGradient id="paint128_linear" x1="115.2" y1="172.736" x2="108.273" y2="175.803" gradientUnits="userSpaceOnUse">
<stop offset="0.0001" stop-color="#9D50FF"/>
<stop offset="1" stop-color="#583CF0"/>
</linearGradient>
<linearGradient id="paint129_linear" x1="131.618" y1="172.736" x2="124.691" y2="175.803" gradientUnits="userSpaceOnUse">
<stop offset="0.0001" stop-color="#9D50FF"/>
<stop offset="1" stop-color="#583CF0"/>
</linearGradient>
<linearGradient id="paint130_linear" x1="147.01" y1="172.736" x2="140.084" y2="175.803" gradientUnits="userSpaceOnUse">
<stop offset="0.0001" stop-color="#9D50FF"/>
<stop offset="1" stop-color="#583CF0"/>
</linearGradient>
<linearGradient id="paint131_linear" x1="162.403" y1="172.736" x2="155.476" y2="175.803" gradientUnits="userSpaceOnUse">
<stop offset="0.0001" stop-color="#9D50FF"/>
<stop offset="1" stop-color="#583CF0"/>
</linearGradient>
<linearGradient id="paint132_linear" x1="178.821" y1="172.736" x2="171.894" y2="175.803" gradientUnits="userSpaceOnUse">
<stop offset="0.0001" stop-color="#9D50FF"/>
<stop offset="1" stop-color="#583CF0"/>
</linearGradient>
<linearGradient id="paint133_linear" x1="4.37152" y1="188.126" x2="-2.55476" y2="191.193" gradientUnits="userSpaceOnUse">
<stop offset="0.0001" stop-color="#9D50FF"/>
<stop offset="1" stop-color="#583CF0"/>
</linearGradient>
<linearGradient id="paint134_linear" x1="20.7914" y1="188.126" x2="13.8652" y2="191.193" gradientUnits="userSpaceOnUse">
<stop offset="0.0001" stop-color="#9D50FF"/>
<stop offset="1" stop-color="#583CF0"/>
</linearGradient>
<linearGradient id="paint135_linear" x1="36.1821" y1="188.126" x2="29.2558" y2="191.193" gradientUnits="userSpaceOnUse">
<stop offset="0.0001" stop-color="#9D50FF"/>
<stop offset="1" stop-color="#583CF0"/>
</linearGradient>
<linearGradient id="paint136_linear" x1="51.5766" y1="188.126" x2="44.6503" y2="191.193" gradientUnits="userSpaceOnUse">
<stop offset="0.0001" stop-color="#9D50FF"/>
<stop offset="1" stop-color="#583CF0"/>
</linearGradient>
<linearGradient id="paint137_linear" x1="67.9946" y1="188.126" x2="61.0683" y2="191.193" gradientUnits="userSpaceOnUse">
<stop offset="0.0001" stop-color="#9D50FF"/>
<stop offset="1" stop-color="#583CF0"/>
</linearGradient>
<linearGradient id="paint138_linear" x1="83.3871" y1="188.126" x2="76.4609" y2="191.193" gradientUnits="userSpaceOnUse">
<stop offset="0.0001" stop-color="#9D50FF"/>
<stop offset="1" stop-color="#583CF0"/>
</linearGradient>
<linearGradient id="paint139_linear" x1="99.8071" y1="188.126" x2="92.8808" y2="191.193" gradientUnits="userSpaceOnUse">
<stop offset="0.0001" stop-color="#9D50FF"/>
<stop offset="1" stop-color="#583CF0"/>
</linearGradient>
<linearGradient id="paint140_linear" x1="115.198" y1="188.126" x2="108.271" y2="191.193" gradientUnits="userSpaceOnUse">
<stop offset="0.0001" stop-color="#9D50FF"/>
<stop offset="1" stop-color="#583CF0"/>
</linearGradient>
<linearGradient id="paint141_linear" x1="131.618" y1="188.126" x2="124.691" y2="191.193" gradientUnits="userSpaceOnUse">
<stop offset="0.0001" stop-color="#9D50FF"/>
<stop offset="1" stop-color="#583CF0"/>
</linearGradient>
<linearGradient id="paint142_linear" x1="147.01" y1="188.126" x2="140.084" y2="191.193" gradientUnits="userSpaceOnUse">
<stop offset="0.0001" stop-color="#9D50FF"/>
<stop offset="1" stop-color="#583CF0"/>
</linearGradient>
<linearGradient id="paint143_linear" x1="162.403" y1="188.126" x2="155.476" y2="191.193" gradientUnits="userSpaceOnUse">
<stop offset="0.0001" stop-color="#9D50FF"/>
<stop offset="1" stop-color="#583CF0"/>
</linearGradient>
<linearGradient id="paint144_linear" x1="178.823" y1="188.126" x2="171.896" y2="191.193" gradientUnits="userSpaceOnUse">
<stop offset="0.0001" stop-color="#9D50FF"/>
<stop offset="1" stop-color="#583CF0"/>
</linearGradient>
<linearGradient id="paint145_linear" x1="20.7914" y1="-1.71687" x2="13.8652" y2="1.34976" gradientUnits="userSpaceOnUse">
<stop offset="0.0001" stop-color="#9D50FF"/>
<stop offset="1" stop-color="#583CF0"/>
</linearGradient>
<linearGradient id="paint146_linear" x1="36.1821" y1="-1.71687" x2="29.2558" y2="1.34976" gradientUnits="userSpaceOnUse">
<stop offset="0.0001" stop-color="#9D50FF"/>
<stop offset="1" stop-color="#583CF0"/>
</linearGradient>
<linearGradient id="paint147_linear" x1="51.5766" y1="-1.71687" x2="44.6503" y2="1.34976" gradientUnits="userSpaceOnUse">
<stop offset="0.0001" stop-color="#9D50FF"/>
<stop offset="1" stop-color="#583CF0"/>
</linearGradient>
<linearGradient id="paint148_linear" x1="67.9946" y1="-1.71687" x2="61.0683" y2="1.34976" gradientUnits="userSpaceOnUse">
<stop offset="0.0001" stop-color="#9D50FF"/>
<stop offset="1" stop-color="#583CF0"/>
</linearGradient>
<linearGradient id="paint149_linear" x1="83.3871" y1="-1.71687" x2="76.4609" y2="1.34976" gradientUnits="userSpaceOnUse">
<stop offset="0.0001" stop-color="#9D50FF"/>
<stop offset="1" stop-color="#583CF0"/>
</linearGradient>
<linearGradient id="paint150_linear" x1="99.8071" y1="-1.71687" x2="92.8808" y2="1.34976" gradientUnits="userSpaceOnUse">
<stop offset="0.0001" stop-color="#9D50FF"/>
<stop offset="1" stop-color="#583CF0"/>
</linearGradient>
<linearGradient id="paint151_linear" x1="115.198" y1="-1.71687" x2="108.271" y2="1.34976" gradientUnits="userSpaceOnUse">
<stop offset="0.0001" stop-color="#9D50FF"/>
<stop offset="1" stop-color="#583CF0"/>
</linearGradient>
<linearGradient id="paint152_linear" x1="131.618" y1="-1.71687" x2="124.691" y2="1.34976" gradientUnits="userSpaceOnUse">
<stop offset="0.0001" stop-color="#9D50FF"/>
<stop offset="1" stop-color="#583CF0"/>
</linearGradient>
<linearGradient id="paint153_linear" x1="147.01" y1="-1.71687" x2="140.084" y2="1.34976" gradientUnits="userSpaceOnUse">
<stop offset="0.0001" stop-color="#9D50FF"/>
<stop offset="1" stop-color="#583CF0"/>
</linearGradient>
<linearGradient id="paint154_linear" x1="162.403" y1="-1.71687" x2="155.476" y2="1.34976" gradientUnits="userSpaceOnUse">
<stop offset="0.0001" stop-color="#9D50FF"/>
<stop offset="1" stop-color="#583CF0"/>
</linearGradient>
<linearGradient id="paint155_linear" x1="178.823" y1="-1.71687" x2="171.896" y2="1.34976" gradientUnits="userSpaceOnUse">
<stop offset="0.0001" stop-color="#9D50FF"/>
<stop offset="1" stop-color="#583CF0"/>
</linearGradient>
</defs>
</svg>
