<svg width="142" height="154" viewBox="0 0 142 154" fill="none" xmlns="http://www.w3.org/2000/svg">
<path fill-rule="evenodd" clip-rule="evenodd" d="M6.15707 3.07853C6.15707 4.77942 4.77942 6.15707 3.07853 6.15707C1.37764 6.15707 0 4.77942 0 3.07853C0 1.37764 1.37764 0 3.07853 0C4.77942 0 6.15707 1.37764 6.15707 3.07853Z" fill="url(#paint0_linear)"/>
<path fill-rule="evenodd" clip-rule="evenodd" d="M6.15707 18.4701C6.15707 20.171 4.77942 21.5487 3.07853 21.5487C1.37764 21.5487 0 20.171 0 18.4701C0 16.7692 1.37764 15.3916 3.07853 15.3916C4.77942 15.3916 6.15707 16.7692 6.15707 18.4701Z" fill="url(#paint1_linear)"/>
<path fill-rule="evenodd" clip-rule="evenodd" d="M22.576 18.4701C22.576 20.171 21.1984 21.5487 19.4975 21.5487C17.7966 21.5487 16.4189 20.171 16.4189 18.4701C16.4189 16.7692 17.7966 15.3916 19.4975 15.3916C21.1984 15.3916 22.576 16.7692 22.576 18.4701Z" fill="url(#paint2_linear)"/>
<path fill-rule="evenodd" clip-rule="evenodd" d="M37.9686 18.4701C37.9686 20.171 36.5909 21.5487 34.8901 21.5487C33.1892 21.5487 31.8115 20.171 31.8115 18.4701C31.8115 16.7692 33.1892 15.3916 34.8901 15.3916C36.5909 15.3916 37.9686 16.7692 37.9686 18.4701Z" fill="url(#paint3_linear)"/>
<path fill-rule="evenodd" clip-rule="evenodd" d="M53.3612 18.4701C53.3612 20.171 51.9835 21.5487 50.2826 21.5487C48.5817 21.5487 47.2041 20.171 47.2041 18.4701C47.2041 16.7692 48.5817 15.3916 50.2826 15.3916C51.9835 15.3916 53.3612 16.7692 53.3612 18.4701Z" fill="url(#paint4_linear)"/>
<path fill-rule="evenodd" clip-rule="evenodd" d="M69.7801 18.4701C69.7801 20.171 68.4025 21.5487 66.7016 21.5487C65.0007 21.5487 63.623 20.171 63.623 18.4701C63.623 16.7692 65.0007 15.3916 66.7016 15.3916C68.4025 15.3916 69.7801 16.7692 69.7801 18.4701Z" fill="url(#paint5_linear)"/>
<path fill-rule="evenodd" clip-rule="evenodd" d="M85.1727 18.4701C85.1727 20.171 83.795 21.5487 82.0942 21.5487C80.3933 21.5487 79.0156 20.171 79.0156 18.4701C79.0156 16.7692 80.3933 15.3916 82.0942 15.3916C83.795 15.3916 85.1727 16.7692 85.1727 18.4701Z" fill="url(#paint6_linear)"/>
<path fill-rule="evenodd" clip-rule="evenodd" d="M101.592 18.4701C101.592 20.171 100.214 21.5487 98.5131 21.5487C96.8122 21.5487 95.4346 20.171 95.4346 18.4701C95.4346 16.7692 96.8122 15.3916 98.5131 15.3916C100.214 15.3916 101.592 16.7692 101.592 18.4701Z" fill="url(#paint7_linear)"/>
<path fill-rule="evenodd" clip-rule="evenodd" d="M116.984 18.4701C116.984 20.171 115.607 21.5487 113.906 21.5487C112.205 21.5487 110.827 20.171 110.827 18.4701C110.827 16.7692 112.205 15.3916 113.906 15.3916C115.607 15.3916 116.984 16.7692 116.984 18.4701Z" fill="url(#paint8_linear)"/>
<path fill-rule="evenodd" clip-rule="evenodd" d="M133.403 18.4701C133.403 20.171 132.026 21.5487 130.325 21.5487C128.624 21.5487 127.246 20.171 127.246 18.4701C127.246 16.7692 128.624 15.3916 130.325 15.3916C132.026 15.3916 133.403 16.7692 133.403 18.4701Z" fill="url(#paint9_linear)"/>
<path fill-rule="evenodd" clip-rule="evenodd" d="M6.15707 34.8905C6.15707 36.5914 4.77942 37.9691 3.07853 37.9691C1.37764 37.9691 0 36.5914 0 34.8905C0 33.1897 1.37764 31.812 3.07853 31.812C4.77942 31.812 6.15707 33.1897 6.15707 34.8905Z" fill="url(#paint10_linear)"/>
<path fill-rule="evenodd" clip-rule="evenodd" d="M22.576 34.8905C22.576 36.5914 21.1984 37.9691 19.4975 37.9691C17.7966 37.9691 16.4189 36.5914 16.4189 34.8905C16.4189 33.1897 17.7966 31.812 19.4975 31.812C21.1984 31.812 22.576 33.1897 22.576 34.8905Z" fill="url(#paint11_linear)"/>
<path fill-rule="evenodd" clip-rule="evenodd" d="M37.9686 34.8905C37.9686 36.5914 36.5909 37.9691 34.8901 37.9691C33.1892 37.9691 31.8115 36.5914 31.8115 34.8905C31.8115 33.1897 33.1892 31.812 34.8901 31.812C36.5909 31.812 37.9686 33.1897 37.9686 34.8905Z" fill="url(#paint12_linear)"/>
<path fill-rule="evenodd" clip-rule="evenodd" d="M53.3612 34.8905C53.3612 36.5914 51.9835 37.9691 50.2826 37.9691C48.5817 37.9691 47.2041 36.5914 47.2041 34.8905C47.2041 33.1897 48.5817 31.812 50.2826 31.812C51.9835 31.812 53.3612 33.1897 53.3612 34.8905Z" fill="url(#paint13_linear)"/>
<path fill-rule="evenodd" clip-rule="evenodd" d="M69.7801 34.8905C69.7801 36.5914 68.4025 37.9691 66.7016 37.9691C65.0007 37.9691 63.623 36.5914 63.623 34.8905C63.623 33.1897 65.0007 31.812 66.7016 31.812C68.4025 31.812 69.7801 33.1897 69.7801 34.8905Z" fill="url(#paint14_linear)"/>
<path fill-rule="evenodd" clip-rule="evenodd" d="M85.1727 34.8905C85.1727 36.5914 83.795 37.9691 82.0942 37.9691C80.3933 37.9691 79.0156 36.5914 79.0156 34.8905C79.0156 33.1897 80.3933 31.812 82.0942 31.812C83.795 31.812 85.1727 33.1897 85.1727 34.8905Z" fill="url(#paint15_linear)"/>
<path fill-rule="evenodd" clip-rule="evenodd" d="M101.592 34.8905C101.592 36.5914 100.214 37.9691 98.5131 37.9691C96.8122 37.9691 95.4346 36.5914 95.4346 34.8905C95.4346 33.1897 96.8122 31.812 98.5131 31.812C100.214 31.812 101.592 33.1897 101.592 34.8905Z" fill="url(#paint16_linear)"/>
<path fill-rule="evenodd" clip-rule="evenodd" d="M116.984 34.8905C116.984 36.5914 115.607 37.9691 113.906 37.9691C112.205 37.9691 110.827 36.5914 110.827 34.8905C110.827 33.1897 112.205 31.812 113.906 31.812C115.607 31.812 116.984 33.1897 116.984 34.8905Z" fill="url(#paint17_linear)"/>
<path fill-rule="evenodd" clip-rule="evenodd" d="M133.403 34.8905C133.403 36.5914 132.026 37.9691 130.325 37.9691C128.624 37.9691 127.246 36.5914 127.246 34.8905C127.246 33.1897 128.624 31.812 130.325 31.812C132.026 31.812 133.403 33.1897 133.403 34.8905Z" fill="url(#paint18_linear)"/>
<path fill-rule="evenodd" clip-rule="evenodd" d="M6.15707 50.2821C6.15707 51.983 4.77942 53.3607 3.07853 53.3607C1.37764 53.3607 0 51.983 0 50.2821C0 48.5813 1.37764 47.2036 3.07853 47.2036C4.77942 47.2036 6.15707 48.5813 6.15707 50.2821Z" fill="url(#paint19_linear)"/>
<path fill-rule="evenodd" clip-rule="evenodd" d="M22.576 50.2821C22.576 51.983 21.1984 53.3607 19.4975 53.3607C17.7966 53.3607 16.4189 51.983 16.4189 50.2821C16.4189 48.5813 17.7966 47.2036 19.4975 47.2036C21.1984 47.2036 22.576 48.5813 22.576 50.2821Z" fill="url(#paint20_linear)"/>
<path fill-rule="evenodd" clip-rule="evenodd" d="M37.9686 50.2821C37.9686 51.983 36.5909 53.3607 34.8901 53.3607C33.1892 53.3607 31.8115 51.983 31.8115 50.2821C31.8115 48.5813 33.1892 47.2036 34.8901 47.2036C36.5909 47.2036 37.9686 48.5813 37.9686 50.2821Z" fill="url(#paint21_linear)"/>
<path fill-rule="evenodd" clip-rule="evenodd" d="M53.3612 50.2821C53.3612 51.983 51.9835 53.3607 50.2826 53.3607C48.5817 53.3607 47.2041 51.983 47.2041 50.2821C47.2041 48.5813 48.5817 47.2036 50.2826 47.2036C51.9835 47.2036 53.3612 48.5813 53.3612 50.2821Z" fill="url(#paint22_linear)"/>
<path fill-rule="evenodd" clip-rule="evenodd" d="M69.7801 50.2821C69.7801 51.983 68.4025 53.3607 66.7016 53.3607C65.0007 53.3607 63.623 51.983 63.623 50.2821C63.623 48.5813 65.0007 47.2036 66.7016 47.2036C68.4025 47.2036 69.7801 48.5813 69.7801 50.2821Z" fill="url(#paint23_linear)"/>
<path fill-rule="evenodd" clip-rule="evenodd" d="M85.1727 50.2821C85.1727 51.983 83.795 53.3607 82.0942 53.3607C80.3933 53.3607 79.0156 51.983 79.0156 50.2821C79.0156 48.5813 80.3933 47.2036 82.0942 47.2036C83.795 47.2036 85.1727 48.5813 85.1727 50.2821Z" fill="url(#paint24_linear)"/>
<path fill-rule="evenodd" clip-rule="evenodd" d="M101.592 50.2821C101.592 51.983 100.214 53.3607 98.5131 53.3607C96.8122 53.3607 95.4346 51.983 95.4346 50.2821C95.4346 48.5813 96.8122 47.2036 98.5131 47.2036C100.214 47.2036 101.592 48.5813 101.592 50.2821Z" fill="url(#paint25_linear)"/>
<path fill-rule="evenodd" clip-rule="evenodd" d="M116.984 50.2821C116.984 51.983 115.607 53.3607 113.906 53.3607C112.205 53.3607 110.827 51.983 110.827 50.2821C110.827 48.5813 112.205 47.2036 113.906 47.2036C115.607 47.2036 116.984 48.5813 116.984 50.2821Z" fill="url(#paint26_linear)"/>
<path fill-rule="evenodd" clip-rule="evenodd" d="M133.403 50.2821C133.403 51.983 132.026 53.3607 130.325 53.3607C128.624 53.3607 127.246 51.983 127.246 50.2821C127.246 48.5813 128.624 47.2036 130.325 47.2036C132.026 47.2036 133.403 48.5813 133.403 50.2821Z" fill="url(#paint27_linear)"/>
<path fill-rule="evenodd" clip-rule="evenodd" d="M6.15707 66.7026C6.15707 68.4034 4.77942 69.7811 3.07853 69.7811C1.37764 69.7811 0 68.4034 0 66.7026C0 65.0017 1.37764 63.624 3.07853 63.624C4.77942 63.624 6.15707 65.0017 6.15707 66.7026Z" fill="url(#paint28_linear)"/>
<path fill-rule="evenodd" clip-rule="evenodd" d="M22.576 66.7026C22.576 68.4034 21.1984 69.7811 19.4975 69.7811C17.7966 69.7811 16.4189 68.4034 16.4189 66.7026C16.4189 65.0017 17.7966 63.624 19.4975 63.624C21.1984 63.624 22.576 65.0017 22.576 66.7026Z" fill="url(#paint29_linear)"/>
<path fill-rule="evenodd" clip-rule="evenodd" d="M37.9686 66.7026C37.9686 68.4034 36.5909 69.7811 34.8901 69.7811C33.1892 69.7811 31.8115 68.4034 31.8115 66.7026C31.8115 65.0017 33.1892 63.624 34.8901 63.624C36.5909 63.624 37.9686 65.0017 37.9686 66.7026Z" fill="url(#paint30_linear)"/>
<path fill-rule="evenodd" clip-rule="evenodd" d="M53.3612 66.7026C53.3612 68.4034 51.9835 69.7811 50.2826 69.7811C48.5817 69.7811 47.2041 68.4034 47.2041 66.7026C47.2041 65.0017 48.5817 63.624 50.2826 63.624C51.9835 63.624 53.3612 65.0017 53.3612 66.7026Z" fill="url(#paint31_linear)"/>
<path fill-rule="evenodd" clip-rule="evenodd" d="M69.7801 66.7026C69.7801 68.4034 68.4025 69.7811 66.7016 69.7811C65.0007 69.7811 63.623 68.4034 63.623 66.7026C63.623 65.0017 65.0007 63.624 66.7016 63.624C68.4025 63.624 69.7801 65.0017 69.7801 66.7026Z" fill="url(#paint32_linear)"/>
<path fill-rule="evenodd" clip-rule="evenodd" d="M85.1727 66.7026C85.1727 68.4034 83.795 69.7811 82.0942 69.7811C80.3933 69.7811 79.0156 68.4034 79.0156 66.7026C79.0156 65.0017 80.3933 63.624 82.0942 63.624C83.795 63.624 85.1727 65.0017 85.1727 66.7026Z" fill="url(#paint33_linear)"/>
<path fill-rule="evenodd" clip-rule="evenodd" d="M101.592 66.7026C101.592 68.4034 100.214 69.7811 98.5131 69.7811C96.8122 69.7811 95.4346 68.4034 95.4346 66.7026C95.4346 65.0017 96.8122 63.624 98.5131 63.624C100.214 63.624 101.592 65.0017 101.592 66.7026Z" fill="url(#paint34_linear)"/>
<path fill-rule="evenodd" clip-rule="evenodd" d="M116.984 66.7026C116.984 68.4034 115.607 69.7811 113.906 69.7811C112.205 69.7811 110.827 68.4034 110.827 66.7026C110.827 65.0017 112.205 63.624 113.906 63.624C115.607 63.624 116.984 65.0017 116.984 66.7026Z" fill="url(#paint35_linear)"/>
<path fill-rule="evenodd" clip-rule="evenodd" d="M133.403 66.7026C133.403 68.4034 132.026 69.7811 130.325 69.7811C128.624 69.7811 127.246 68.4034 127.246 66.7026C127.246 65.0017 128.624 63.624 130.325 63.624C132.026 63.624 133.403 65.0017 133.403 66.7026Z" fill="url(#paint36_linear)"/>
<path fill-rule="evenodd" clip-rule="evenodd" d="M6.15707 82.0942C6.15707 83.795 4.77942 85.1727 3.07853 85.1727C1.37764 85.1727 0 83.795 0 82.0942C0 80.3933 1.37764 79.0156 3.07853 79.0156C4.77942 79.0156 6.15707 80.3933 6.15707 82.0942Z" fill="url(#paint37_linear)"/>
<path fill-rule="evenodd" clip-rule="evenodd" d="M22.576 82.0942C22.576 83.795 21.1984 85.1727 19.4975 85.1727C17.7966 85.1727 16.4189 83.795 16.4189 82.0942C16.4189 80.3933 17.7966 79.0156 19.4975 79.0156C21.1984 79.0156 22.576 80.3933 22.576 82.0942Z" fill="url(#paint38_linear)"/>
<path fill-rule="evenodd" clip-rule="evenodd" d="M37.9686 82.0942C37.9686 83.795 36.5909 85.1727 34.8901 85.1727C33.1892 85.1727 31.8115 83.795 31.8115 82.0942C31.8115 80.3933 33.1892 79.0156 34.8901 79.0156C36.5909 79.0156 37.9686 80.3933 37.9686 82.0942Z" fill="url(#paint39_linear)"/>
<path fill-rule="evenodd" clip-rule="evenodd" d="M53.3612 82.0942C53.3612 83.795 51.9835 85.1727 50.2826 85.1727C48.5817 85.1727 47.2041 83.795 47.2041 82.0942C47.2041 80.3933 48.5817 79.0156 50.2826 79.0156C51.9835 79.0156 53.3612 80.3933 53.3612 82.0942Z" fill="url(#paint40_linear)"/>
<path fill-rule="evenodd" clip-rule="evenodd" d="M69.7801 82.0942C69.7801 83.795 68.4025 85.1727 66.7016 85.1727C65.0007 85.1727 63.623 83.795 63.623 82.0942C63.623 80.3933 65.0007 79.0156 66.7016 79.0156C68.4025 79.0156 69.7801 80.3933 69.7801 82.0942Z" fill="url(#paint41_linear)"/>
<path fill-rule="evenodd" clip-rule="evenodd" d="M85.1727 82.0942C85.1727 83.795 83.795 85.1727 82.0942 85.1727C80.3933 85.1727 79.0156 83.795 79.0156 82.0942C79.0156 80.3933 80.3933 79.0156 82.0942 79.0156C83.795 79.0156 85.1727 80.3933 85.1727 82.0942Z" fill="url(#paint42_linear)"/>
<path fill-rule="evenodd" clip-rule="evenodd" d="M101.592 82.0942C101.592 83.795 100.214 85.1727 98.5131 85.1727C96.8122 85.1727 95.4346 83.795 95.4346 82.0942C95.4346 80.3933 96.8122 79.0156 98.5131 79.0156C100.214 79.0156 101.592 80.3933 101.592 82.0942Z" fill="url(#paint43_linear)"/>
<path fill-rule="evenodd" clip-rule="evenodd" d="M116.984 82.0942C116.984 83.795 115.607 85.1727 113.906 85.1727C112.205 85.1727 110.827 83.795 110.827 82.0942C110.827 80.3933 112.205 79.0156 113.906 79.0156C115.607 79.0156 116.984 80.3933 116.984 82.0942Z" fill="url(#paint44_linear)"/>
<path fill-rule="evenodd" clip-rule="evenodd" d="M133.403 82.0942C133.403 83.795 132.026 85.1727 130.325 85.1727C128.624 85.1727 127.246 83.795 127.246 82.0942C127.246 80.3933 128.624 79.0156 130.325 79.0156C132.026 79.0156 133.403 80.3933 133.403 82.0942Z" fill="url(#paint45_linear)"/>
<path fill-rule="evenodd" clip-rule="evenodd" d="M6.15707 98.516C6.15707 100.217 4.77942 101.595 3.07853 101.595C1.37764 101.595 0 100.217 0 98.516C0 96.8151 1.37764 95.4375 3.07853 95.4375C4.77942 95.4375 6.15707 96.8151 6.15707 98.516Z" fill="url(#paint46_linear)"/>
<path fill-rule="evenodd" clip-rule="evenodd" d="M22.576 98.516C22.576 100.217 21.1984 101.595 19.4975 101.595C17.7966 101.595 16.4189 100.217 16.4189 98.516C16.4189 96.8151 17.7966 95.4375 19.4975 95.4375C21.1984 95.4375 22.576 96.8151 22.576 98.516Z" fill="url(#paint47_linear)"/>
<path fill-rule="evenodd" clip-rule="evenodd" d="M37.9686 98.516C37.9686 100.217 36.5909 101.595 34.8901 101.595C33.1892 101.595 31.8115 100.217 31.8115 98.516C31.8115 96.8151 33.1892 95.4375 34.8901 95.4375C36.5909 95.4375 37.9686 96.8151 37.9686 98.516Z" fill="url(#paint48_linear)"/>
<path fill-rule="evenodd" clip-rule="evenodd" d="M53.3612 98.516C53.3612 100.217 51.9835 101.595 50.2826 101.595C48.5817 101.595 47.2041 100.217 47.2041 98.516C47.2041 96.8151 48.5817 95.4375 50.2826 95.4375C51.9835 95.4375 53.3612 96.8151 53.3612 98.516Z" fill="url(#paint49_linear)"/>
<path fill-rule="evenodd" clip-rule="evenodd" d="M69.7801 98.516C69.7801 100.217 68.4025 101.595 66.7016 101.595C65.0007 101.595 63.623 100.217 63.623 98.516C63.623 96.8151 65.0007 95.4375 66.7016 95.4375C68.4025 95.4375 69.7801 96.8151 69.7801 98.516Z" fill="url(#paint50_linear)"/>
<path fill-rule="evenodd" clip-rule="evenodd" d="M85.1727 98.516C85.1727 100.217 83.795 101.595 82.0942 101.595C80.3933 101.595 79.0156 100.217 79.0156 98.516C79.0156 96.8151 80.3933 95.4375 82.0942 95.4375C83.795 95.4375 85.1727 96.8151 85.1727 98.516Z" fill="url(#paint51_linear)"/>
<path fill-rule="evenodd" clip-rule="evenodd" d="M101.592 98.516C101.592 100.217 100.214 101.595 98.5131 101.595C96.8122 101.595 95.4346 100.217 95.4346 98.516C95.4346 96.8151 96.8122 95.4375 98.5131 95.4375C100.214 95.4375 101.592 96.8151 101.592 98.516Z" fill="url(#paint52_linear)"/>
<path fill-rule="evenodd" clip-rule="evenodd" d="M116.984 98.516C116.984 100.217 115.607 101.595 113.906 101.595C112.205 101.595 110.827 100.217 110.827 98.516C110.827 96.8151 112.205 95.4375 113.906 95.4375C115.607 95.4375 116.984 96.8151 116.984 98.516Z" fill="url(#paint53_linear)"/>
<path fill-rule="evenodd" clip-rule="evenodd" d="M133.403 98.516C133.403 100.217 132.026 101.595 130.325 101.595C128.624 101.595 127.246 100.217 127.246 98.516C127.246 96.8151 128.624 95.4375 130.325 95.4375C132.026 95.4375 133.403 96.8151 133.403 98.516Z" fill="url(#paint54_linear)"/>
<path fill-rule="evenodd" clip-rule="evenodd" d="M6.15707 113.906C6.15707 115.607 4.77942 116.985 3.07853 116.985C1.37764 116.985 0 115.607 0 113.906C0 112.205 1.37764 110.828 3.07853 110.828C4.77942 110.828 6.15707 112.205 6.15707 113.906Z" fill="url(#paint55_linear)"/>
<path fill-rule="evenodd" clip-rule="evenodd" d="M22.576 113.906C22.576 115.607 21.1984 116.985 19.4975 116.985C17.7966 116.985 16.4189 115.607 16.4189 113.906C16.4189 112.205 17.7966 110.828 19.4975 110.828C21.1984 110.828 22.576 112.205 22.576 113.906Z" fill="url(#paint56_linear)"/>
<path fill-rule="evenodd" clip-rule="evenodd" d="M37.9686 113.906C37.9686 115.607 36.5909 116.985 34.8901 116.985C33.1892 116.985 31.8115 115.607 31.8115 113.906C31.8115 112.205 33.1892 110.828 34.8901 110.828C36.5909 110.828 37.9686 112.205 37.9686 113.906Z" fill="url(#paint57_linear)"/>
<path fill-rule="evenodd" clip-rule="evenodd" d="M53.3612 113.906C53.3612 115.607 51.9835 116.985 50.2826 116.985C48.5817 116.985 47.2041 115.607 47.2041 113.906C47.2041 112.205 48.5817 110.828 50.2826 110.828C51.9835 110.828 53.3612 112.205 53.3612 113.906Z" fill="url(#paint58_linear)"/>
<path fill-rule="evenodd" clip-rule="evenodd" d="M69.7801 113.906C69.7801 115.607 68.4025 116.985 66.7016 116.985C65.0007 116.985 63.623 115.607 63.623 113.906C63.623 112.205 65.0007 110.828 66.7016 110.828C68.4025 110.828 69.7801 112.205 69.7801 113.906Z" fill="url(#paint59_linear)"/>
<path fill-rule="evenodd" clip-rule="evenodd" d="M85.1727 113.906C85.1727 115.607 83.795 116.985 82.0942 116.985C80.3933 116.985 79.0156 115.607 79.0156 113.906C79.0156 112.205 80.3933 110.828 82.0942 110.828C83.795 110.828 85.1727 112.205 85.1727 113.906Z" fill="url(#paint60_linear)"/>
<path fill-rule="evenodd" clip-rule="evenodd" d="M101.592 113.906C101.592 115.607 100.214 116.985 98.5131 116.985C96.8122 116.985 95.4346 115.607 95.4346 113.906C95.4346 112.205 96.8122 110.828 98.5131 110.828C100.214 110.828 101.592 112.205 101.592 113.906Z" fill="url(#paint61_linear)"/>
<path fill-rule="evenodd" clip-rule="evenodd" d="M116.984 113.906C116.984 115.607 115.607 116.985 113.906 116.985C112.205 116.985 110.827 115.607 110.827 113.906C110.827 112.205 112.205 110.828 113.906 110.828C115.607 110.828 116.984 112.205 116.984 113.906Z" fill="url(#paint62_linear)"/>
<path fill-rule="evenodd" clip-rule="evenodd" d="M133.403 113.906C133.403 115.607 132.026 116.985 130.325 116.985C128.624 116.985 127.246 115.607 127.246 113.906C127.246 112.205 128.624 110.828 130.325 110.828C132.026 110.828 133.403 112.205 133.403 113.906Z" fill="url(#paint63_linear)"/>
<path fill-rule="evenodd" clip-rule="evenodd" d="M6.15707 129.298C6.15707 130.999 4.77942 132.376 3.07853 132.376C1.37764 132.376 0 130.999 0 129.298C0 127.597 1.37764 126.219 3.07853 126.219C4.77942 126.219 6.15707 127.597 6.15707 129.298Z" fill="url(#paint64_linear)"/>
<path fill-rule="evenodd" clip-rule="evenodd" d="M22.576 129.298C22.576 130.999 21.1984 132.376 19.4975 132.376C17.7966 132.376 16.4189 130.999 16.4189 129.298C16.4189 127.597 17.7966 126.219 19.4975 126.219C21.1984 126.219 22.576 127.597 22.576 129.298Z" fill="url(#paint65_linear)"/>
<path fill-rule="evenodd" clip-rule="evenodd" d="M37.9686 129.298C37.9686 130.999 36.5909 132.376 34.8901 132.376C33.1892 132.376 31.8115 130.999 31.8115 129.298C31.8115 127.597 33.1892 126.219 34.8901 126.219C36.5909 126.219 37.9686 127.597 37.9686 129.298Z" fill="url(#paint66_linear)"/>
<path fill-rule="evenodd" clip-rule="evenodd" d="M53.3612 129.298C53.3612 130.999 51.9835 132.376 50.2826 132.376C48.5817 132.376 47.2041 130.999 47.2041 129.298C47.2041 127.597 48.5817 126.219 50.2826 126.219C51.9835 126.219 53.3612 127.597 53.3612 129.298Z" fill="url(#paint67_linear)"/>
<path fill-rule="evenodd" clip-rule="evenodd" d="M69.7801 129.298C69.7801 130.999 68.4025 132.376 66.7016 132.376C65.0007 132.376 63.623 130.999 63.623 129.298C63.623 127.597 65.0007 126.219 66.7016 126.219C68.4025 126.219 69.7801 127.597 69.7801 129.298Z" fill="url(#paint68_linear)"/>
<path fill-rule="evenodd" clip-rule="evenodd" d="M85.1727 129.298C85.1727 130.999 83.795 132.376 82.0942 132.376C80.3933 132.376 79.0156 130.999 79.0156 129.298C79.0156 127.597 80.3933 126.219 82.0942 126.219C83.795 126.219 85.1727 127.597 85.1727 129.298Z" fill="url(#paint69_linear)"/>
<path fill-rule="evenodd" clip-rule="evenodd" d="M101.592 129.298C101.592 130.999 100.214 132.376 98.5131 132.376C96.8122 132.376 95.4346 130.999 95.4346 129.298C95.4346 127.597 96.8122 126.219 98.5131 126.219C100.214 126.219 101.592 127.597 101.592 129.298Z" fill="url(#paint70_linear)"/>
<path fill-rule="evenodd" clip-rule="evenodd" d="M116.984 129.298C116.984 130.999 115.607 132.376 113.906 132.376C112.205 132.376 110.827 130.999 110.827 129.298C110.827 127.597 112.205 126.219 113.906 126.219C115.607 126.219 116.984 127.597 116.984 129.298Z" fill="url(#paint71_linear)"/>
<path fill-rule="evenodd" clip-rule="evenodd" d="M133.403 129.298C133.403 130.999 132.026 132.376 130.325 132.376C128.624 132.376 127.246 130.999 127.246 129.298C127.246 127.597 128.624 126.219 130.325 126.219C132.026 126.219 133.403 127.597 133.403 129.298Z" fill="url(#paint72_linear)"/>
<path fill-rule="evenodd" clip-rule="evenodd" d="M6.15707 145.718C6.15707 147.419 4.77942 148.797 3.07853 148.797C1.37764 148.797 0 147.419 0 145.718C0 144.017 1.37764 142.64 3.07853 142.64C4.77942 142.64 6.15707 144.017 6.15707 145.718Z" fill="url(#paint73_linear)"/>
<path fill-rule="evenodd" clip-rule="evenodd" d="M22.576 145.718C22.576 147.419 21.1984 148.797 19.4975 148.797C17.7966 148.797 16.4189 147.419 16.4189 145.718C16.4189 144.017 17.7966 142.64 19.4975 142.64C21.1984 142.64 22.576 144.017 22.576 145.718Z" fill="url(#paint74_linear)"/>
<path fill-rule="evenodd" clip-rule="evenodd" d="M37.9686 145.718C37.9686 147.419 36.5909 148.797 34.8901 148.797C33.1892 148.797 31.8115 147.419 31.8115 145.718C31.8115 144.017 33.1892 142.64 34.8901 142.64C36.5909 142.64 37.9686 144.017 37.9686 145.718Z" fill="url(#paint75_linear)"/>
<path fill-rule="evenodd" clip-rule="evenodd" d="M53.3612 145.718C53.3612 147.419 51.9835 148.797 50.2826 148.797C48.5817 148.797 47.2041 147.419 47.2041 145.718C47.2041 144.017 48.5817 142.64 50.2826 142.64C51.9835 142.64 53.3612 144.017 53.3612 145.718Z" fill="url(#paint76_linear)"/>
<path fill-rule="evenodd" clip-rule="evenodd" d="M69.7801 145.718C69.7801 147.419 68.4025 148.797 66.7016 148.797C65.0007 148.797 63.623 147.419 63.623 145.718C63.623 144.017 65.0007 142.64 66.7016 142.64C68.4025 142.64 69.7801 144.017 69.7801 145.718Z" fill="url(#paint77_linear)"/>
<path fill-rule="evenodd" clip-rule="evenodd" d="M85.1727 145.718C85.1727 147.419 83.795 148.797 82.0942 148.797C80.3933 148.797 79.0156 147.419 79.0156 145.718C79.0156 144.017 80.3933 142.64 82.0942 142.64C83.795 142.64 85.1727 144.017 85.1727 145.718Z" fill="url(#paint78_linear)"/>
<path fill-rule="evenodd" clip-rule="evenodd" d="M101.592 145.718C101.592 147.419 100.214 148.797 98.5131 148.797C96.8122 148.797 95.4346 147.419 95.4346 145.718C95.4346 144.017 96.8122 142.64 98.5131 142.64C100.214 142.64 101.592 144.017 101.592 145.718Z" fill="url(#paint79_linear)"/>
<path fill-rule="evenodd" clip-rule="evenodd" d="M116.984 145.718C116.984 147.419 115.607 148.797 113.906 148.797C112.205 148.797 110.827 147.419 110.827 145.718C110.827 144.017 112.205 142.64 113.906 142.64C115.607 142.64 116.984 144.017 116.984 145.718Z" fill="url(#paint80_linear)"/>
<path fill-rule="evenodd" clip-rule="evenodd" d="M133.403 145.718C133.403 147.419 132.026 148.797 130.325 148.797C128.624 148.797 127.246 147.419 127.246 145.718C127.246 144.017 128.624 142.64 130.325 142.64C132.026 142.64 133.403 144.017 133.403 145.718Z" fill="url(#paint81_linear)"/>
<path fill-rule="evenodd" clip-rule="evenodd" d="M22.576 3.07853C22.576 4.77942 21.1984 6.15707 19.4975 6.15707C17.7966 6.15707 16.4189 4.77942 16.4189 3.07853C16.4189 1.37764 17.7966 0 19.4975 0C21.1984 0 22.576 1.37764 22.576 3.07853Z" fill="url(#paint82_linear)"/>
<path fill-rule="evenodd" clip-rule="evenodd" d="M37.9686 3.07853C37.9686 4.77942 36.5909 6.15707 34.8901 6.15707C33.1892 6.15707 31.8115 4.77942 31.8115 3.07853C31.8115 1.37764 33.1892 0 34.8901 0C36.5909 0 37.9686 1.37764 37.9686 3.07853Z" fill="url(#paint83_linear)"/>
<path fill-rule="evenodd" clip-rule="evenodd" d="M53.3612 3.07853C53.3612 4.77942 51.9835 6.15707 50.2826 6.15707C48.5817 6.15707 47.2041 4.77942 47.2041 3.07853C47.2041 1.37764 48.5817 0 50.2826 0C51.9835 0 53.3612 1.37764 53.3612 3.07853Z" fill="url(#paint84_linear)"/>
<path fill-rule="evenodd" clip-rule="evenodd" d="M69.7801 3.07853C69.7801 4.77942 68.4025 6.15707 66.7016 6.15707C65.0007 6.15707 63.623 4.77942 63.623 3.07853C63.623 1.37764 65.0007 0 66.7016 0C68.4025 0 69.7801 1.37764 69.7801 3.07853Z" fill="url(#paint85_linear)"/>
<path fill-rule="evenodd" clip-rule="evenodd" d="M85.1727 3.07853C85.1727 4.77942 83.795 6.15707 82.0942 6.15707C80.3933 6.15707 79.0156 4.77942 79.0156 3.07853C79.0156 1.37764 80.3933 0 82.0942 0C83.795 0 85.1727 1.37764 85.1727 3.07853Z" fill="url(#paint86_linear)"/>
<path fill-rule="evenodd" clip-rule="evenodd" d="M101.592 3.07853C101.592 4.77942 100.214 6.15707 98.5131 6.15707C96.8122 6.15707 95.4346 4.77942 95.4346 3.07853C95.4346 1.37764 96.8122 0 98.5131 0C100.214 0 101.592 1.37764 101.592 3.07853Z" fill="url(#paint87_linear)"/>
<path fill-rule="evenodd" clip-rule="evenodd" d="M116.984 3.07853C116.984 4.77942 115.607 6.15707 113.906 6.15707C112.205 6.15707 110.827 4.77942 110.827 3.07853C110.827 1.37764 112.205 0 113.906 0C115.607 0 116.984 1.37764 116.984 3.07853Z" fill="url(#paint88_linear)"/>
<path fill-rule="evenodd" clip-rule="evenodd" d="M133.403 3.07853C133.403 4.77942 132.026 6.15707 130.325 6.15707C128.624 6.15707 127.246 4.77942 127.246 3.07853C127.246 1.37764 128.624 0 130.325 0C132.026 0 133.403 1.37764 133.403 3.07853Z" fill="url(#paint89_linear)"/>
<defs>
<linearGradient id="paint0_linear" x1="4.37152" y1="-1.71687" x2="-2.55476" y2="1.34976" gradientUnits="userSpaceOnUse">
<stop offset="0.0001" stop-color="#9D50FF"/>
<stop offset="1" stop-color="#583CF0"/>
</linearGradient>
<linearGradient id="paint1_linear" x1="4.37152" y1="13.6747" x2="-2.55476" y2="16.7414" gradientUnits="userSpaceOnUse">
<stop offset="0.0001" stop-color="#9D50FF"/>
<stop offset="1" stop-color="#583CF0"/>
</linearGradient>
<linearGradient id="paint2_linear" x1="20.7905" y1="13.6747" x2="13.8642" y2="16.7414" gradientUnits="userSpaceOnUse">
<stop offset="0.0001" stop-color="#9D50FF"/>
<stop offset="1" stop-color="#583CF0"/>
</linearGradient>
<linearGradient id="paint3_linear" x1="36.183" y1="13.6747" x2="29.2568" y2="16.7414" gradientUnits="userSpaceOnUse">
<stop offset="0.0001" stop-color="#9D50FF"/>
<stop offset="1" stop-color="#583CF0"/>
</linearGradient>
<linearGradient id="paint4_linear" x1="51.5756" y1="13.6747" x2="44.6493" y2="16.7414" gradientUnits="userSpaceOnUse">
<stop offset="0.0001" stop-color="#9D50FF"/>
<stop offset="1" stop-color="#583CF0"/>
</linearGradient>
<linearGradient id="paint5_linear" x1="67.9946" y1="13.6747" x2="61.0683" y2="16.7414" gradientUnits="userSpaceOnUse">
<stop offset="0.0001" stop-color="#9D50FF"/>
<stop offset="1" stop-color="#583CF0"/>
</linearGradient>
<linearGradient id="paint6_linear" x1="83.3871" y1="13.6747" x2="76.4609" y2="16.7414" gradientUnits="userSpaceOnUse">
<stop offset="0.0001" stop-color="#9D50FF"/>
<stop offset="1" stop-color="#583CF0"/>
</linearGradient>
<linearGradient id="paint7_linear" x1="99.8061" y1="13.6747" x2="92.8798" y2="16.7414" gradientUnits="userSpaceOnUse">
<stop offset="0.0001" stop-color="#9D50FF"/>
<stop offset="1" stop-color="#583CF0"/>
</linearGradient>
<linearGradient id="paint8_linear" x1="115.199" y1="13.6747" x2="108.272" y2="16.7414" gradientUnits="userSpaceOnUse">
<stop offset="0.0001" stop-color="#9D50FF"/>
<stop offset="1" stop-color="#583CF0"/>
</linearGradient>
<linearGradient id="paint9_linear" x1="131.618" y1="13.6747" x2="124.691" y2="16.7414" gradientUnits="userSpaceOnUse">
<stop offset="0.0001" stop-color="#9D50FF"/>
<stop offset="1" stop-color="#583CF0"/>
</linearGradient>
<linearGradient id="paint10_linear" x1="4.37152" y1="30.0951" x2="-2.55476" y2="33.1618" gradientUnits="userSpaceOnUse">
<stop offset="0.0001" stop-color="#9D50FF"/>
<stop offset="1" stop-color="#583CF0"/>
</linearGradient>
<linearGradient id="paint11_linear" x1="20.7905" y1="30.0951" x2="13.8642" y2="33.1618" gradientUnits="userSpaceOnUse">
<stop offset="0.0001" stop-color="#9D50FF"/>
<stop offset="1" stop-color="#583CF0"/>
</linearGradient>
<linearGradient id="paint12_linear" x1="36.183" y1="30.0951" x2="29.2568" y2="33.1618" gradientUnits="userSpaceOnUse">
<stop offset="0.0001" stop-color="#9D50FF"/>
<stop offset="1" stop-color="#583CF0"/>
</linearGradient>
<linearGradient id="paint13_linear" x1="51.5756" y1="30.0951" x2="44.6493" y2="33.1618" gradientUnits="userSpaceOnUse">
<stop offset="0.0001" stop-color="#9D50FF"/>
<stop offset="1" stop-color="#583CF0"/>
</linearGradient>
<linearGradient id="paint14_linear" x1="67.9946" y1="30.0951" x2="61.0683" y2="33.1618" gradientUnits="userSpaceOnUse">
<stop offset="0.0001" stop-color="#9D50FF"/>
<stop offset="1" stop-color="#583CF0"/>
</linearGradient>
<linearGradient id="paint15_linear" x1="83.3871" y1="30.0951" x2="76.4609" y2="33.1618" gradientUnits="userSpaceOnUse">
<stop offset="0.0001" stop-color="#9D50FF"/>
<stop offset="1" stop-color="#583CF0"/>
</linearGradient>
<linearGradient id="paint16_linear" x1="99.8061" y1="30.0951" x2="92.8798" y2="33.1618" gradientUnits="userSpaceOnUse">
<stop offset="0.0001" stop-color="#9D50FF"/>
<stop offset="1" stop-color="#583CF0"/>
</linearGradient>
<linearGradient id="paint17_linear" x1="115.199" y1="30.0951" x2="108.272" y2="33.1618" gradientUnits="userSpaceOnUse">
<stop offset="0.0001" stop-color="#9D50FF"/>
<stop offset="1" stop-color="#583CF0"/>
</linearGradient>
<linearGradient id="paint18_linear" x1="131.618" y1="30.0951" x2="124.691" y2="33.1618" gradientUnits="userSpaceOnUse">
<stop offset="0.0001" stop-color="#9D50FF"/>
<stop offset="1" stop-color="#583CF0"/>
</linearGradient>
<linearGradient id="paint19_linear" x1="4.37152" y1="45.4867" x2="-2.55476" y2="48.5534" gradientUnits="userSpaceOnUse">
<stop offset="0.0001" stop-color="#9D50FF"/>
<stop offset="1" stop-color="#583CF0"/>
</linearGradient>
<linearGradient id="paint20_linear" x1="20.7905" y1="45.4867" x2="13.8642" y2="48.5534" gradientUnits="userSpaceOnUse">
<stop offset="0.0001" stop-color="#9D50FF"/>
<stop offset="1" stop-color="#583CF0"/>
</linearGradient>
<linearGradient id="paint21_linear" x1="36.183" y1="45.4867" x2="29.2568" y2="48.5534" gradientUnits="userSpaceOnUse">
<stop offset="0.0001" stop-color="#9D50FF"/>
<stop offset="1" stop-color="#583CF0"/>
</linearGradient>
<linearGradient id="paint22_linear" x1="51.5756" y1="45.4867" x2="44.6493" y2="48.5534" gradientUnits="userSpaceOnUse">
<stop offset="0.0001" stop-color="#9D50FF"/>
<stop offset="1" stop-color="#583CF0"/>
</linearGradient>
<linearGradient id="paint23_linear" x1="67.9946" y1="45.4867" x2="61.0683" y2="48.5534" gradientUnits="userSpaceOnUse">
<stop offset="0.0001" stop-color="#9D50FF"/>
<stop offset="1" stop-color="#583CF0"/>
</linearGradient>
<linearGradient id="paint24_linear" x1="83.3871" y1="45.4867" x2="76.4609" y2="48.5534" gradientUnits="userSpaceOnUse">
<stop offset="0.0001" stop-color="#9D50FF"/>
<stop offset="1" stop-color="#583CF0"/>
</linearGradient>
<linearGradient id="paint25_linear" x1="99.8061" y1="45.4867" x2="92.8798" y2="48.5534" gradientUnits="userSpaceOnUse">
<stop offset="0.0001" stop-color="#9D50FF"/>
<stop offset="1" stop-color="#583CF0"/>
</linearGradient>
<linearGradient id="paint26_linear" x1="115.199" y1="45.4867" x2="108.272" y2="48.5534" gradientUnits="userSpaceOnUse">
<stop offset="0.0001" stop-color="#9D50FF"/>
<stop offset="1" stop-color="#583CF0"/>
</linearGradient>
<linearGradient id="paint27_linear" x1="131.618" y1="45.4867" x2="124.691" y2="48.5534" gradientUnits="userSpaceOnUse">
<stop offset="0.0001" stop-color="#9D50FF"/>
<stop offset="1" stop-color="#583CF0"/>
</linearGradient>
<linearGradient id="paint28_linear" x1="4.37152" y1="61.9071" x2="-2.55476" y2="64.9738" gradientUnits="userSpaceOnUse">
<stop offset="0.0001" stop-color="#9D50FF"/>
<stop offset="1" stop-color="#583CF0"/>
</linearGradient>
<linearGradient id="paint29_linear" x1="20.7905" y1="61.9071" x2="13.8642" y2="64.9738" gradientUnits="userSpaceOnUse">
<stop offset="0.0001" stop-color="#9D50FF"/>
<stop offset="1" stop-color="#583CF0"/>
</linearGradient>
<linearGradient id="paint30_linear" x1="36.183" y1="61.9071" x2="29.2568" y2="64.9738" gradientUnits="userSpaceOnUse">
<stop offset="0.0001" stop-color="#9D50FF"/>
<stop offset="1" stop-color="#583CF0"/>
</linearGradient>
<linearGradient id="paint31_linear" x1="51.5756" y1="61.9071" x2="44.6493" y2="64.9738" gradientUnits="userSpaceOnUse">
<stop offset="0.0001" stop-color="#9D50FF"/>
<stop offset="1" stop-color="#583CF0"/>
</linearGradient>
<linearGradient id="paint32_linear" x1="67.9946" y1="61.9071" x2="61.0683" y2="64.9738" gradientUnits="userSpaceOnUse">
<stop offset="0.0001" stop-color="#9D50FF"/>
<stop offset="1" stop-color="#583CF0"/>
</linearGradient>
<linearGradient id="paint33_linear" x1="83.3871" y1="61.9071" x2="76.4609" y2="64.9738" gradientUnits="userSpaceOnUse">
<stop offset="0.0001" stop-color="#9D50FF"/>
<stop offset="1" stop-color="#583CF0"/>
</linearGradient>
<linearGradient id="paint34_linear" x1="99.8061" y1="61.9071" x2="92.8798" y2="64.9738" gradientUnits="userSpaceOnUse">
<stop offset="0.0001" stop-color="#9D50FF"/>
<stop offset="1" stop-color="#583CF0"/>
</linearGradient>
<linearGradient id="paint35_linear" x1="115.199" y1="61.9071" x2="108.272" y2="64.9738" gradientUnits="userSpaceOnUse">
<stop offset="0.0001" stop-color="#9D50FF"/>
<stop offset="1" stop-color="#583CF0"/>
</linearGradient>
<linearGradient id="paint36_linear" x1="131.618" y1="61.9071" x2="124.691" y2="64.9738" gradientUnits="userSpaceOnUse">
<stop offset="0.0001" stop-color="#9D50FF"/>
<stop offset="1" stop-color="#583CF0"/>
</linearGradient>
<linearGradient id="paint37_linear" x1="4.37152" y1="77.2988" x2="-2.55476" y2="80.3654" gradientUnits="userSpaceOnUse">
<stop offset="0.0001" stop-color="#9D50FF"/>
<stop offset="1" stop-color="#583CF0"/>
</linearGradient>
<linearGradient id="paint38_linear" x1="20.7905" y1="77.2988" x2="13.8642" y2="80.3654" gradientUnits="userSpaceOnUse">
<stop offset="0.0001" stop-color="#9D50FF"/>
<stop offset="1" stop-color="#583CF0"/>
</linearGradient>
<linearGradient id="paint39_linear" x1="36.183" y1="77.2988" x2="29.2568" y2="80.3654" gradientUnits="userSpaceOnUse">
<stop offset="0.0001" stop-color="#9D50FF"/>
<stop offset="1" stop-color="#583CF0"/>
</linearGradient>
<linearGradient id="paint40_linear" x1="51.5756" y1="77.2988" x2="44.6493" y2="80.3654" gradientUnits="userSpaceOnUse">
<stop offset="0.0001" stop-color="#9D50FF"/>
<stop offset="1" stop-color="#583CF0"/>
</linearGradient>
<linearGradient id="paint41_linear" x1="67.9946" y1="77.2988" x2="61.0683" y2="80.3654" gradientUnits="userSpaceOnUse">
<stop offset="0.0001" stop-color="#9D50FF"/>
<stop offset="1" stop-color="#583CF0"/>
</linearGradient>
<linearGradient id="paint42_linear" x1="83.3871" y1="77.2988" x2="76.4609" y2="80.3654" gradientUnits="userSpaceOnUse">
<stop offset="0.0001" stop-color="#9D50FF"/>
<stop offset="1" stop-color="#583CF0"/>
</linearGradient>
<linearGradient id="paint43_linear" x1="99.8061" y1="77.2988" x2="92.8798" y2="80.3654" gradientUnits="userSpaceOnUse">
<stop offset="0.0001" stop-color="#9D50FF"/>
<stop offset="1" stop-color="#583CF0"/>
</linearGradient>
<linearGradient id="paint44_linear" x1="115.199" y1="77.2988" x2="108.272" y2="80.3654" gradientUnits="userSpaceOnUse">
<stop offset="0.0001" stop-color="#9D50FF"/>
<stop offset="1" stop-color="#583CF0"/>
</linearGradient>
<linearGradient id="paint45_linear" x1="131.618" y1="77.2988" x2="124.691" y2="80.3654" gradientUnits="userSpaceOnUse">
<stop offset="0.0001" stop-color="#9D50FF"/>
<stop offset="1" stop-color="#583CF0"/>
</linearGradient>
<linearGradient id="paint46_linear" x1="4.37152" y1="93.7206" x2="-2.55476" y2="96.7873" gradientUnits="userSpaceOnUse">
<stop offset="0.0001" stop-color="#9D50FF"/>
<stop offset="1" stop-color="#583CF0"/>
</linearGradient>
<linearGradient id="paint47_linear" x1="20.7905" y1="93.7206" x2="13.8642" y2="96.7873" gradientUnits="userSpaceOnUse">
<stop offset="0.0001" stop-color="#9D50FF"/>
<stop offset="1" stop-color="#583CF0"/>
</linearGradient>
<linearGradient id="paint48_linear" x1="36.183" y1="93.7206" x2="29.2568" y2="96.7873" gradientUnits="userSpaceOnUse">
<stop offset="0.0001" stop-color="#9D50FF"/>
<stop offset="1" stop-color="#583CF0"/>
</linearGradient>
<linearGradient id="paint49_linear" x1="51.5756" y1="93.7206" x2="44.6493" y2="96.7873" gradientUnits="userSpaceOnUse">
<stop offset="0.0001" stop-color="#9D50FF"/>
<stop offset="1" stop-color="#583CF0"/>
</linearGradient>
<linearGradient id="paint50_linear" x1="67.9946" y1="93.7206" x2="61.0683" y2="96.7873" gradientUnits="userSpaceOnUse">
<stop offset="0.0001" stop-color="#9D50FF"/>
<stop offset="1" stop-color="#583CF0"/>
</linearGradient>
<linearGradient id="paint51_linear" x1="83.3871" y1="93.7206" x2="76.4609" y2="96.7873" gradientUnits="userSpaceOnUse">
<stop offset="0.0001" stop-color="#9D50FF"/>
<stop offset="1" stop-color="#583CF0"/>
</linearGradient>
<linearGradient id="paint52_linear" x1="99.8061" y1="93.7206" x2="92.8798" y2="96.7873" gradientUnits="userSpaceOnUse">
<stop offset="0.0001" stop-color="#9D50FF"/>
<stop offset="1" stop-color="#583CF0"/>
</linearGradient>
<linearGradient id="paint53_linear" x1="115.199" y1="93.7206" x2="108.272" y2="96.7873" gradientUnits="userSpaceOnUse">
<stop offset="0.0001" stop-color="#9D50FF"/>
<stop offset="1" stop-color="#583CF0"/>
</linearGradient>
<linearGradient id="paint54_linear" x1="131.618" y1="93.7206" x2="124.691" y2="96.7873" gradientUnits="userSpaceOnUse">
<stop offset="0.0001" stop-color="#9D50FF"/>
<stop offset="1" stop-color="#583CF0"/>
</linearGradient>
<linearGradient id="paint55_linear" x1="4.37152" y1="109.111" x2="-2.55476" y2="112.177" gradientUnits="userSpaceOnUse">
<stop offset="0.0001" stop-color="#9D50FF"/>
<stop offset="1" stop-color="#583CF0"/>
</linearGradient>
<linearGradient id="paint56_linear" x1="20.7905" y1="109.111" x2="13.8642" y2="112.177" gradientUnits="userSpaceOnUse">
<stop offset="0.0001" stop-color="#9D50FF"/>
<stop offset="1" stop-color="#583CF0"/>
</linearGradient>
<linearGradient id="paint57_linear" x1="36.183" y1="109.111" x2="29.2568" y2="112.177" gradientUnits="userSpaceOnUse">
<stop offset="0.0001" stop-color="#9D50FF"/>
<stop offset="1" stop-color="#583CF0"/>
</linearGradient>
<linearGradient id="paint58_linear" x1="51.5756" y1="109.111" x2="44.6493" y2="112.177" gradientUnits="userSpaceOnUse">
<stop offset="0.0001" stop-color="#9D50FF"/>
<stop offset="1" stop-color="#583CF0"/>
</linearGradient>
<linearGradient id="paint59_linear" x1="67.9946" y1="109.111" x2="61.0683" y2="112.177" gradientUnits="userSpaceOnUse">
<stop offset="0.0001" stop-color="#9D50FF"/>
<stop offset="1" stop-color="#583CF0"/>
</linearGradient>
<linearGradient id="paint60_linear" x1="83.3871" y1="109.111" x2="76.4609" y2="112.177" gradientUnits="userSpaceOnUse">
<stop offset="0.0001" stop-color="#9D50FF"/>
<stop offset="1" stop-color="#583CF0"/>
</linearGradient>
<linearGradient id="paint61_linear" x1="99.8061" y1="109.111" x2="92.8798" y2="112.177" gradientUnits="userSpaceOnUse">
<stop offset="0.0001" stop-color="#9D50FF"/>
<stop offset="1" stop-color="#583CF0"/>
</linearGradient>
<linearGradient id="paint62_linear" x1="115.199" y1="109.111" x2="108.272" y2="112.177" gradientUnits="userSpaceOnUse">
<stop offset="0.0001" stop-color="#9D50FF"/>
<stop offset="1" stop-color="#583CF0"/>
</linearGradient>
<linearGradient id="paint63_linear" x1="131.618" y1="109.111" x2="124.691" y2="112.177" gradientUnits="userSpaceOnUse">
<stop offset="0.0001" stop-color="#9D50FF"/>
<stop offset="1" stop-color="#583CF0"/>
</linearGradient>
<linearGradient id="paint64_linear" x1="4.37152" y1="124.502" x2="-2.55476" y2="127.569" gradientUnits="userSpaceOnUse">
<stop offset="0.0001" stop-color="#9D50FF"/>
<stop offset="1" stop-color="#583CF0"/>
</linearGradient>
<linearGradient id="paint65_linear" x1="20.7905" y1="124.502" x2="13.8642" y2="127.569" gradientUnits="userSpaceOnUse">
<stop offset="0.0001" stop-color="#9D50FF"/>
<stop offset="1" stop-color="#583CF0"/>
</linearGradient>
<linearGradient id="paint66_linear" x1="36.183" y1="124.502" x2="29.2568" y2="127.569" gradientUnits="userSpaceOnUse">
<stop offset="0.0001" stop-color="#9D50FF"/>
<stop offset="1" stop-color="#583CF0"/>
</linearGradient>
<linearGradient id="paint67_linear" x1="51.5756" y1="124.502" x2="44.6493" y2="127.569" gradientUnits="userSpaceOnUse">
<stop offset="0.0001" stop-color="#9D50FF"/>
<stop offset="1" stop-color="#583CF0"/>
</linearGradient>
<linearGradient id="paint68_linear" x1="67.9946" y1="124.502" x2="61.0683" y2="127.569" gradientUnits="userSpaceOnUse">
<stop offset="0.0001" stop-color="#9D50FF"/>
<stop offset="1" stop-color="#583CF0"/>
</linearGradient>
<linearGradient id="paint69_linear" x1="83.3871" y1="124.502" x2="76.4609" y2="127.569" gradientUnits="userSpaceOnUse">
<stop offset="0.0001" stop-color="#9D50FF"/>
<stop offset="1" stop-color="#583CF0"/>
</linearGradient>
<linearGradient id="paint70_linear" x1="99.8061" y1="124.502" x2="92.8798" y2="127.569" gradientUnits="userSpaceOnUse">
<stop offset="0.0001" stop-color="#9D50FF"/>
<stop offset="1" stop-color="#583CF0"/>
</linearGradient>
<linearGradient id="paint71_linear" x1="115.199" y1="124.502" x2="108.272" y2="127.569" gradientUnits="userSpaceOnUse">
<stop offset="0.0001" stop-color="#9D50FF"/>
<stop offset="1" stop-color="#583CF0"/>
</linearGradient>
<linearGradient id="paint72_linear" x1="131.618" y1="124.502" x2="124.691" y2="127.569" gradientUnits="userSpaceOnUse">
<stop offset="0.0001" stop-color="#9D50FF"/>
<stop offset="1" stop-color="#583CF0"/>
</linearGradient>
<linearGradient id="paint73_linear" x1="4.37152" y1="140.923" x2="-2.55476" y2="143.989" gradientUnits="userSpaceOnUse">
<stop offset="0.0001" stop-color="#9D50FF"/>
<stop offset="1" stop-color="#583CF0"/>
</linearGradient>
<linearGradient id="paint74_linear" x1="20.7905" y1="140.923" x2="13.8642" y2="143.989" gradientUnits="userSpaceOnUse">
<stop offset="0.0001" stop-color="#9D50FF"/>
<stop offset="1" stop-color="#583CF0"/>
</linearGradient>
<linearGradient id="paint75_linear" x1="36.183" y1="140.923" x2="29.2568" y2="143.989" gradientUnits="userSpaceOnUse">
<stop offset="0.0001" stop-color="#9D50FF"/>
<stop offset="1" stop-color="#583CF0"/>
</linearGradient>
<linearGradient id="paint76_linear" x1="51.5756" y1="140.923" x2="44.6493" y2="143.989" gradientUnits="userSpaceOnUse">
<stop offset="0.0001" stop-color="#9D50FF"/>
<stop offset="1" stop-color="#583CF0"/>
</linearGradient>
<linearGradient id="paint77_linear" x1="67.9946" y1="140.923" x2="61.0683" y2="143.989" gradientUnits="userSpaceOnUse">
<stop offset="0.0001" stop-color="#9D50FF"/>
<stop offset="1" stop-color="#583CF0"/>
</linearGradient>
<linearGradient id="paint78_linear" x1="83.3871" y1="140.923" x2="76.4609" y2="143.989" gradientUnits="userSpaceOnUse">
<stop offset="0.0001" stop-color="#9D50FF"/>
<stop offset="1" stop-color="#583CF0"/>
</linearGradient>
<linearGradient id="paint79_linear" x1="99.8061" y1="140.923" x2="92.8798" y2="143.989" gradientUnits="userSpaceOnUse">
<stop offset="0.0001" stop-color="#9D50FF"/>
<stop offset="1" stop-color="#583CF0"/>
</linearGradient>
<linearGradient id="paint80_linear" x1="115.199" y1="140.923" x2="108.272" y2="143.989" gradientUnits="userSpaceOnUse">
<stop offset="0.0001" stop-color="#9D50FF"/>
<stop offset="1" stop-color="#583CF0"/>
</linearGradient>
<linearGradient id="paint81_linear" x1="131.618" y1="140.923" x2="124.691" y2="143.989" gradientUnits="userSpaceOnUse">
<stop offset="0.0001" stop-color="#9D50FF"/>
<stop offset="1" stop-color="#583CF0"/>
</linearGradient>
<linearGradient id="paint82_linear" x1="20.7905" y1="-1.71687" x2="13.8642" y2="1.34976" gradientUnits="userSpaceOnUse">
<stop offset="0.0001" stop-color="#9D50FF"/>
<stop offset="1" stop-color="#583CF0"/>
</linearGradient>
<linearGradient id="paint83_linear" x1="36.183" y1="-1.71687" x2="29.2568" y2="1.34976" gradientUnits="userSpaceOnUse">
<stop offset="0.0001" stop-color="#9D50FF"/>
<stop offset="1" stop-color="#583CF0"/>
</linearGradient>
<linearGradient id="paint84_linear" x1="51.5756" y1="-1.71687" x2="44.6493" y2="1.34976" gradientUnits="userSpaceOnUse">
<stop offset="0.0001" stop-color="#9D50FF"/>
<stop offset="1" stop-color="#583CF0"/>
</linearGradient>
<linearGradient id="paint85_linear" x1="67.9946" y1="-1.71687" x2="61.0683" y2="1.34976" gradientUnits="userSpaceOnUse">
<stop offset="0.0001" stop-color="#9D50FF"/>
<stop offset="1" stop-color="#583CF0"/>
</linearGradient>
<linearGradient id="paint86_linear" x1="83.3871" y1="-1.71687" x2="76.4609" y2="1.34976" gradientUnits="userSpaceOnUse">
<stop offset="0.0001" stop-color="#9D50FF"/>
<stop offset="1" stop-color="#583CF0"/>
</linearGradient>
<linearGradient id="paint87_linear" x1="99.8061" y1="-1.71687" x2="92.8798" y2="1.34976" gradientUnits="userSpaceOnUse">
<stop offset="0.0001" stop-color="#9D50FF"/>
<stop offset="1" stop-color="#583CF0"/>
</linearGradient>
<linearGradient id="paint88_linear" x1="115.199" y1="-1.71687" x2="108.272" y2="1.34976" gradientUnits="userSpaceOnUse">
<stop offset="0.0001" stop-color="#9D50FF"/>
<stop offset="1" stop-color="#583CF0"/>
</linearGradient>
<linearGradient id="paint89_linear" x1="131.618" y1="-1.71687" x2="124.691" y2="1.34976" gradientUnits="userSpaceOnUse">
<stop offset="0.0001" stop-color="#9D50FF"/>
<stop offset="1" stop-color="#583CF0"/>
</linearGradient>
</defs>
</svg>
