<svg width="156" height="24" viewBox="0 0 156 24" fill="none" xmlns="http://www.w3.org/2000/svg">
<path d="M6.67783 0.487901C6.66677 0.487901 6.65571 0.476751 6.64466 0.476751C4.35612 -0.604864 1.72485 0.209135 0.586112 2.36121C-0.618964 4.6471 0.110715 7.37902 2.2887 8.70595C2.73093 8.97356 4.26767 9.83217 6.00343 10.78C6.3351 10.9584 6.72205 11.3041 6.72205 11.8727C6.72205 12.3188 6.57833 12.6979 5.84865 13.0993C3.81439 14.2367 2.60931 14.9169 2.2887 15.1064C2.27764 15.1176 2.25553 15.1287 2.24447 15.1399C2.22236 15.151 2.21131 15.1622 2.18919 15.1733C2.18919 15.1733 2.1892 15.1733 2.17814 15.1733C2.15603 15.1845 2.14497 15.1956 2.13392 15.2068C0.398164 16.3776 -0.696354 18.7862 0.508722 21.3062C1.01729 22.3767 1.96808 23.1795 3.1621 23.5698C4.36718 23.9601 5.64964 23.8709 6.65572 23.3245C6.88789 23.2018 7.21956 23.0234 7.60651 22.8116C9.07692 22.0199 11.5424 20.6818 13.6208 19.4998C14.9365 18.7527 15.9315 18.1729 16.5838 17.7603C18.817 16.3553 20 14.3259 20 11.895C20 8.60559 17.5456 6.63192 16.4953 5.94058C14.7596 4.79206 8.2588 1.31305 6.77733 0.543653C6.77733 0.543653 6.77733 0.543653 6.76627 0.543653C6.74416 0.532503 6.71099 0.521354 6.68888 0.510204C6.68888 0.487901 6.68888 0.487901 6.67783 0.487901ZM6.67783 14.5935C7.76129 13.9914 8.33619 13.1551 8.41358 12.1069C9.46387 12.6867 10.3152 13.1662 10.5694 13.3223C10.9232 13.5342 11.1222 13.813 11.1222 14.0694C11.1222 14.337 10.9011 14.627 10.5142 14.8611C9.11009 15.7197 5.36219 17.8272 4.40034 18.3178C4.13501 18.4516 3.88072 18.5185 3.64855 18.5185C3.27266 18.5185 2.95204 18.3401 2.76409 17.9945C2.73093 17.9387 2.69776 17.8718 2.67565 17.7937C2.66459 17.7714 2.66459 17.7491 2.65354 17.7268L2.65354 17.7157C2.64248 17.6934 2.64248 17.6711 2.63142 17.6488L2.63142 17.6376C2.63142 17.6153 2.62037 17.593 2.62037 17.5707L2.62037 17.5596C2.62037 17.5373 2.62037 17.515 2.62037 17.4927L2.62037 17.4815C2.62037 17.3589 2.64248 17.2362 2.69776 17.1136C2.70882 17.0801 2.73093 17.0578 2.75304 17.0244C2.78621 16.9686 2.84148 16.9017 2.89676 16.8459C2.92993 16.8125 2.9631 16.7902 2.99626 16.7567C2.99626 16.7567 3.00732 16.7567 3.00732 16.7456C3.04049 16.7121 3.08471 16.6898 3.11788 16.6675C3.11788 16.6675 3.12893 16.6675 3.12893 16.6564C3.15104 16.6452 3.1621 16.6341 3.18421 16.6229C3.39427 16.4445 4.17923 15.9873 6.67783 14.5935ZM5.8597 21.808C5.26269 22.1314 4.44457 22.176 3.69278 21.9306C2.94099 21.6853 2.34398 21.1947 2.04547 20.548C1.85752 20.1465 1.74697 19.7563 1.7138 19.3883C1.75802 19.444 1.8133 19.4887 1.86858 19.5333C1.87963 19.5333 1.87963 19.5444 1.89069 19.5444C1.94597 19.589 1.99019 19.6336 2.04547 19.6782C2.05653 19.6894 2.05653 19.6894 2.06758 19.7005C2.12286 19.7451 2.17814 19.7786 2.23342 19.812C2.2887 19.8455 2.34398 19.8789 2.41031 19.9124C2.42137 19.9124 2.42137 19.9235 2.43242 19.9235C2.4877 19.957 2.55403 19.9793 2.60931 20.0016C2.62037 20.0016 2.63142 20.0127 2.64248 20.0127C2.70882 20.035 2.76409 20.0573 2.83043 20.0796C2.84148 20.0796 2.84148 20.0796 2.85254 20.0796C2.91887 20.1019 2.97415 20.1131 3.04049 20.1242C3.05154 20.1242 3.05154 20.1242 3.0626 20.1354C3.12893 20.1465 3.19527 20.1577 3.2616 20.1688C3.27266 20.1688 3.28371 20.1688 3.30583 20.1688C3.37216 20.18 3.43849 20.18 3.50483 20.1911C3.51588 20.1911 3.52694 20.1911 3.538 20.1911C3.60433 20.1911 3.67067 20.1911 3.72594 20.1911C3.737 20.1911 3.737 20.1911 3.74806 20.1911C3.81439 20.1911 3.88072 20.18 3.94706 20.18C3.95811 20.18 3.98023 20.18 3.99128 20.18C4.05762 20.1688 4.12395 20.1577 4.19029 20.1465C4.20134 20.1465 4.2124 20.1465 4.23451 20.1354C4.30084 20.1242 4.36718 20.1131 4.43351 20.0908C4.44457 20.0908 4.44457 20.0908 4.45562 20.0908C4.52196 20.0685 4.59935 20.0462 4.66568 20.0239C4.67674 20.0239 4.69885 20.0127 4.7099 20.0127C4.77624 19.9904 4.84257 19.9681 4.90891 19.9347C4.91996 19.9235 4.94208 19.9235 4.95313 19.9124C5.01947 19.8789 5.0858 19.8566 5.15213 19.8232C5.15213 19.8232 5.16319 19.8232 5.16319 19.812C6.1361 19.3102 9.96138 17.1582 11.3876 16.2884C12.2941 15.7309 12.8138 14.9169 12.8138 14.036C12.8138 13.1662 12.3163 12.3634 11.4429 11.8281C11.0227 11.5717 9.27593 10.6127 7.42962 9.58685C5.5612 8.56099 3.62644 7.49052 3.1621 7.21176C1.74696 6.342 1.29368 4.6248 2.07864 3.13061C2.2887 2.74034 2.57615 2.41697 2.91887 2.1828L2.91887 2.19395C2.89676 2.24971 2.88571 2.31661 2.87465 2.37237C2.87465 2.38352 2.86359 2.39467 2.86359 2.41697C2.85254 2.47272 2.84148 2.53963 2.83043 2.60653C2.83043 2.61768 2.83043 2.63998 2.83043 2.65113C2.81937 2.71804 2.81937 2.77379 2.81937 2.84069C2.81937 2.85184 2.81937 2.87415 2.81937 2.8853C2.81937 2.94105 2.81937 3.00795 2.81937 3.06371C2.81937 3.07486 2.81937 3.08601 2.81937 3.08601C2.81937 3.14176 2.83043 3.20867 2.83043 3.26442C2.83043 3.27557 2.83043 3.29787 2.83043 3.30902C2.84148 3.36477 2.85254 3.43168 2.86359 3.48743C2.86359 3.49858 2.87465 3.52089 2.87465 3.53204C2.88571 3.58779 2.90782 3.65469 2.91887 3.71045C2.91887 3.7216 2.92993 3.73275 2.92993 3.75505C2.95204 3.8108 2.9631 3.86656 2.98521 3.93346C2.98521 3.94461 2.99626 3.94461 2.99626 3.95576C3.01838 4.01151 3.04049 4.06727 3.07365 4.12302C3.08471 4.13417 3.08471 4.14532 3.09577 4.15647C3.11788 4.21223 3.15104 4.26798 3.18421 4.32373C3.19527 4.33488 3.19527 4.34603 3.20632 4.36834C3.23949 4.42409 3.27266 4.47984 3.30582 4.52445C3.31688 4.5356 3.31688 4.54675 3.32794 4.5579C3.3611 4.61365 3.40533 4.65825 3.43849 4.71401L3.44955 4.72516C3.49377 4.78091 3.538 4.82551 3.58222 4.87012C3.59327 4.88127 3.60433 4.89242 3.60433 4.90357C3.64855 4.94817 3.69278 4.99277 3.74805 5.03738C3.75911 5.04853 3.77017 5.05968 3.78122 5.07083C3.82545 5.11543 3.88072 5.16003 3.936 5.19349C3.94706 5.20464 3.95811 5.20464 3.96917 5.21579C4.02445 5.26039 4.07973 5.29384 4.13501 5.33844C4.13501 5.33844 4.13501 5.33844 4.14606 5.33844C4.55512 5.59491 5.69387 6.2082 7.13111 6.97759C9.12115 8.04806 11.6087 9.37499 12.9464 10.2224C14.5163 11.2037 15.1797 12.3299 15.1797 13.9802C15.1797 14.1029 15.1686 14.2255 15.1576 14.337C15.0249 15.7643 14.0962 17.2028 12.8027 17.9499C12.8027 17.9499 12.7917 17.9499 12.7917 17.961C10.7353 19.1764 8.28091 20.5034 6.82155 21.2951C6.42355 21.5069 6.09187 21.6853 5.8597 21.808ZM15.5666 7.36787C16.3958 7.91425 18.3085 9.44189 18.3085 11.895C18.3085 13.3781 17.7667 14.5935 16.6501 15.5859C16.7054 15.3964 16.7496 15.2068 16.7828 15.0061C16.7828 14.9949 16.7828 14.9838 16.7938 14.9726C16.8049 14.9169 16.8159 14.8723 16.8159 14.8165C16.8159 14.7942 16.827 14.7608 16.827 14.7385C16.827 14.6939 16.8381 14.6604 16.8381 14.6158C16.8381 14.5712 16.8491 14.5266 16.8491 14.482C16.8491 14.4597 16.8491 14.4374 16.8602 14.4151C16.8712 14.2813 16.8712 14.1475 16.8712 14.0137C16.8712 11.7835 15.8762 10.0775 13.8309 8.79515C12.4379 7.9254 9.92822 6.57617 7.91607 5.49455C6.62255 4.80321 5.40642 4.14532 5.05263 3.92231C4.49985 3.56549 4.38929 2.91875 4.6104 2.49502C4.64357 2.42812 4.68779 2.36121 4.73202 2.30546L4.74307 2.29431C4.76518 2.27201 4.78729 2.24971 4.80941 2.22741C4.82046 2.21626 4.82046 2.21626 4.83152 2.20511C4.85363 2.1828 4.86469 2.17165 4.8868 2.14935C4.89785 2.1382 4.90891 2.1382 4.90891 2.12705C4.93102 2.1159 4.94208 2.0936 4.96419 2.08245C4.97524 2.0713 4.9863 2.0713 4.99735 2.06015C5.01947 2.049 5.03052 2.03785 5.05263 2.0267C5.06369 2.01554 5.07474 2.01554 5.0858 2.01554C5.10791 2.00439 5.11897 1.99324 5.14108 1.99324C5.15213 1.99324 5.16319 1.98209 5.17425 1.98209C5.19636 1.97094 5.20741 1.97094 5.22952 1.95979C5.24058 1.95979 5.25164 1.94864 5.27375 1.94864C5.29586 1.94864 5.30691 1.93749 5.32903 1.93749C5.34008 1.93749 5.36219 1.93749 5.37325 1.92634C5.39536 1.92634 5.40642 1.92634 5.42853 1.91519C5.43958 1.91519 5.46169 1.91519 5.47275 1.91519C5.49486 1.91519 5.50592 1.91519 5.52803 1.91519C5.53909 1.91519 5.5612 1.91519 5.57225 1.91519C5.59436 1.91519 5.60542 1.91519 5.62753 1.91519C5.63859 1.91519 5.6607 1.91519 5.67175 1.91519C5.68281 1.91519 5.70492 1.91519 5.71598 1.92634C5.72703 1.92634 5.74914 1.93749 5.7602 1.93749C5.77126 1.93749 5.79337 1.94864 5.80442 1.94864C5.81548 1.94864 5.83759 1.95979 5.84865 1.95979C5.8597 1.95979 5.88181 1.97094 5.89287 1.97094C5.90392 1.97094 5.92604 1.98209 5.93709 1.99324C5.9592 2.00439 5.97026 2.00439 5.99237 2.01554C5.99237 2.01554 6.00343 2.01554 6.00343 2.02669C7.44067 2.79609 13.9083 6.2751 15.5666 7.36787Z" fill="#040921" fill-opacity="0.16"/>
<path d="M55.3217 8.58261C55.3217 8.57156 55.3328 8.5605 55.3328 8.54945C56.4144 6.26091 55.6004 3.62964 53.4484 2.4909C51.1625 1.28582 48.4306 2.0155 47.1036 4.19348C46.836 4.63571 45.9774 6.17246 45.0296 7.90821C44.8512 8.23988 44.5055 8.62684 43.9368 8.62684C43.4908 8.62684 43.1117 8.48311 42.7103 7.75343C41.5729 5.71918 40.8927 4.5141 40.7031 4.19348C40.692 4.18243 40.6808 4.16031 40.6697 4.14926C40.6585 4.12715 40.6474 4.11609 40.6362 4.09398C40.6362 4.09398 40.6362 4.09398 40.6362 4.08292C40.6251 4.06081 40.6139 4.04976 40.6028 4.0387C39.432 2.30295 37.0234 1.20843 34.5034 2.41351C33.4329 2.92207 32.63 3.87287 32.2398 5.06689C31.8495 6.27196 31.9387 7.55443 32.4851 8.5605C32.6077 8.79267 32.7862 9.12434 32.998 9.5113C33.7897 10.9817 35.1278 13.4471 36.3098 15.5256C37.0569 16.8413 37.6367 17.8363 38.0493 18.4886C39.4543 20.7218 41.4837 21.9048 43.9145 21.9048C47.204 21.9048 49.1776 19.4504 49.869 18.4001C51.0175 16.6644 54.4965 10.1636 55.2659 8.68211C55.2659 8.68211 55.2659 8.68211 55.2659 8.67106C55.2771 8.64895 55.2882 8.61578 55.2994 8.59367C55.3217 8.59367 55.3217 8.59367 55.3217 8.58261ZM41.2161 8.58261C41.8182 9.66608 42.6545 10.241 43.7027 10.3184C43.1228 11.3687 42.6434 12.22 42.4872 12.4742C42.2754 12.828 41.9966 13.027 41.7401 13.027C41.4725 13.027 41.1826 12.8059 40.9485 12.419C40.0898 11.0149 37.9824 7.26698 37.4917 6.30513C37.3579 6.03979 37.291 5.78551 37.291 5.55334C37.291 5.17744 37.4694 4.85683 37.8151 4.66888C37.8709 4.63571 37.9378 4.60254 38.0158 4.58043C38.0381 4.56938 38.0604 4.56938 38.0827 4.55832H38.0939C38.1162 4.54727 38.1385 4.54727 38.1608 4.53621H38.1719C38.1942 4.53621 38.2165 4.52515 38.2388 4.52515H38.25C38.2723 4.52515 38.2946 4.52515 38.3169 4.52515H38.328C38.4507 4.52515 38.5734 4.54727 38.696 4.60254C38.7295 4.6136 38.7518 4.63571 38.7852 4.65782C38.841 4.69099 38.9079 4.74627 38.9636 4.80155C38.9971 4.83472 39.0194 4.86788 39.0528 4.90105C39.0528 4.90105 39.0528 4.91211 39.064 4.91211C39.0974 4.94527 39.1197 4.9895 39.142 5.02266C39.142 5.02266 39.142 5.03372 39.1532 5.03372C39.1643 5.05583 39.1755 5.06689 39.1866 5.089C39.3651 5.29906 39.8222 6.08401 41.2161 8.58261ZM34.0016 7.76449C33.6782 7.16748 33.6336 6.34935 33.8789 5.59756C34.1242 4.84577 34.6149 4.24876 35.2616 3.95026C35.663 3.76231 36.0533 3.65175 36.4213 3.61858C36.3655 3.66281 36.3209 3.71809 36.2763 3.77336C36.2763 3.78442 36.2652 3.78442 36.2652 3.79548C36.2206 3.85075 36.176 3.89498 36.1314 3.95026C36.1202 3.96131 36.1202 3.96131 36.1091 3.97237C36.0645 4.02765 36.031 4.08292 35.9976 4.1382C35.9641 4.19348 35.9306 4.24876 35.8972 4.3151C35.8972 4.32615 35.886 4.32615 35.886 4.33721C35.8526 4.39249 35.8303 4.45882 35.808 4.5141C35.808 4.52515 35.7968 4.53621 35.7968 4.54727C35.7745 4.6136 35.7522 4.66888 35.7299 4.73521C35.7299 4.74627 35.7299 4.74627 35.7299 4.75733C35.7076 4.82366 35.6965 4.87894 35.6853 4.94527C35.6853 4.95633 35.6853 4.95633 35.6742 4.96738C35.663 5.03372 35.6519 5.10005 35.6407 5.16639C35.6407 5.17744 35.6407 5.1885 35.6407 5.21061C35.6296 5.27695 35.6296 5.34328 35.6184 5.40961C35.6184 5.42067 35.6184 5.43173 35.6184 5.44278C35.6184 5.50912 35.6184 5.57545 35.6184 5.63073C35.6184 5.64178 35.6184 5.64179 35.6184 5.65284C35.6184 5.71918 35.6296 5.78551 35.6296 5.85184C35.6296 5.8629 35.6296 5.88501 35.6296 5.89607C35.6407 5.9624 35.6519 6.02874 35.663 6.09507C35.663 6.10613 35.663 6.11718 35.6742 6.13929C35.6853 6.20563 35.6965 6.27196 35.7188 6.3383C35.7188 6.34935 35.7188 6.34935 35.7188 6.36041C35.7411 6.42674 35.7634 6.50413 35.7857 6.57047C35.7857 6.58152 35.7968 6.60363 35.7968 6.61469C35.8191 6.68102 35.8414 6.74736 35.8749 6.81369C35.886 6.82475 35.886 6.84686 35.8972 6.85792C35.9306 6.92425 35.9529 6.99059 35.9864 7.05692C35.9864 7.05692 35.9864 7.06798 35.9976 7.06798C36.4993 8.04088 38.6514 11.8662 39.5212 13.2924C40.0787 14.1989 40.8927 14.7186 41.7736 14.7186C42.6434 14.7186 43.4462 14.221 43.9814 13.3476C44.2379 12.9275 45.1969 11.1807 46.2227 9.3344C47.2486 7.46598 48.319 5.53123 48.5978 5.06689C49.4676 3.65175 51.1848 3.19847 52.679 3.98342C53.0692 4.19348 53.3926 4.48093 53.6268 4.82366H53.6156C53.5599 4.80155 53.493 4.79049 53.4372 4.77944C53.4261 4.77944 53.4149 4.76838 53.3926 4.76838C53.3369 4.75733 53.2699 4.74627 53.203 4.73521C53.1919 4.73521 53.1696 4.73521 53.1584 4.73521C53.0915 4.72416 53.0358 4.72416 52.9689 4.72416C52.9577 4.72416 52.9354 4.72416 52.9243 4.72416C52.8685 4.72416 52.8016 4.72416 52.7459 4.72416C52.7347 4.72416 52.7236 4.72416 52.7236 4.72416C52.6678 4.72416 52.6009 4.73521 52.5452 4.73521C52.534 4.73521 52.5117 4.73521 52.5005 4.73521C52.4448 4.74627 52.3779 4.75733 52.3221 4.76838C52.311 4.76838 52.2887 4.77944 52.2775 4.77944C52.2218 4.79049 52.1549 4.8126 52.0991 4.82366C52.088 4.82366 52.0768 4.83472 52.0545 4.83472C51.9988 4.85683 51.943 4.86788 51.8761 4.88999C51.865 4.88999 51.865 4.90105 51.8538 4.90105C51.7981 4.92316 51.7423 4.94527 51.6866 4.97844C51.6754 4.9895 51.6642 4.9895 51.6531 5.00055C51.5973 5.02266 51.5416 5.05583 51.4858 5.089C51.4747 5.10005 51.4635 5.10005 51.4412 5.11111C51.3855 5.14428 51.3297 5.17744 51.2851 5.21061C51.274 5.22167 51.2628 5.22167 51.2517 5.23272C51.1959 5.26589 51.1513 5.31011 51.0956 5.34328L51.0844 5.35434C51.0287 5.39856 50.9841 5.44278 50.9395 5.487C50.9283 5.49806 50.9172 5.50912 50.906 5.50912C50.8614 5.55334 50.8168 5.59756 50.7722 5.65284C50.761 5.6639 50.7499 5.67495 50.7387 5.68601C50.6941 5.73023 50.6495 5.78551 50.6161 5.84079C50.6049 5.85184 50.6049 5.8629 50.5938 5.87396C50.5492 5.92923 50.5157 5.98451 50.4711 6.03979C50.4711 6.03979 50.4711 6.03979 50.4711 6.05085C50.2147 6.45991 49.6014 7.59865 48.832 9.0359C47.7615 11.0259 46.4346 13.5135 45.5871 14.8512C44.6059 16.4211 43.4797 17.0845 41.8294 17.0845C41.7067 17.0845 41.584 17.0734 41.4725 17.0624C40.0452 16.9297 38.6068 16.001 37.8597 14.7075C37.8597 14.7075 37.8597 14.6964 37.8486 14.6964C36.6331 12.6401 35.3062 10.1857 34.5145 8.72634C34.3026 8.32833 34.1242 7.99666 34.0016 7.76449ZM48.4417 17.4714C47.8953 18.3006 46.3677 20.2133 43.9145 20.2133C42.4315 20.2133 41.2161 19.6715 40.2237 18.5549C40.4132 18.6102 40.6028 18.6544 40.8035 18.6876C40.8146 18.6876 40.8258 18.6876 40.8369 18.6986C40.8927 18.7097 40.9373 18.7207 40.9931 18.7207C41.0154 18.7207 41.0488 18.7318 41.0711 18.7318C41.1157 18.7318 41.1492 18.7428 41.1938 18.7428C41.2384 18.7428 41.283 18.7539 41.3276 18.7539C41.3499 18.7539 41.3722 18.7539 41.3945 18.765C41.5283 18.776 41.6621 18.776 41.7959 18.776C44.026 18.776 45.7321 17.781 47.0144 15.7357C47.8842 14.3427 49.2334 11.833 50.315 9.82086C51.0064 8.52733 51.6642 7.3112 51.8873 6.95742C52.2441 6.40463 52.8908 6.29407 53.3145 6.51519C53.3815 6.54836 53.4484 6.59258 53.5041 6.6368L53.5153 6.64786C53.5376 6.66997 53.5599 6.69208 53.5822 6.71419C53.5933 6.72525 53.5933 6.72525 53.6045 6.7363C53.6268 6.75842 53.6379 6.76947 53.6602 6.79158C53.6714 6.80264 53.6714 6.81369 53.6825 6.81369C53.6937 6.83581 53.716 6.84686 53.7271 6.86897C53.7383 6.88003 53.7383 6.89108 53.7494 6.90214C53.7606 6.92425 53.7717 6.93531 53.7829 6.95742C53.794 6.96847 53.794 6.97953 53.794 6.99059C53.8052 7.0127 53.8163 7.02375 53.8163 7.04586C53.8163 7.05692 53.8275 7.06798 53.8275 7.07903C53.8386 7.10114 53.8386 7.1122 53.8498 7.13431C53.8498 7.14537 53.8609 7.15642 53.8609 7.17853C53.8609 7.20064 53.8721 7.2117 53.8721 7.23381C53.8721 7.24487 53.8721 7.26698 53.8832 7.27804C53.8832 7.30015 53.8832 7.3112 53.8944 7.33331C53.8944 7.34437 53.8944 7.36648 53.8944 7.37754C53.8944 7.39965 53.8944 7.4107 53.8944 7.43282C53.8944 7.44387 53.8944 7.46598 53.8944 7.47704C53.8944 7.49915 53.8944 7.51021 53.8944 7.53232C53.8944 7.54337 53.8944 7.56548 53.8944 7.57654C53.8944 7.5876 53.8944 7.60971 53.8832 7.62076C53.8832 7.63182 53.8721 7.65393 53.8721 7.66499C53.8721 7.67604 53.8609 7.69815 53.8609 7.70921C53.8609 7.72026 53.8498 7.74238 53.8498 7.75343C53.8498 7.76449 53.8386 7.7866 53.8386 7.79766C53.8386 7.80871 53.8275 7.83082 53.8163 7.84188C53.8052 7.86399 53.8052 7.87505 53.794 7.89716C53.794 7.89716 53.794 7.90821 53.7829 7.90821C53.0135 9.34546 49.5345 15.8131 48.4417 17.4714Z" fill="#040921" fill-opacity="0.16"/>
<path d="M81.1317 23.3217C81.1428 23.3217 81.1539 23.3328 81.1649 23.3328C83.4534 24.4144 86.0847 23.6004 87.2235 21.4484C88.4285 19.1625 87.6989 16.4306 85.5209 15.1036C85.0786 14.836 83.5419 13.9774 81.8061 13.0296C81.4745 12.8512 81.0875 12.5055 81.0875 11.9368C81.0875 11.4908 81.2312 11.1117 81.9609 10.7103C83.9952 9.57289 85.2003 8.8927 85.5209 8.70314C85.5319 8.69198 85.554 8.68083 85.5651 8.66968C85.5872 8.65853 85.5983 8.64738 85.6204 8.63623C85.6204 8.63623 85.6204 8.63623 85.6314 8.63623C85.6535 8.62508 85.6646 8.61393 85.6757 8.60278C87.4114 7.43196 88.5059 5.02341 87.3008 2.50336C86.7923 1.4329 85.8415 0.630047 84.6475 0.239773C83.4424 -0.1505 82.1599 -0.061295 81.1539 0.485088C80.9217 0.607745 80.59 0.786156 80.2031 0.998019C78.7326 1.78972 76.2672 3.1278 74.1887 4.30977C72.8731 5.05686 71.8781 5.6367 71.2258 6.04927C68.9925 7.45426 67.8096 9.48368 67.8096 11.9145C67.8096 15.204 70.2639 17.1776 71.3142 17.869C73.05 19.0175 79.5508 22.4965 81.0322 23.2659C81.0322 23.2659 81.0322 23.2659 81.0433 23.2659C81.0654 23.2771 81.0986 23.2882 81.1207 23.2994C81.1207 23.3217 81.1207 23.3217 81.1317 23.3217ZM81.1317 9.21607C80.0483 9.8182 79.4734 10.6545 79.396 11.7027C78.3457 11.1228 77.4944 10.6434 77.2401 10.4872C76.8863 10.2754 76.6873 9.99661 76.6873 9.74015C76.6873 9.47253 76.9084 9.18261 77.2954 8.94845C78.6995 8.08985 82.4474 5.98237 83.4092 5.49174C83.6746 5.35793 83.9288 5.29103 84.161 5.29103C84.5369 5.29103 84.8575 5.46944 85.0455 5.81511C85.0786 5.87086 85.1118 5.93777 85.1339 6.01582C85.145 6.03812 85.145 6.06043 85.156 6.08273L85.156 6.09388C85.1671 6.11618 85.1671 6.13848 85.1781 6.16078L85.1781 6.17193C85.1781 6.19423 85.1892 6.21653 85.1892 6.23884L85.1892 6.24999C85.1892 6.27229 85.1892 6.29459 85.1892 6.31689L85.1892 6.32804C85.1892 6.4507 85.1671 6.57336 85.1118 6.69601C85.1008 6.72947 85.0786 6.75177 85.0565 6.78522C85.0234 6.84097 84.9681 6.90788 84.9128 6.96363C84.8796 6.99708 84.8465 7.01938 84.8133 7.05283C84.8133 7.05283 84.8022 7.05283 84.8022 7.06399C84.7691 7.09744 84.7249 7.11974 84.6917 7.14204C84.6917 7.14204 84.6806 7.14204 84.6806 7.15319C84.6585 7.16434 84.6475 7.17549 84.6254 7.18664C84.4153 7.36505 83.6303 7.82223 81.1317 9.21607ZM81.9499 2.00158C82.5469 1.67821 83.365 1.63361 84.1168 1.87892C84.8686 2.12424 85.4656 2.61487 85.7641 3.26161C85.952 3.66303 86.0626 4.0533 86.0958 4.42128C86.0515 4.36552 85.9963 4.32092 85.941 4.27632C85.9299 4.27632 85.9299 4.26517 85.9189 4.26517C85.8636 4.22056 85.8194 4.17596 85.7641 4.13136C85.753 4.12021 85.753 4.12021 85.742 4.10906C85.6867 4.06445 85.6314 4.031 85.5762 3.99755C85.5209 3.9641 85.4656 3.93065 85.3993 3.89719C85.3882 3.89719 85.3882 3.88604 85.3771 3.88604C85.3219 3.85259 85.2555 3.83029 85.2003 3.80799C85.1892 3.80799 85.1781 3.79684 85.1671 3.79684C85.1008 3.77454 85.0455 3.75224 84.9791 3.72993C84.9681 3.72993 84.9681 3.72993 84.957 3.72993C84.8907 3.70763 84.8354 3.69648 84.7691 3.68533C84.758 3.68533 84.758 3.68533 84.747 3.67418C84.6806 3.66303 84.6143 3.65188 84.548 3.64073C84.5369 3.64073 84.5259 3.64073 84.5037 3.64073C84.4374 3.62958 84.3711 3.62958 84.3047 3.61843C84.2937 3.61843 84.2826 3.61843 84.2716 3.61843C84.2052 3.61843 84.1389 3.61843 84.0836 3.61843C84.0726 3.61843 84.0726 3.61843 84.0615 3.61843C83.9952 3.61843 83.9288 3.62958 83.8625 3.62958C83.8515 3.62958 83.8293 3.62958 83.8183 3.62958C83.752 3.64073 83.6856 3.65188 83.6193 3.66303C83.6082 3.66303 83.5972 3.66303 83.5751 3.67418C83.5087 3.68533 83.4424 3.69648 83.3761 3.71878C83.365 3.71878 83.365 3.71878 83.3539 3.71878C83.2876 3.74108 83.2102 3.76339 83.1439 3.78569C83.1328 3.78569 83.1107 3.79684 83.0997 3.79684C83.0333 3.81914 82.967 3.84144 82.9007 3.87489C82.8896 3.88604 82.8675 3.88604 82.8564 3.89719C82.7901 3.93065 82.7238 3.95295 82.6574 3.9864C82.6574 3.9864 82.6464 3.9864 82.6464 3.99755C81.6735 4.49933 77.8482 6.65141 76.422 7.52116C75.5154 8.0787 74.9958 8.8927 74.9958 9.7736C74.9958 10.6434 75.4933 11.4462 76.3667 11.9814C76.7868 12.2379 78.5336 13.1969 80.38 14.2227C82.2484 15.2486 84.1831 16.319 84.6475 16.5978C86.0626 17.4676 86.5159 19.1848 85.7309 20.679C85.5209 21.0692 85.2334 21.3926 84.8907 21.6268L84.8907 21.6156C84.9128 21.5599 84.9239 21.493 84.9349 21.4372C84.9349 21.4261 84.946 21.4149 84.946 21.3926C84.957 21.3368 84.9681 21.2699 84.9791 21.203C84.9791 21.1919 84.9791 21.1696 84.9791 21.1584C84.9902 21.0915 84.9902 21.0358 84.9902 20.9689C84.9902 20.9577 84.9902 20.9354 84.9902 20.9243C84.9902 20.8685 84.9902 20.8016 84.9902 20.7459C84.9902 20.7347 84.9902 20.7236 84.9902 20.7236C84.9902 20.6678 84.9791 20.6009 84.9791 20.5452C84.9791 20.534 84.9791 20.5117 84.9791 20.5005C84.9681 20.4448 84.957 20.3779 84.946 20.3221C84.946 20.311 84.9349 20.2887 84.9349 20.2775C84.9239 20.2218 84.9018 20.1549 84.8907 20.0991C84.8907 20.088 84.8796 20.0768 84.8796 20.0545C84.8575 19.9988 84.8465 19.943 84.8244 19.8761C84.8244 19.865 84.8133 19.865 84.8133 19.8538C84.7912 19.7981 84.7691 19.7423 84.7359 19.6865C84.7249 19.6754 84.7249 19.6642 84.7138 19.6531C84.6917 19.5973 84.6585 19.5416 84.6254 19.4858C84.6143 19.4747 84.6143 19.4635 84.6032 19.4412C84.5701 19.3855 84.5369 19.3297 84.5037 19.2851C84.4927 19.274 84.4927 19.2628 84.4816 19.2517C84.4485 19.1959 84.4042 19.1513 84.3711 19.0956L84.36 19.0844C84.3158 19.0287 84.2716 18.9841 84.2273 18.9395C84.2163 18.9283 84.2052 18.9172 84.2052 18.906C84.161 18.8614 84.1168 18.8168 84.0615 18.7722C84.0505 18.761 84.0394 18.7499 84.0283 18.7387C83.9841 18.6941 83.9288 18.6495 83.8736 18.6161C83.8625 18.6049 83.8515 18.6049 83.8404 18.5938C83.7851 18.5492 83.7298 18.5157 83.6746 18.4711C83.6746 18.4711 83.6746 18.4711 83.6635 18.4711C83.2544 18.2147 82.1157 17.6014 80.6785 16.832C78.6884 15.7615 76.2009 14.4346 74.8631 13.5871C73.2932 12.6059 72.6299 11.4797 72.6299 9.82935C72.6299 9.70669 72.6409 9.58404 72.652 9.47253C72.7847 8.04525 73.7133 6.60681 75.0069 5.85971C75.0069 5.85971 75.0179 5.85971 75.0179 5.84856C77.0743 4.63314 79.5287 3.30621 80.988 2.51451C81.386 2.30265 81.7177 2.12424 81.9499 2.00158ZM72.2429 16.4417C71.4137 15.8953 69.5011 14.3677 69.5011 11.9145C69.5011 10.4315 70.0428 9.21606 71.1595 8.22365C71.1042 8.41322 71.06 8.60278 71.0268 8.80349C71.0268 8.81464 71.0268 8.82579 71.0157 8.83694C71.0047 8.8927 70.9936 8.9373 70.9936 8.99305C70.9936 9.01535 70.9826 9.04881 70.9826 9.07111C70.9826 9.11571 70.9715 9.14916 70.9715 9.19376C70.9715 9.23837 70.9605 9.28297 70.9605 9.32757C70.9605 9.34987 70.9605 9.37217 70.9494 9.39448C70.9383 9.52828 70.9383 9.66209 70.9383 9.7959C70.9383 12.026 71.9334 13.7321 73.9787 15.0144C75.3717 15.8842 77.8814 17.2334 79.8935 18.315C81.187 19.0064 82.4032 19.6642 82.7569 19.8873C83.3097 20.2441 83.4203 20.8908 83.1992 21.3145C83.166 21.3815 83.1218 21.4484 83.0776 21.5041L83.0665 21.5153C83.0444 21.5376 83.0223 21.5599 83.0002 21.5822C82.9891 21.5933 82.9891 21.5933 82.9781 21.6045C82.9559 21.6268 82.9449 21.6379 82.9228 21.6602C82.9117 21.6714 82.9007 21.6714 82.9007 21.6825C82.8785 21.6937 82.8675 21.716 82.8454 21.7271C82.8343 21.7383 82.8233 21.7383 82.8122 21.7494C82.7901 21.7606 82.779 21.7717 82.7569 21.7829C82.7459 21.794 82.7348 21.794 82.7238 21.794C82.7017 21.8052 82.6906 21.8163 82.6685 21.8163C82.6574 21.8163 82.6464 21.8275 82.6353 21.8275C82.6132 21.8386 82.6022 21.8386 82.58 21.8498C82.569 21.8498 82.5579 21.8609 82.5358 21.8609C82.5137 21.8609 82.5027 21.8721 82.4805 21.8721C82.4695 21.8721 82.4474 21.8721 82.4363 21.8832C82.4142 21.8832 82.4032 21.8832 82.381 21.8944C82.37 21.8944 82.3479 21.8944 82.3368 21.8944C82.3147 21.8944 82.3037 21.8944 82.2815 21.8944C82.2705 21.8944 82.2484 21.8944 82.2373 21.8944C82.2152 21.8944 82.2041 21.8944 82.182 21.8944C82.171 21.8944 82.1489 21.8944 82.1378 21.8944C82.1268 21.8944 82.1046 21.8944 82.0936 21.8832C82.0825 21.8832 82.0604 21.8721 82.0494 21.8721C82.0383 21.8721 82.0162 21.8609 82.0051 21.8609C81.9941 21.8609 81.972 21.8498 81.9609 21.8498C81.9499 21.8498 81.9278 21.8386 81.9167 21.8386C81.9056 21.8386 81.8835 21.8275 81.8725 21.8163C81.8504 21.8052 81.8393 21.8052 81.8172 21.794C81.8172 21.794 81.8061 21.794 81.8061 21.7829C80.3689 21.0135 73.9013 17.5345 72.2429 16.4417Z" fill="#040921" fill-opacity="0.16"/>
<path d="M100.297 15.227C100.297 15.238 100.286 15.2491 100.286 15.2601C99.2047 17.5487 100.019 20.1799 102.171 21.3187C104.457 22.5237 107.189 21.7941 108.516 19.6161C108.783 19.1739 109.642 17.6371 110.59 15.9014C110.768 15.5697 111.114 15.1827 111.682 15.1827C112.128 15.1827 112.507 15.3265 112.909 16.0561C114.046 18.0904 114.726 19.2955 114.916 19.6161C114.927 19.6271 114.938 19.6493 114.949 19.6603C114.961 19.6824 114.972 19.6935 114.983 19.7156C114.983 19.7156 114.983 19.7156 114.983 19.7266C114.994 19.7488 115.005 19.7598 115.016 19.7709C116.187 21.5066 118.596 22.6011 121.116 21.3961C122.186 20.8875 122.989 19.9367 123.379 18.7427C123.77 17.5376 123.68 16.2551 123.134 15.2491C123.011 15.0169 122.833 14.6852 122.621 14.2983C121.829 12.8279 120.491 10.3624 119.309 8.28395C118.562 6.96832 117.982 5.9733 117.57 5.32101C116.165 3.08775 114.135 1.90478 111.705 1.90478C108.415 1.90478 106.441 4.35916 105.75 5.40945C104.602 7.14521 101.123 13.646 100.353 15.1275C100.353 15.1275 100.353 15.1275 100.353 15.1385C100.342 15.1606 100.331 15.1938 100.32 15.2159C100.297 15.2159 100.297 15.2159 100.297 15.227ZM114.403 15.227C113.801 14.1435 112.965 13.5686 111.916 13.4912C112.496 12.4409 112.976 11.5896 113.132 11.3353C113.344 10.9816 113.623 10.7825 113.879 10.7825C114.147 10.7825 114.437 11.0037 114.671 11.3906C115.529 12.7947 117.637 16.5426 118.127 17.5044C118.261 17.7698 118.328 18.0241 118.328 18.2562C118.328 18.6321 118.15 18.9527 117.804 19.1407C117.748 19.1739 117.681 19.207 117.603 19.2291C117.581 19.2402 117.559 19.2402 117.536 19.2512L117.525 19.2512C117.503 19.2623 117.481 19.2623 117.458 19.2734L117.447 19.2734C117.425 19.2734 117.403 19.2844 117.38 19.2844L117.369 19.2844C117.347 19.2844 117.325 19.2844 117.302 19.2844L117.291 19.2844C117.168 19.2844 117.046 19.2623 116.923 19.207C116.89 19.196 116.867 19.1739 116.834 19.1517C116.778 19.1186 116.711 19.0633 116.656 19.008C116.622 18.9749 116.6 18.9417 116.566 18.9085C116.566 18.9085 116.566 18.8975 116.555 18.8975C116.522 18.8643 116.499 18.8201 116.477 18.7869C116.477 18.7869 116.477 18.7759 116.466 18.7759C116.455 18.7537 116.444 18.7427 116.432 18.7206C116.254 18.5105 115.797 17.7256 114.403 15.227ZM121.618 16.0451C121.941 16.6421 121.986 17.4602 121.74 18.212C121.495 18.9638 121.004 19.5608 120.358 19.8593C119.956 20.0473 119.566 20.1578 119.198 20.191C119.254 20.1468 119.298 20.0915 119.343 20.0362C119.343 20.0252 119.354 20.0252 119.354 20.0141C119.399 19.9588 119.443 19.9146 119.488 19.8593C119.499 19.8483 119.499 19.8483 119.51 19.8372C119.555 19.7819 119.588 19.7266 119.622 19.6714C119.655 19.6161 119.688 19.5608 119.722 19.4945C119.722 19.4834 119.733 19.4834 119.733 19.4724C119.767 19.4171 119.789 19.3507 119.811 19.2955C119.811 19.2844 119.822 19.2734 119.822 19.2623C119.845 19.196 119.867 19.1407 119.889 19.0744C119.889 19.0633 119.889 19.0633 119.889 19.0522C119.912 18.9859 119.923 18.9306 119.934 18.8643C119.934 18.8532 119.934 18.8532 119.945 18.8422C119.956 18.7759 119.967 18.7095 119.978 18.6432C119.978 18.6321 119.978 18.6211 119.978 18.599C119.99 18.5326 119.99 18.4663 120.001 18.4C120.001 18.3889 120.001 18.3778 120.001 18.3668C120.001 18.3005 120.001 18.2341 120.001 18.1788C120.001 18.1678 120.001 18.1678 120.001 18.1567C120.001 18.0904 119.99 18.0241 119.99 17.9577C119.99 17.9467 119.99 17.9246 119.99 17.9135C119.978 17.8472 119.967 17.7808 119.956 17.7145C119.956 17.7034 119.956 17.6924 119.945 17.6703C119.934 17.6039 119.923 17.5376 119.9 17.4713C119.9 17.4602 119.9 17.4602 119.9 17.4492C119.878 17.3828 119.856 17.3054 119.833 17.2391C119.833 17.228 119.822 17.2059 119.822 17.1949C119.8 17.1285 119.778 17.0622 119.744 16.9959C119.733 16.9848 119.733 16.9627 119.722 16.9517C119.688 16.8853 119.666 16.819 119.633 16.7526C119.633 16.7526 119.633 16.7416 119.622 16.7416C119.12 15.7687 116.968 11.9434 116.098 10.5172C115.54 9.61064 114.726 9.09102 113.846 9.09102C112.976 9.09102 112.173 9.58853 111.638 10.4619C111.381 10.882 110.422 12.6289 109.396 14.4752C108.371 16.3436 107.3 18.2783 107.021 18.7427C106.152 20.1578 104.434 20.6111 102.94 19.8261C102.55 19.6161 102.227 19.3286 101.992 18.9859L102.004 18.9859C102.059 19.008 102.126 19.0191 102.182 19.0301C102.193 19.0301 102.204 19.0412 102.227 19.0412C102.282 19.0522 102.349 19.0633 102.416 19.0744C102.427 19.0744 102.45 19.0744 102.461 19.0744C102.528 19.0854 102.583 19.0854 102.65 19.0854C102.661 19.0854 102.684 19.0854 102.695 19.0854C102.751 19.0854 102.818 19.0854 102.873 19.0854C102.884 19.0854 102.896 19.0854 102.896 19.0854C102.951 19.0854 103.018 19.0744 103.074 19.0744C103.085 19.0744 103.107 19.0744 103.119 19.0744C103.174 19.0633 103.241 19.0522 103.297 19.0412C103.308 19.0412 103.33 19.0301 103.342 19.0301C103.397 19.0191 103.464 18.997 103.52 18.9859C103.531 18.9859 103.542 18.9749 103.565 18.9749C103.62 18.9527 103.676 18.9417 103.743 18.9196C103.754 18.9196 103.754 18.9085 103.765 18.9085C103.821 18.8864 103.877 18.8643 103.933 18.8311C103.944 18.8201 103.955 18.8201 103.966 18.809C104.022 18.7869 104.078 18.7537 104.133 18.7206C104.144 18.7095 104.156 18.7095 104.178 18.6985C104.234 18.6653 104.289 18.6321 104.334 18.599C104.345 18.5879 104.356 18.5879 104.367 18.5768C104.423 18.5437 104.468 18.4995 104.524 18.4663L104.535 18.4552C104.59 18.411 104.635 18.3668 104.68 18.3226C104.691 18.3115 104.702 18.3005 104.713 18.3005C104.758 18.2562 104.802 18.212 104.847 18.1567C104.858 18.1457 104.869 18.1346 104.88 18.1236C104.925 18.0793 104.97 18.0241 105.003 17.9688C105.014 17.9577 105.014 17.9467 105.025 17.9356C105.07 17.8803 105.103 17.8251 105.148 17.7698C105.148 17.7698 105.148 17.7698 105.148 17.7587C105.404 17.3497 106.018 16.2109 106.787 14.7737C107.858 12.7836 109.185 10.2961 110.032 8.95835C111.013 7.38843 112.139 6.72509 113.79 6.72509C113.912 6.72509 114.035 6.73614 114.147 6.7472C115.574 6.87987 117.012 7.80855 117.759 9.10207C117.759 9.10207 117.759 9.11313 117.771 9.11313C118.986 11.1695 120.313 13.6239 121.105 15.0832C121.316 15.4812 121.495 15.8129 121.618 16.0451ZM107.177 6.33814C107.724 5.50896 109.251 3.59631 111.705 3.59631C113.188 3.59631 114.403 4.13804 115.395 5.25467C115.206 5.1994 115.016 5.15517 114.816 5.122C114.805 5.122 114.793 5.12201 114.782 5.11095C114.726 5.09989 114.682 5.08884 114.626 5.08884C114.604 5.08884 114.57 5.07778 114.548 5.07778C114.503 5.07778 114.47 5.06673 114.425 5.06673C114.381 5.06673 114.336 5.05567 114.292 5.05567C114.269 5.05567 114.247 5.05567 114.225 5.04462C114.091 5.03356 113.957 5.03356 113.823 5.03356C111.593 5.03356 109.887 6.02858 108.605 8.07389C107.735 9.46691 106.386 11.9766 105.304 13.9887C104.613 15.2822 103.955 16.4984 103.732 16.8522C103.375 17.4049 102.728 17.5155 102.305 17.2944C102.238 17.2612 102.171 17.217 102.115 17.1728L102.104 17.1617C102.082 17.1396 102.059 17.1175 102.037 17.0954C102.026 17.0843 102.026 17.0843 102.015 17.0733C101.992 17.0512 101.981 17.0401 101.959 17.018C101.948 17.0069 101.948 16.9959 101.937 16.9959C101.925 16.9738 101.903 16.9627 101.892 16.9406C101.881 16.9295 101.881 16.9185 101.87 16.9074C101.859 16.8853 101.847 16.8743 101.836 16.8521C101.825 16.8411 101.825 16.83 101.825 16.819C101.814 16.7969 101.803 16.7858 101.803 16.7637C101.803 16.7526 101.792 16.7416 101.792 16.7305C101.781 16.7084 101.781 16.6974 101.769 16.6753C101.769 16.6642 101.758 16.6531 101.758 16.631C101.758 16.6089 101.747 16.5979 101.747 16.5758C101.747 16.5647 101.747 16.5426 101.736 16.5315C101.736 16.5094 101.736 16.4984 101.725 16.4763C101.725 16.4652 101.725 16.4431 101.725 16.432C101.725 16.4099 101.725 16.3989 101.725 16.3768C101.725 16.3657 101.725 16.3436 101.725 16.3325C101.725 16.3104 101.725 16.2994 101.725 16.2773C101.725 16.2662 101.725 16.2441 101.725 16.233C101.725 16.222 101.725 16.1999 101.736 16.1888C101.736 16.1777 101.747 16.1556 101.747 16.1446C101.747 16.1335 101.758 16.1114 101.758 16.1004C101.758 16.0893 101.769 16.0672 101.769 16.0561C101.769 16.0451 101.781 16.023 101.781 16.0119C101.781 16.0009 101.792 15.9787 101.803 15.9677C101.814 15.9456 101.814 15.9345 101.825 15.9124C101.825 15.9124 101.825 15.9014 101.836 15.9014C102.606 14.4641 106.085 7.9965 107.177 6.33814Z" fill="#040921" fill-opacity="0.16"/>
<path d="M142.297 0.487901C142.286 0.487901 142.275 0.476751 142.264 0.476751C139.975 -0.604864 137.344 0.209135 136.205 2.36121C135 4.6471 135.73 7.37902 137.908 8.70595C138.35 8.97356 139.887 9.83217 141.623 10.78C141.954 10.9584 142.341 11.3041 142.341 11.8727C142.341 12.3188 142.197 12.6979 141.468 13.0993C139.434 14.2367 138.228 14.9169 137.908 15.1064C137.897 15.1176 137.875 15.1287 137.864 15.1399C137.842 15.151 137.83 15.1622 137.808 15.1733C137.808 15.1733 137.808 15.1733 137.797 15.1733C137.775 15.1845 137.764 15.1956 137.753 15.2068C136.017 16.3776 134.923 18.7862 136.128 21.3062C136.636 22.3767 137.587 23.1795 138.781 23.5698C139.986 23.9601 141.269 23.8709 142.275 23.3245C142.507 23.2018 142.839 23.0234 143.226 22.8116C144.696 22.0199 147.161 20.6818 149.24 19.4998C150.556 18.7527 151.551 18.1729 152.203 17.7603C154.436 16.3553 155.619 14.3259 155.619 11.895C155.619 8.60559 153.165 6.63192 152.114 5.94058C150.379 4.79206 143.878 1.31305 142.396 0.543653C142.396 0.543653 142.396 0.543653 142.385 0.543653C142.363 0.532503 142.33 0.521354 142.308 0.510204C142.308 0.487901 142.308 0.487901 142.297 0.487901ZM142.297 14.5935C143.38 13.9914 143.955 13.1551 144.033 12.1069C145.083 12.6867 145.934 13.1662 146.189 13.3223C146.542 13.5342 146.741 13.813 146.741 14.0694C146.741 14.337 146.52 14.627 146.133 14.8611C144.729 15.7197 140.981 17.8272 140.019 18.3178C139.754 18.4516 139.5 18.5185 139.268 18.5185C138.892 18.5185 138.571 18.3401 138.383 17.9945C138.35 17.9387 138.317 17.8718 138.295 17.7937C138.284 17.7714 138.284 17.7491 138.273 17.7268L138.273 17.7157C138.262 17.6934 138.262 17.6711 138.251 17.6488L138.251 17.6376C138.251 17.6153 138.24 17.593 138.24 17.5707L138.24 17.5596C138.24 17.5373 138.24 17.515 138.24 17.4927L138.24 17.4815C138.24 17.3589 138.262 17.2362 138.317 17.1136C138.328 17.0801 138.35 17.0578 138.372 17.0244C138.405 16.9686 138.461 16.9017 138.516 16.8459C138.549 16.8125 138.582 16.7902 138.615 16.7567C138.615 16.7567 138.626 16.7567 138.626 16.7456C138.66 16.7121 138.704 16.6898 138.737 16.6675C138.737 16.6675 138.748 16.6675 138.748 16.6564C138.77 16.6452 138.781 16.6341 138.803 16.6229C139.013 16.4445 139.798 15.9873 142.297 14.5935ZM141.479 21.808C140.882 22.1314 140.064 22.176 139.312 21.9306C138.56 21.6853 137.963 21.1947 137.665 20.548C137.477 20.1465 137.366 19.7563 137.333 19.3883C137.377 19.444 137.432 19.4887 137.488 19.5333C137.499 19.5333 137.499 19.5444 137.51 19.5444C137.565 19.589 137.609 19.6336 137.665 19.6782C137.676 19.6894 137.676 19.6894 137.687 19.7005C137.742 19.7451 137.797 19.7786 137.853 19.812C137.908 19.8455 137.963 19.8789 138.029 19.9124C138.041 19.9124 138.041 19.9235 138.052 19.9235C138.107 19.957 138.173 19.9793 138.228 20.0016C138.24 20.0016 138.251 20.0127 138.262 20.0127C138.328 20.035 138.383 20.0573 138.45 20.0796C138.461 20.0796 138.461 20.0796 138.472 20.0796C138.538 20.1019 138.593 20.1131 138.66 20.1242C138.671 20.1242 138.671 20.1242 138.682 20.1354C138.748 20.1465 138.814 20.1577 138.881 20.1688C138.892 20.1688 138.903 20.1688 138.925 20.1688C138.991 20.18 139.058 20.18 139.124 20.1911C139.135 20.1911 139.146 20.1911 139.157 20.1911C139.223 20.1911 139.29 20.1911 139.345 20.1911C139.356 20.1911 139.356 20.1911 139.367 20.1911C139.434 20.1911 139.5 20.18 139.566 20.18C139.577 20.18 139.599 20.18 139.61 20.18C139.677 20.1688 139.743 20.1577 139.809 20.1465C139.82 20.1465 139.832 20.1465 139.854 20.1354C139.92 20.1242 139.986 20.1131 140.053 20.0908C140.064 20.0908 140.064 20.0908 140.075 20.0908C140.141 20.0685 140.218 20.0462 140.285 20.0239C140.296 20.0239 140.318 20.0127 140.329 20.0127C140.395 19.9904 140.462 19.9681 140.528 19.9347C140.539 19.9235 140.561 19.9235 140.572 19.9124C140.639 19.8789 140.705 19.8566 140.771 19.8232C140.771 19.8232 140.782 19.8232 140.782 19.812C141.755 19.3102 145.581 17.1582 147.007 16.2884C147.913 15.7309 148.433 14.9169 148.433 14.036C148.433 13.1662 147.935 12.3634 147.062 11.8281C146.642 11.5717 144.895 10.6127 143.049 9.58685C141.18 8.56099 139.246 7.49052 138.781 7.21176C137.366 6.342 136.913 4.6248 137.698 3.13061C137.908 2.74034 138.195 2.41697 138.538 2.1828L138.538 2.19395C138.516 2.24971 138.505 2.31661 138.494 2.37237C138.494 2.38352 138.483 2.39467 138.483 2.41697C138.472 2.47272 138.461 2.53963 138.45 2.60653C138.45 2.61768 138.45 2.63998 138.45 2.65113C138.439 2.71804 138.439 2.77379 138.439 2.84069C138.439 2.85184 138.439 2.87415 138.439 2.8853C138.439 2.94105 138.439 3.00795 138.439 3.06371C138.439 3.07486 138.439 3.08601 138.439 3.08601C138.439 3.14176 138.45 3.20867 138.45 3.26442C138.45 3.27557 138.45 3.29787 138.45 3.30902C138.461 3.36477 138.472 3.43168 138.483 3.48743C138.483 3.49858 138.494 3.52089 138.494 3.53204C138.505 3.58779 138.527 3.65469 138.538 3.71045C138.538 3.7216 138.549 3.73275 138.549 3.75505C138.571 3.8108 138.582 3.86656 138.604 3.93346C138.604 3.94461 138.615 3.94461 138.615 3.95576C138.638 4.01151 138.66 4.06727 138.693 4.12302C138.704 4.13417 138.704 4.14532 138.715 4.15647C138.737 4.21223 138.77 4.26798 138.803 4.32373C138.814 4.33488 138.814 4.34603 138.825 4.36834C138.859 4.42409 138.892 4.47984 138.925 4.52445C138.936 4.5356 138.936 4.54675 138.947 4.5579C138.98 4.61365 139.024 4.65825 139.058 4.71401L139.069 4.72516C139.113 4.78091 139.157 4.82551 139.201 4.87012C139.212 4.88127 139.223 4.89242 139.223 4.90357C139.268 4.94817 139.312 4.99277 139.367 5.03738C139.378 5.04853 139.389 5.05968 139.4 5.07083C139.445 5.11543 139.5 5.16003 139.555 5.19349C139.566 5.20464 139.577 5.20464 139.588 5.21579C139.644 5.26039 139.699 5.29384 139.754 5.33844C139.754 5.33844 139.754 5.33844 139.765 5.33844C140.174 5.59491 141.313 6.2082 142.75 6.97759C144.74 8.04806 147.228 9.37499 148.566 10.2224C150.135 11.2037 150.799 12.3299 150.799 13.9802C150.799 14.1029 150.788 14.2255 150.777 14.337C150.644 15.7643 149.715 17.2028 148.422 17.9499C148.422 17.9499 148.411 17.9499 148.411 17.961C146.354 19.1764 143.9 20.5034 142.441 21.2951C142.043 21.5069 141.711 21.6853 141.479 21.808ZM151.186 7.36787C152.015 7.91425 153.928 9.44189 153.928 11.895C153.928 13.3781 153.386 14.5935 152.269 15.5859C152.325 15.3964 152.369 15.2068 152.402 15.0061C152.402 14.9949 152.402 14.9838 152.413 14.9726C152.424 14.9169 152.435 14.8723 152.435 14.8165C152.435 14.7942 152.446 14.7608 152.446 14.7385C152.446 14.6939 152.457 14.6604 152.457 14.6158C152.457 14.5712 152.468 14.5266 152.468 14.482C152.468 14.4597 152.468 14.4374 152.479 14.4151C152.49 14.2813 152.49 14.1475 152.49 14.0137C152.49 11.7835 151.495 10.0775 149.45 8.79515C148.057 7.9254 145.547 6.57617 143.535 5.49455C142.242 4.80321 141.026 4.14532 140.672 3.92231C140.119 3.56549 140.008 2.91875 140.23 2.49502C140.263 2.42812 140.307 2.36121 140.351 2.30546L140.362 2.29431C140.384 2.27201 140.406 2.24971 140.429 2.22741C140.44 2.21626 140.44 2.21626 140.451 2.20511C140.473 2.1828 140.484 2.17165 140.506 2.14935C140.517 2.1382 140.528 2.1382 140.528 2.12705C140.55 2.1159 140.561 2.0936 140.583 2.08245C140.594 2.0713 140.605 2.0713 140.616 2.06015C140.639 2.049 140.65 2.03785 140.672 2.0267C140.683 2.01554 140.694 2.01554 140.705 2.01554C140.727 2.00439 140.738 1.99324 140.76 1.99324C140.771 1.99324 140.782 1.98209 140.793 1.98209C140.815 1.97094 140.827 1.97094 140.849 1.95979C140.86 1.95979 140.871 1.94864 140.893 1.94864C140.915 1.94864 140.926 1.93749 140.948 1.93749C140.959 1.93749 140.981 1.93749 140.992 1.92634C141.015 1.92634 141.026 1.92634 141.048 1.91519C141.059 1.91519 141.081 1.91519 141.092 1.91519C141.114 1.91519 141.125 1.91519 141.147 1.91519C141.158 1.91519 141.18 1.91519 141.191 1.91519C141.214 1.91519 141.225 1.91519 141.247 1.91519C141.258 1.91519 141.28 1.91519 141.291 1.91519C141.302 1.91519 141.324 1.91519 141.335 1.92634C141.346 1.92634 141.368 1.93749 141.379 1.93749C141.39 1.93749 141.413 1.94864 141.424 1.94864C141.435 1.94864 141.457 1.95979 141.468 1.95979C141.479 1.95979 141.501 1.97094 141.512 1.97094C141.523 1.97094 141.545 1.98209 141.556 1.99324C141.578 2.00439 141.589 2.00439 141.612 2.01554C141.612 2.01554 141.623 2.01554 141.623 2.02669C143.06 2.79609 149.527 6.2751 151.186 7.36787Z" fill="#040921" fill-opacity="0.16"/>
</svg>
