<svg width="24" height="24" viewBox="0 0 24 24" fill="none" xmlns="http://www.w3.org/2000/svg">
<path d="M16.8405 11.6299C17.241 11.6349 17.6385 11.5596 18.0095 11.4084C18.3805 11.2573 18.7174 11.0334 19.0005 10.7499L21.8305 7.91991C22.0167 7.73255 22.1213 7.4791 22.1213 7.21491C22.1213 6.95073 22.0167 6.69728 21.8305 6.50991C21.7375 6.41618 21.6269 6.34179 21.5051 6.29102C21.3832 6.24025 21.2525 6.21411 21.1205 6.21411C20.9885 6.21411 20.8578 6.24025 20.7359 6.29102C20.614 6.34179 20.5034 6.41618 20.4105 6.50991L17.5505 9.32991C17.4575 9.42364 17.3469 9.49803 17.2251 9.5488C17.1032 9.59957 16.9725 9.62571 16.8405 9.62571C16.7085 9.62571 16.5778 9.59957 16.4559 9.5488C16.334 9.49803 16.2234 9.42364 16.1305 9.32991L19.6705 5.79991C19.7637 5.70667 19.8377 5.59598 19.8881 5.47416C19.9386 5.35234 19.9646 5.22177 19.9646 5.08991C19.9646 4.95805 19.9386 4.82749 19.8881 4.70566C19.8377 4.58384 19.7637 4.47315 19.6705 4.37991C19.5772 4.28667 19.4665 4.21271 19.3447 4.16225C19.2229 4.11179 19.0923 4.08582 18.9605 4.08582C18.8286 4.08582 18.698 4.11179 18.5762 4.16225C18.4544 4.21271 18.3437 4.28667 18.2505 4.37991L14.7205 7.91991C14.5342 7.73255 14.4297 7.4791 14.4297 7.21491C14.4297 6.95073 14.5342 6.69728 14.7205 6.50991L17.5505 3.67991C17.6437 3.58667 17.7177 3.47598 17.7681 3.35416C17.8186 3.23234 17.8446 3.10177 17.8446 2.96991C17.8446 2.83805 17.8186 2.70748 17.7681 2.58566C17.7177 2.46384 17.6437 2.35315 17.5505 2.25991C17.4572 2.16667 17.3465 2.09271 17.2247 2.04225C17.1029 1.99179 16.9723 1.96582 16.8405 1.96582C16.7086 1.96582 16.578 1.99179 16.4562 2.04225C16.3344 2.09271 16.2237 2.16667 16.1305 2.25991L13.3005 5.08991C12.7387 5.65241 12.4231 6.41491 12.4231 7.20991C12.4231 8.00491 12.7387 8.76741 13.3005 9.32991L12.0005 10.6199L3.73048 2.31991L3.63048 2.25991C3.57936 2.21531 3.52211 2.17827 3.46048 2.14991L3.28048 2.07991L3.16048 1.99991H3.09048H2.89048C2.83085 1.99038 2.7701 1.99038 2.71048 1.99991C2.64994 2.02195 2.59273 2.05223 2.54048 2.08991L2.38048 2.18991H2.31048L2.25048 2.28991C2.20815 2.34271 2.1713 2.39967 2.14048 2.45991C2.11119 2.52089 2.08775 2.58451 2.07048 2.64991C2.07048 2.64991 2.07048 2.71991 2.07048 2.75991C1.82781 4.45132 1.98253 6.17601 2.52235 7.79723C3.06218 9.41844 3.97227 10.8916 5.18048 12.0999L7.82048 14.7299L2.41048 20.1299C2.31675 20.2229 2.24235 20.3335 2.19158 20.4553C2.14082 20.5772 2.11468 20.7079 2.11468 20.8399C2.11468 20.9719 2.14082 21.1026 2.19158 21.2245C2.24235 21.3463 2.31675 21.4569 2.41048 21.5499C2.50392 21.6426 2.61473 21.7159 2.73657 21.7657C2.85841 21.8154 2.98887 21.8407 3.12048 21.8399C3.25208 21.8407 3.38254 21.8154 3.50438 21.7657C3.62622 21.7159 3.73704 21.6426 3.83048 21.5499L9.90048 15.5699L12.7305 12.7399L14.7305 10.7399C15.2885 11.3039 16.0471 11.6239 16.8405 11.6299ZM9.19048 13.4499L6.56048 10.8099C5.11893 9.34865 4.21632 7.44118 4.00048 5.39991L10.6105 11.9999L9.19048 13.4499ZM15.4305 14.0199C15.2422 13.8303 14.9863 13.7232 14.719 13.7223C14.4518 13.7213 14.1951 13.8266 14.0055 14.0149C13.8158 14.2032 13.7088 14.4591 13.7078 14.7264C13.7069 14.9936 13.8122 15.2503 14.0005 15.4399L20.3005 21.7399C20.4915 21.9137 20.7423 22.0069 21.0005 21.9999C21.1321 22.0007 21.2625 21.9754 21.3844 21.9257C21.5062 21.8759 21.617 21.8026 21.7105 21.7099C21.8042 21.6169 21.8786 21.5063 21.9294 21.3845C21.9801 21.2626 22.0063 21.1319 22.0063 20.9999C22.0063 20.8679 21.9801 20.7372 21.9294 20.6153C21.8786 20.4935 21.8042 20.3829 21.7105 20.2899L15.4305 14.0199Z" fill="#B2B3BA"/>
</svg>
