<svg width="24" height="24" viewBox="0 0 24 24" fill="none" xmlns="http://www.w3.org/2000/svg">
<g opacity="0.3">
<path d="M12 12L21 3" stroke="#040921" stroke-width="2" stroke-linecap="round" stroke-linejoin="round"/>
<path d="M15.1829 8.81799C14.474 8.10949 13.5488 7.658 12.5541 7.53515C11.5594 7.4123 10.5522 7.62512 9.69219 8.13986C8.83222 8.65459 8.16876 9.44176 7.80707 10.3765C7.44538 11.3112 7.40617 12.3399 7.69567 13.2994C7.98517 14.259 8.58679 15.0943 9.40509 15.673C10.2234 16.2517 11.2115 16.5406 12.2127 16.4938C13.2138 16.447 14.1707 16.0673 14.9314 15.4148C15.6922 14.7623 16.2133 13.8744 16.4121 12.8921" stroke="#040921" stroke-width="2" stroke-linecap="round" stroke-linejoin="round"/>
<path d="M18.3634 5.63618C16.7938 4.06893 14.7004 3.13701 12.4855 3.01948C10.2705 2.90195 8.09024 3.60711 6.36362 4.99946C4.63699 6.3918 3.48581 8.37311 3.13127 10.5627C2.77674 12.7522 3.24387 14.9956 4.4429 16.8617C5.64192 18.7277 7.48826 20.0849 9.62714 20.6723C11.766 21.2598 14.0465 21.0361 16.0305 20.0442C18.0144 19.0523 19.5619 17.3623 20.3755 15.2988C21.189 13.2353 21.2113 10.944 20.4381 8.86502" stroke="#040921" stroke-width="2" stroke-linecap="round" stroke-linejoin="round"/>
</g>
</svg>
