<svg width="24" height="24" viewBox="0 0 24 24" fill="none" xmlns="http://www.w3.org/2000/svg">
<path d="M4.125 12H19.875" stroke="#B2B3BA" stroke-width="2" stroke-linecap="round" stroke-linejoin="round"/>
<path d="M4.125 6.75H19.875" stroke="#B2B3BA" stroke-width="2" stroke-linecap="round" stroke-linejoin="round"/>
<path d="M9 19.5L6.75 22.5" stroke="#B2B3BA" stroke-width="2" stroke-linecap="round" stroke-linejoin="round"/>
<path d="M15 19.5L17.25 22.5" stroke="#B2B3BA" stroke-width="2" stroke-linecap="round" stroke-linejoin="round"/>
<path d="M17.625 3H6.375C5.13236 3 4.125 4.00736 4.125 5.25V17.25C4.125 18.4926 5.13236 19.5 6.375 19.5H17.625C18.8676 19.5 19.875 18.4926 19.875 17.25V5.25C19.875 4.00736 18.8676 3 17.625 3Z" stroke="#B2B3BA" stroke-width="2" stroke-linecap="round" stroke-linejoin="round"/>
<path d="M12 6.75V12" stroke="#B2B3BA" stroke-width="2" stroke-linecap="round" stroke-linejoin="round"/>
<path d="M8.25 17.25C9.07843 17.25 9.75 16.5784 9.75 15.75C9.75 14.9216 9.07843 14.25 8.25 14.25C7.42157 14.25 6.75 14.9216 6.75 15.75C6.75 16.5784 7.42157 17.25 8.25 17.25Z" fill="#B2B3BA"/>
<path d="M15.75 17.25C16.5784 17.25 17.25 16.5784 17.25 15.75C17.25 14.9216 16.5784 14.25 15.75 14.25C14.9216 14.25 14.25 14.9216 14.25 15.75C14.25 16.5784 14.9216 17.25 15.75 17.25Z" fill="#B2B3BA"/>
</svg>
